<?xml version="1.0" encoding="UTF-8"?>
<svg id="Layer_1" data-name="Layer 1" xmlns="http://www.w3.org/2000/svg" xmlns:xlink="http://www.w3.org/1999/xlink" viewBox="0 0 3840 8694">
  <defs>
    <style>
      .cls-1 {
        mask: url(#mask);
      }

      .cls-2 {
        filter: url(#luminosity-noclip);
      }

      .cls-3 {
        filter: url(#luminosity-noclip-3);
      }

      .cls-4 {
        filter: url(#luminosity-noclip-7);
      }

      .cls-5 {
        filter: url(#luminosity-noclip-5);
      }

      .cls-6 {
        fill: #1a3e3f;
      }

      .cls-7 {
        fill: url(#linear-gradient-8);
      }

      .cls-8 {
        fill: url(#linear-gradient-5);
      }

      .cls-9 {
        fill: url(#linear-gradient-6);
      }

      .cls-10 {
        fill: url(#linear-gradient-4);
      }

      .cls-11 {
        fill: url(#linear-gradient-3);
      }

      .cls-12 {
        fill: url(#linear-gradient-2);
      }

      .cls-13 {
        fill: url(#linear-gradient-9);
      }

      .cls-13, .cls-14, .cls-15, .cls-16 {
        mix-blend-mode: multiply;
      }

      .cls-14 {
        fill: url(#linear-gradient-7);
      }

      .cls-17 {
        fill: #1a4949;
      }

      .cls-18 {
        mask: url(#mask-2);
      }

      .cls-19 {
        mask: url(#mask-3);
      }

      .cls-20 {
        mask: url(#mask-4);
      }

      .cls-21 {
        mask: url(#mask-5);
      }

      .cls-22 {
        mask: url(#mask-7);
      }

      .cls-23 {
        mask: url(#mask-6);
      }

      .cls-24 {
        mask: url(#mask-1);
      }

      .cls-15 {
        fill: url(#linear-gradient-11);
      }

      .cls-25 {
        fill: #176872;
      }

      .cls-26 {
        fill: url(#linear-gradient-10);
      }

      .cls-27 {
        fill: url(#linear-gradient-12);
      }

      .cls-16 {
        fill: url(#linear-gradient);
      }

      .cls-28 {
        fill: #68a09c;
      }
    </style>
    <filter id="luminosity-noclip" x="0" y="0" width="3840" height="1108.48" color-interpolation-filters="sRGB" filterUnits="userSpaceOnUse">
      <feFlood flood-color="#fff" result="bg"/>
      <feBlend in="SourceGraphic" in2="bg"/>
    </filter>
    <filter id="luminosity-noclip-2" x="0" y="-9272" width="3840" height="32766" color-interpolation-filters="sRGB" filterUnits="userSpaceOnUse">
      <feFlood flood-color="#fff" result="bg"/>
      <feBlend in="SourceGraphic" in2="bg"/>
    </filter>
    <mask id="mask-1" x="0" y="-9272" width="3840" height="32766" maskUnits="userSpaceOnUse"/>
    <linearGradient id="linear-gradient" x1="1920" y1="999.46" x2="1920" y2="39.76" gradientUnits="userSpaceOnUse">
      <stop offset="0" stop-color="#fff"/>
      <stop offset=".58" stop-color="#fff"/>
      <stop offset="1" stop-color="#e6e6e6"/>
    </linearGradient>
    <mask id="mask" x="0" y="0" width="3840" height="1108.48" maskUnits="userSpaceOnUse">
      <g class="cls-2">
        <g class="cls-24">
          <rect class="cls-16" x="0" y="0" width="3840" height="1108.48"/>
        </g>
      </g>
    </mask>
    <linearGradient id="linear-gradient-2" x1="1920" y1="999.46" x2="1920" y2="39.76" gradientUnits="userSpaceOnUse">
      <stop offset="0" stop-color="#ecf5ed"/>
      <stop offset=".58" stop-color="#d2e4d7"/>
      <stop offset="1" stop-color="#bed9c6"/>
    </linearGradient>
    <linearGradient id="linear-gradient-3" x1="3117.13" y1="1261" x2="3238.73" y2="816.68" gradientUnits="userSpaceOnUse">
      <stop offset="0" stop-color="#d1e3d6"/>
      <stop offset=".17" stop-color="#b5d1c8"/>
      <stop offset=".37" stop-color="#99c0bb"/>
      <stop offset=".58" stop-color="#85b3b1"/>
      <stop offset=".79" stop-color="#79acab"/>
      <stop offset="1" stop-color="#75aaaa"/>
    </linearGradient>
    <linearGradient id="linear-gradient-4" x1="2515.04" y1="1628.63" x2="2624.74" y2="1007.03" gradientUnits="userSpaceOnUse">
      <stop offset="0" stop-color="#d7e7db"/>
      <stop offset=".48" stop-color="#accec9"/>
      <stop offset=".81" stop-color="#95c1bf"/>
    </linearGradient>
    <linearGradient id="linear-gradient-5" x1="1407.65" y1="1997.13" x2="1571.35" y2="1431.2" gradientUnits="userSpaceOnUse">
      <stop offset=".52" stop-color="#d1e3d6"/>
      <stop offset="1" stop-color="#bed9c6"/>
    </linearGradient>
    <linearGradient id="linear-gradient-6" x1="983.28" y1="1208.78" x2="3111.64" y2="1208.78" gradientUnits="userSpaceOnUse">
      <stop offset="0" stop-color="#d1e3d6"/>
      <stop offset=".08" stop-color="#cee1d3"/>
      <stop offset=".54" stop-color="#c2dbc9"/>
      <stop offset="1" stop-color="#bed9c6"/>
    </linearGradient>
    <filter id="luminosity-noclip-3" x="2211.21" y="714.49" width="1620.31" height="567.03" color-interpolation-filters="sRGB" filterUnits="userSpaceOnUse">
      <feFlood flood-color="#fff" result="bg"/>
      <feBlend in="SourceGraphic" in2="bg"/>
    </filter>
    <filter id="luminosity-noclip-4" x="2211.21" y="-9272" width="1620.31" height="32766" color-interpolation-filters="sRGB" filterUnits="userSpaceOnUse">
      <feFlood flood-color="#fff" result="bg"/>
      <feBlend in="SourceGraphic" in2="bg"/>
    </filter>
    <mask id="mask-3" x="2211.21" y="-9272" width="1620.31" height="32766" maskUnits="userSpaceOnUse"/>
    <linearGradient id="linear-gradient-7" x1="2211.21" y1="998.01" x2="3831.52" y2="998.01" gradientUnits="userSpaceOnUse">
      <stop offset=".27" stop-color="#333"/>
      <stop offset=".48" stop-color="#282828"/>
      <stop offset=".84" stop-color="#0d0d0d"/>
      <stop offset="1" stop-color="#000"/>
    </linearGradient>
    <mask id="mask-2" x="2211.21" y="714.49" width="1620.31" height="567.03" maskUnits="userSpaceOnUse">
      <g class="cls-3">
        <g class="cls-19">
          <path class="cls-14" d="M3794.87,1174.43c7.29,5.2,36.38,15.58,36.38,15.58.09,13.34.18,26.68.27,40.02-4.72-1.96-11.9-4.13-20.27-3.12-11.73,1.42-15.3,7.84-27.28,11.69-15.75,5.06-17.53-3.48-31.96.78-10.94,3.23-11.36,8.57-39.76,28.84-5.77,4.12-8.66,6.18-10.13,7.02-20.19,11.43-42.44,4.83-70.94-.78-15.55-3.06-43.67-8.6-74.31-9.61-28.59-.95-26.96,3.11-64.44,3.12-19.74,0-37.06-1.38-71.72-4.16-23.16-1.85-40.94-3.71-55.09-5.2-25.47-2.68-38.21-4.01-53.01-6.24-26.84-4.03-31.15-6.17-57.16-10.39-7.29-1.18-21.58-3.39-60.28-7.28-22.12-2.22-47.48-4.75-84.19-7.28-97.35-6.71-105.87-1.84-128.37-14.56-22.37-12.64-25.04-23.81-49.88-31.18-23.99-7.11-35.78-.96-57.69-12.47-18.25-9.6-31.1-24.96-32.73-23.39-1.39,1.33,8.05,12.19,6.24,14.02-1.97,2.01-12.37-11.65-29.62-14.02-11.45-1.57-15.2,3.31-24.94,0-8.33-2.83-11.67-8.49-17.15-14.02-5.72-5.8-11.97-9.64-43.65-20.28-24.76-8.31-39.82-12.29-56.14-17.15-33.01-9.82-49.66-14.74-56.12-18.71-8.11-4.94-33.75-20.62-45.22-37.41-1.2-1.75-4.52-6.89-10.9-10.92-7.51-4.74-11.38-2.65-17.15-5.46-9.48-4.6-7.91-14.26-19.24-36.63-4.6-9.1-10.78-19.18-14.14-22.37.28-6.12-.66-14.5-5.6-20.24-2.67-3.09-3.45-1.87-10.4-7.27-6.31-4.94-11.41-8.88-14.54-15.6-2.81-6.02-3.29-12.53-3.09-15.9-1.71-2.11-4.68-6.43-8.86-11.63-6.89-8.57-8.29-8.53-11.43-13.01-5.3-7.51-4.72-12.33-7.79-22.33-1.85-6.04-8.21-26.73-23.91-36.38-3.07-1.89-9-3.19-20.8-5.72-25.56-5.5-30.74-4.96-49.88-9.36-14.74-3.39-15.3-4.56-25.98-6.24-11.26-1.77-19.86-1.93-29.62-2.07-22.91-.36-26.87,1.89-41.06.52-13.11-1.27-21.67-4.36-28.07-6.24-5.14-1.51-13.13-2.05-22.03-2.17,6.97-1.43,14.42-3.83,19.44-7.71,11.43-8.83,21.3-20.26,27.01-21.32,5.72-1.04,23.39-3.63,31.18-6.24,7.81-2.59,37.43-3.11,56.66-3.11s4.68-5.2,25.46-17.67c20.8-12.47,40.02-9.88,40.02-9.88,0,0,16.1-9.34,18.71-8.82,2.59.52,36.89,12.47,40.54,15.06,3.63,2.61,62.35,33.79,113.29,57.17,50.92,23.39,64.96,10.4,85.22,29.62,20.26,19.22,76.4,45.2,83.15,49.88,6.75,4.68,61.32,30.66,108.09,47.81,46.77,17.15,59.76,53.01,103.41,72.23,43.67,19.24,60.8,34.3,96.66,47.29,35.86,12.99,205.8,86.8,273.36,101.34,67.55,14.56,120.56,31.18,145.5,31.18s49.9-8.31,77.97-3.11c28.05,5.2,32.21,32.21,74.82,20.78,42.61-11.43,48.85-21.81,78.99-22.85,30.14-1.06,76.92,8.31,84.19,13.51Z"/>
        </g>
      </g>
    </mask>
    <linearGradient id="linear-gradient-8" x1="2211.21" y1="998.01" x2="3831.52" y2="998.01" gradientUnits="userSpaceOnUse">
      <stop offset=".27" stop-color="#d1e3d6"/>
      <stop offset=".4" stop-color="#c6dcd1"/>
      <stop offset=".64" stop-color="#abcbc4"/>
      <stop offset=".94" stop-color="#7fb0ae"/>
      <stop offset="1" stop-color="#75aaaa"/>
    </linearGradient>
    <filter id="luminosity-noclip-5" x="2994.27" y="610.6" width="837.28" height="385.96" color-interpolation-filters="sRGB" filterUnits="userSpaceOnUse">
      <feFlood flood-color="#fff" result="bg"/>
      <feBlend in="SourceGraphic" in2="bg"/>
    </filter>
    <filter id="luminosity-noclip-6" x="2994.27" y="-9272" width="837.28" height="32766" color-interpolation-filters="sRGB" filterUnits="userSpaceOnUse">
      <feFlood flood-color="#fff" result="bg"/>
      <feBlend in="SourceGraphic" in2="bg"/>
    </filter>
    <mask id="mask-5" x="2994.27" y="-9272" width="837.28" height="32766" maskUnits="userSpaceOnUse"/>
    <linearGradient id="linear-gradient-9" x1="2994.27" y1="803.58" x2="3831.55" y2="803.58" gradientUnits="userSpaceOnUse">
      <stop offset=".27" stop-color="#1a1a1a"/>
      <stop offset=".62" stop-color="#0f0f0f"/>
      <stop offset="1" stop-color="#000"/>
    </linearGradient>
    <mask id="mask-4" x="2994.27" y="610.6" width="837.28" height="385.96" maskUnits="userSpaceOnUse">
      <g class="cls-5">
        <g class="cls-21">
          <path class="cls-13" d="M3831.55,996.56c-9.88-1.12-19.02-2.79-26.3-5.18-3.59-1.2-26.06-9.14-54.36-19.98-12.15-4.66-19.76-7.73-25.9-9.84-6.14-2.11-10.78-3.25-16.93-4.06-4.96-.64-14.64-1.57-28.13-4.76-7.55-1.79-11.89-2.83-16.71-4.94-13.75-6.06-15.88-14.12-25.28-21.45-8.88-6.95-13.19-4.58-61.5-11.53-16.67-2.41-25.14-3.65-32.31-5.76-4.6-1.35-20.84-6.37-40.82-19.12-22.99-14.68-21.1-20.52-44.2-35.72-14.66-9.64-27.61-15.32-38.77-20.2-23.41-10.26-31.65-10.6-48.13-20.06-12.27-7.07-18.71-13.25-28.39-21.42-46.06-38.81-85.36-56.18-85.26-62.57-9.42-.4-21.75-2.35-33.27-8.39-8.25-4.34-10.1-7.63-15.09-11.05-3.35-2.29-6.23-3.48-8.02-4.19-6.23-2.5-9.76-2.07-19.48-3.25-6.6-.8-4.61-.96-15.59-2.6-12.17-1.82-12.35-1.29-20.15-2.68-12.67-2.25-12.29-3.66-17.44-3.4-9.92.51-10.63,5.71-19.58,6.08-10.66.45-12.62-6.8-21.31-5.2-8.29,1.53-9.01,8.59-17.67,9.35-4.64.41-8.32-1.27-13.51-3.64-8.76-4-8.88-7.07-15.07-9.87-11.59-5.26-18.91,1.98-23.91-2.86-6.04-5.85,2.84-18.2-3.12-26.5-4.27-5.96-13.79-6.5-21.09-6.04,11.53-9.08,25.16-16.69,32.79-22.03,7.79-5.46,38.19-16.36,38.19-16.36,0,0,20.28,12.47,42.87,2.33,22.61-10.14,29.62-10.14,49.13-7.79,19.48,2.33,61.58,18.71,69.37,21.81,7.81,3.13,18.71-4.66,31.97,13.27,13.25,17.93,84.96,54.56,104.45,67.81,19.48,13.25,84.96,62.35,108.35,74.82,23.39,12.47,90.42,55.36,109.13,63.15,18.73,7.79,52.23,40.54,87.31,54.56,35.08,14.02,88.09,51.46,110.7,60.8,22.59,9.36,52.99,16.38,52.99,16.38l.04,12.07Z"/>
        </g>
      </g>
    </mask>
    <linearGradient id="linear-gradient-10" x1="2994.27" y1="803.58" x2="3831.55" y2="803.58" gradientUnits="userSpaceOnUse">
      <stop offset=".27" stop-color="#d1e3d6"/>
      <stop offset=".4" stop-color="#c6dcd1"/>
      <stop offset=".64" stop-color="#abcbc4"/>
      <stop offset=".94" stop-color="#7fb0ae"/>
      <stop offset="1" stop-color="#75aaaa"/>
    </linearGradient>
    <filter id="luminosity-noclip-7" x="1543.3" y="868.16" width="499.22" height="123.34" color-interpolation-filters="sRGB" filterUnits="userSpaceOnUse">
      <feFlood flood-color="#fff" result="bg"/>
      <feBlend in="SourceGraphic" in2="bg"/>
    </filter>
    <filter id="luminosity-noclip-8" x="1543.3" y="-9272" width="499.22" height="32766" color-interpolation-filters="sRGB" filterUnits="userSpaceOnUse">
      <feFlood flood-color="#fff" result="bg"/>
      <feBlend in="SourceGraphic" in2="bg"/>
    </filter>
    <mask id="mask-7" x="1543.3" y="-9272" width="499.22" height="32766" maskUnits="userSpaceOnUse"/>
    <linearGradient id="linear-gradient-11" x1="1543.3" y1="929.83" x2="2042.52" y2="929.83" gradientUnits="userSpaceOnUse">
      <stop offset="0" stop-color="gray"/>
      <stop offset="0" stop-color="#7e7e7e"/>
      <stop offset=".34" stop-color="#484848"/>
      <stop offset=".63" stop-color="#212121"/>
      <stop offset=".86" stop-color="#080808"/>
      <stop offset="1" stop-color="#000"/>
    </linearGradient>
    <mask id="mask-6" x="1543.3" y="868.16" width="499.22" height="123.34" maskUnits="userSpaceOnUse">
      <g class="cls-4">
        <g class="cls-22">
          <path class="cls-15" d="M2042.52,982.15l-17.15,9.34-14.8-.78s-26.51,0-34.3-.78c-7.79-.78-23.39-3.9-31.95-8.59-8.59-4.66-28.07-9.34-39.76-12.47-11.69-3.11-42.09-4.66-42.09-4.66l-33.53-14.04s-14.02-7.79-19.48-10.12c-5.46-2.35-41.32-10.92-41.32-10.92l-7.79-.78s-25.72-24.16-38.99-26.51c-13.25-2.33-24.16.78-24.16.78l-27.27,3.13s-19.48,1.55-21.83,1.55-6.24,0-13.25-1.55c-7.01-1.55-10.92-2.35-10.92-2.35,0,0-17.93,5.46-24.94,7.81-7.01,2.33-4.68,1.55-19.48,1.55s-16.38.78-16.38.78c0,0-9.94,3.03-19.82,6.02,5.62-4.98,10.88-9.16,15.4-11.22,11.43-5.2,35.86-23.91,41.06-23.91s18.19,4.68,23.39,5.2c5.2.52,22.35,1.04,26.5-1.55,4.16-2.61,19.76-14.56,28.07-17.15s34.3-3.13,39.5-2.59c5.2.52,74.82,14.54,90.94,24.42,16.12,9.86,27.55,11.95,42.09,18.19,14.54,6.24,33.27,11.95,47.81,14.54.6.1,1.22.2,1.85.3,5.2,5.26,10.02,10.38,13.21,14.26,10.92,13.25,21.83,11.69,24.96,14.02,3.11,2.33,11.69,7.79,14.02,8.57,2.33.78,24.94,9.36,42.09,14.82,17.15,5.46,14.02,2.33,20.26,2.33s28.07,2.35,28.07,2.35Z"/>
        </g>
      </g>
    </mask>
    <linearGradient id="linear-gradient-12" x1="1543.3" y1="929.83" x2="2042.52" y2="929.83" gradientUnits="userSpaceOnUse">
      <stop offset="0" stop-color="#d1e3d6"/>
      <stop offset=".43" stop-color="#c6ddcd"/>
      <stop offset="1" stop-color="#bed9c6"/>
    </linearGradient>
  </defs>
  <g class="cls-1">
    <rect class="cls-12" x="0" y="0" width="3840" height="1108.48"/>
  </g>
  <path class="cls-11" d="M3840,1215l-294.56-5.23-305.59-43.67-517.59-230.73-196.44-109.13,84.19-17.93s69.39-17.15,91.2-31.97c21.83-14.8,45.22-23.39,49.13-27.27,3.88-3.9,52.99-26.51,52.99-26.51l53.79-26.49s42.89-32.75,46-32.75,24.94,1.57,28.85.78c3.9-.78,28.07-8.57,28.07-8.57,0,0,21.81,10.14,33.51.78.24-.2.5-.38.74-.58,11.53-9.08,25.16-16.69,32.79-22.03,7.79-5.46,38.19-16.36,38.19-16.36,0,0,20.28,12.47,42.87,2.33,22.61-10.14,29.62-10.14,49.13-7.79,19.48,2.33,61.58,18.71,69.37,21.81,7.81,3.13,18.71-4.66,31.97,13.27,13.25,17.93,84.96,54.56,104.45,67.81,19.48,13.25,84.96,62.35,108.35,74.82,23.39,12.47,90.42,55.36,109.13,63.15,18.73,7.79,52.23,40.54,87.31,54.56,35.08,14.02,88.09,51.46,110.7,60.8,22.59,9.36,61.48,17.89,61.48,17.89"/>
  <path class="cls-10" d="M3840.25,1207.01v323.24s-156.94,8.33-160.05,6.26c-3.13-2.09-247.38-7.29-247.38-7.29l-427.17-7.27-277.52,18.96-617.37-28.05-796.14-492.93s47.29-3.65,61.84-8.83c14.56-5.2,27.55-7.29,38.99-11.43,11.43-4.16,32.73-8.33,41.06-12.99,8.31-4.68,29.62-9.36,39.48-13.01,9.88-3.63,15.08-2.59,29.62-13.51,8.81-6.59,18.15-16.04,26.69-23.61,5.62-4.98,10.88-9.16,15.4-11.22,11.43-5.2,35.86-23.91,41.06-23.91s18.19,4.68,23.39,5.2c5.2.52,22.35,1.04,26.5-1.55,4.16-2.61,19.76-14.56,28.07-17.15s34.3-3.13,39.5-2.59c5.2.52,74.82,14.54,90.94,24.42,16.12,9.86,27.55,11.95,42.09,18.19,14.54,6.24,33.27,11.95,47.81,14.54.6.1,1.22.2,1.85.3,15.16,2.35,43.81,2.83,54.26,2.83s24.42,8.31,36.38-8.84c11.95-17.15,29.62-28.07,44.7-35.34,15.06-7.27,75.36-34.82,89.9-41.06,14.54-6.24,34.82-19.74,41.06-27.53,6.24-7.81,23.91-24.42,26.5-24.42,1.45,0,9.6-.32,18.49-2.17h.02c6.97-1.43,14.42-3.83,19.44-7.71,11.43-8.83,21.3-20.26,27.01-21.32,5.72-1.04,23.39-3.63,31.18-6.24,7.81-2.59,37.43-3.11,56.66-3.11s4.68-5.2,25.46-17.67c20.8-12.47,40.02-9.88,40.02-9.88,0,0,16.1-9.34,18.71-8.82,2.59.52,36.89,12.47,40.54,15.06,3.63,2.61,62.35,33.79,113.29,57.17,50.92,23.39,64.96,10.4,85.22,29.62,20.26,19.22,76.4,45.2,83.15,49.88,6.75,4.68,61.32,30.66,108.09,47.81,46.77,17.15,59.76,53.01,103.41,72.23,43.67,19.24,60.8,34.3,96.66,47.29,35.86,12.99,205.8,86.8,273.36,101.34,67.55,14.56,120.56,31.18,145.5,31.18s49.9-8.31,77.97-3.11c28.05,5.2,32.21,32.21,74.82,20.78,42.61-11.43,48.85-21.81,78.99-22.85,30.14-1.06,76.92,8.31,84.19,13.51,7.29,5.2,36.38,15.58,36.38,15.58Z"/>
  <path class="cls-8" d="M3222.9,1510.14c-44.07,2.93-88.13,5.86-132.2,8.81-43.17,2.87-86.32,5.72-129.51,8.61-1.28.08-2.57.18-3.84.26l-449.5,44.94-103.81,10.38-350.93,35.1-1331.42-18.71c-240.23,3.11-480.44,6.24-720.66,9.34-.14-22.99-.28-45.98-.4-68.99-.76-154.99-1.39-309.88-.63-464.88,9.26-7.43,20.65-15.25,32.98-22.7,23.51-14.14,45.82-23.07,64.31-28.83h30.42l21.04,4.66s42.09-4.66,58.47-14.02c16.38-9.36,67.81-18.71,91.2-37.41,23.39-18.71,95.88-53.79,95.88-53.79l84.19-32.75s49.11-35.08,53.79-42.09c4.68-7.01,23.91-21.81,29.1-21.3,5.2.52,10.66-.26,17.41-.26s24.16-.8,29.88-2.35c5.72-1.55,14.82-4.68,17.41-5.72,2.59-1.04,29.1-4.14,31.95-3.88,2.87.26,3.39-3.65,22.61-1.57,19.22,2.09,21.83,3.13,26.24,7.29,4.42,4.14,46,16.36,60.56,15.06,14.54-1.29,34.28-5.98,36.89-6.24,2.59-.26,27.53-9.1,36.89-8.57,9.36.52,40.54,3.11,40.54,3.11,0,0,32.21,4.16,38.45,4.16s32.23,4.14,43.65,2.59c6.37-.88,11.32.38,14.42,1.63,2.47,1,3.78,2.01,3.78,2.01,0,0,41.04,22.87,47.27,24.94s68.09,27.55,81.08,39.5c12.99,11.95,71.2,32.73,81.6,48.33,4.68,7.03,12.89,15.04,20.94,21.91,9.78,8.39,19.34,15.12,22.19,16.53,5.2,2.61,8.31,1.04,10.92,0,2.59-1.04,23.91-8.31,33.25-8.31s22.87,7.79,35.34,19.22,53.53,23.39,61.85,23.39,64.42,12.47,97.69-2.07c33.25-14.56,41.58-17.67,56.12-16.63,14.56,1.04,23.91-13.53,44.7,5.2,20.78,18.71,59.25,31.18,92.49,42.61,33.27,11.43,55.08,31.18,65.48,39.48,6.16,4.94,22.87,8.41,36.14,10.18,9.14,1.24,16.63,1.67,17.91,1.26,1.91-.64,8.13,5.38,19.36,14.68,7.07,5.86,16.16,13.03,27.41,20.66,29.1,19.74,58.21,57.17,122.65,75.88,64.42,18.71,71.32,21.18,89.25,29.74,17.93,8.59,33.53,17.15,38.99,20.66,5.44,3.51,23.37,7.01,35.86,7.01s43.25,6.63,60.4,11.69c17.15,5.08,117.97,25.48,164.23,25.48s70.66-2.61,89.9,3.11c19.22,5.72,57.15,14.04,96.66,36.89,39.48,22.87,74.82,47.81,83.15,55.1,8.31,7.27,52.49,28.57,58.73,28.05,6.24-.52,16.1-7.79,24.94-.52,8.83,7.27,15.06,14.56,18.71,15.6,3.63,1.04,29.62,0,29.62,0,0,0,31.18-5.2,43.13,2.07,11.95,7.27,16.12,16.12,29.1,18.19,12.99,2.09,33.79,1.55,33.79,1.55,17.05-7.39,30.12-7.51,38.97-6.24,7.51,1.1,8.98,2.79,26.52,8.33,11.41,3.61,19.74,5.7,36.38,9.86,19.86,5,36.53,8.57,43.13,9.88,46.38,9.32,57.39.8,108.75,7.69,1.47.2,2.99.42,4.54.64,13.92,2.01,22.19,3.88,31.87,5.78,8.51,1.65,18.11,3.33,33.61,5.12,19.34,2.23,35.4,3.19,46.24,3.65Z"/>
  <path class="cls-9" d="M3111.64,1494.96c-7.03,2.37-14.54,4.68-22.49,6.91-34.28,9.66-76.6,18.19-122.95,25.68-156.34,25.28-358.56,38.85-453.34,45.2-68.21,4.58-133.75,7.73-196.3,9.76-209.75,6.83-385.89.96-516.77-6.83-3.53-12.71-7.01-25.44-10.54-38.19,0,0-17.55-7.83-19.3-11.73-1.75-3.92-2.61-9.82-1.75-16.67.88-6.85,1.75-6.85,1.75-15.66s0-24.48-3.49-30.36c-3.53-5.88-16.67-12.71-20.18-12.71s-12.29-8.84-17.55-10.8c-5.26-1.95-31.57-3.9-31.57-3.9h-52.61c-10.54,0-15.8-4.9-15.8-4.9,0,0,6.14-8.81,1.73-23.51-4.36-14.68,3.53-20.56-7.89-19.58-11.38.98-18.39,1.95-21.91-2.93-3.53-4.9-5.26-14.7-7.89-16.65-2.65-1.97-13.17-6.85-21.06-6.85s-16.67,0-26.32-2.95c-9.66-2.93-17.55-5.86-26.32-13.73-8.75-7.83-36.83-11.73-41.22-13.69-4.38-1.97-111.4-81.28-111.4-81.28,0,0-46.48-16.65-48.23-29.38-1.75-12.73-4.4-31.34-4.4-41.14s-1.73-5.86,5.28-32.31c7.01-26.44,11.39-36.24,12.27-50.94.88-14.68-12.27-.98-16.67-11.73-2.21-5.46-3.53-9.15-4.52-12.37-2.16-7.01-1.07-7.87-2.5-9.19-2.22-2.05-4.63-1.12-8.85-3.61-2.01-1.19-3.42-2.55-4.29-3.51-4.68-1.69-9.35-3.38-14.03-5.07-4.51-9.43-9.92-13.56-14.03-15.59-4.76-2.35-8.39-2.2-21.83-5.85-4.01-1.09-7.26-2.08-9.35-2.73-6.59-4.85-12.24-8.34-16.21-10.65-7.99-4.63-18.39-9.8-18.39-9.8h0c-7.83-1.5-15.65-3-23.48-4.5-5.37-.12-12.54-1.24-17.93-6.24-4.4-4.09-4.55-7.92-8.96-12.86-5.02-5.63-10.99-7.56-17.54-9.74-38.66-12.91-30.88-12.52-45.21-15.98,0,0-18.58-4.55-28.84-10.91-2.08-1.29-3.54-2.3-4.68-3.14-2.31-1.71-3.99-3.03-4.55-3.48-12.73-10.34-23.87-15.52-28.7-26.37-3.8-8.55,1.43-9.1-2.6-19.75-4.51-11.94-11.52-12.4-13.12-23.14-.55-3.72-.33-7.68-2.39-14.36-.71-2.3-1.64-4.7-2.85-7.2-4.4-9.08-11.06-9.6-16.59-16.04,2.47,1,3.78,2.01,3.78,2.01,0,0,41.04,22.87,47.27,24.94s68.09,27.55,81.08,39.5c12.99,11.95,71.2,32.73,81.6,48.33,4.68,7.03,12.89,15.04,20.94,21.91,9.78,8.39,19.34,15.12,22.19,16.53,5.2,2.61,8.31,1.04,10.92,0,2.59-1.04,23.91-8.31,33.25-8.31s22.87,7.79,35.34,19.22,53.53,23.39,61.85,23.39,64.42,12.47,97.69-2.07c33.25-14.56,41.58-17.67,56.12-16.63,14.56,1.04,23.91-13.53,44.7,5.2,20.78,18.71,59.25,31.18,92.49,42.61,33.27,11.43,55.08,31.18,65.48,39.48,6.16,4.94,22.87,8.41,36.14,10.18,11.16,5.96,23.49,11.36,37.27,15.94,7.07,5.86,16.16,13.03,27.41,20.66,29.1,19.74,58.21,57.17,122.65,75.88,64.42,18.71,71.32,21.18,89.25,29.74,17.93,8.59,33.53,17.15,38.99,20.66,5.44,3.51,23.37,7.01,35.86,7.01s43.25,6.63,60.4,11.69c17.15,5.08,117.97,25.48,164.23,25.48s70.66-2.61,89.9,3.11c19.22,5.72,57.15,14.04,96.66,36.89,39.48,22.87,74.82,47.81,83.15,55.1,8.31,7.27,52.49,28.57,58.73,28.05,6.24-.52,16.1-7.79,24.94-.52,8.83,7.27,15.06,14.56,18.71,15.6,3.63,1.04,29.62,0,29.62,0,0,0,31.18-5.2,43.13,2.07,11.95,7.27,16.12,16.12,29.1,18.19,12.99,2.09,33.79,1.55,33.79,1.55,17.05-7.39,30.12-7.51,38.97-6.24,7.51,1.1,8.98,2.79,26.52,8.33,11.41,3.61,19.74,5.7,36.38,9.86,19.86,5,36.53,8.57,43.13,9.88,46.38,9.32,57.39.8,108.75,7.69Z"/>
  <path class="cls-28" d="M.64,1539.07c7.54,3.92,15.07,7.83,22.61,11.75l21.83-4.86,6.24-8.91s2.34-14.59,5.46-1.62c3.12,12.97,5.46,18.64,5.46,18.64,0,0,11.69-8.91,13.25-12.97,1.56-4.05,2.34-12.97,4.68-14.59,2.34-1.62,11.69-5.67,11.69-5.67l2.34,20.26,3.12,2.43,7.02-25.93s4.68,13.78,7.02,17.02c2.34,3.24,8.57-8.91,8.57-8.91l5.46,10.53s7.8,2.43,10.13.81c2.34-1.62,8.57-7.29,10.91-8.1,2.34-.81,3.12-2.43,7.02-1.62,3.9.81,24.94,7.29,24.94,7.29l11.69-13.78s-3.9-4.86,4.68-4.05c8.57.81,24.17,5.67,24.17,5.67,0,0,4.68,5.67,7.02,6.48,2.34.81,17.15-7.29,17.15-7.29,0,0,1.56,2.43,1.56-3.24v-8.1l28.06,17.83c2.34,8.1,6.24,28.36,10.91,32.41,4.68,4.05,14.03-6.48,14.03-6.48,0,0-.78-14.59,8.57-11.35,9.35,3.24,4.68.81,11.69,3.24,7.02,2.43,9.35,4.05,19.49-6.48,10.13-10.53,13.25-15.4,15.59-15.4s24.17.81,24.17.81l19.49,4.86s-13.25-11.35,11.69-3.24c24.94,8.1,49.89,1.62,53.01,8.1l3.12,6.48s17.93,6.48,24.94,0c7.02-6.48,10.13-8.91,10.13-8.91,0,0-10.91-17.83,6.24,2.43s23.39,21.07,25.72,21.07,9.35-.81,9.35-.81l48.33-10.53s-3.9-27.55,10.91-9.72c14.81,17.83,18.71,21.07,19.49,25.93s2.34,9.72,5.46,15.4c3.12,5.67,7.02,6.48,10.91,12.97,3.9,6.48,31.18-11.35,31.18-11.35l5.46-14.59s2.34-16.21,6.24-12.16c3.9,4.05,9.35,30.79,9.35,30.79,4.68,7.29,14.81,9.72,14.81,9.72l24.94-10.53,23.39-25.12s3.12-9.72,9.35-8.1c6.24,1.62,35.08,24.31,35.08,24.31l31.96,8.1,3.12-20.26s1.56-13.78,7.8.81c6.24,14.59,2.34,17.83,9.35,17.02,7.02-.81,21.05-21.07,21.05-21.07l10.13,19.72,12.47-4.86,1.56,11.35,3.12,8.64,9.35-12.97.52,7.56,7.8,1.08,4.16-11.35,10.39,11.35,1.56-12.97,4.68-5.94,9.35-8.64,11.95,20.53,2.6-6.48,2.6-9.72,15.07,13.51s1.56,4.32,5.72,1.08c4.16-3.24,10.91-11.35,10.91-11.35l4.68-10.8s11.43,4.32,12.99,5.94c1.56,1.62,7.8,5.4,7.8,5.4l2.08,15.13s6.24-1.08,6.24-3.24-1.56-11.89-1.56-11.89l8.31.54,4.68-12.97,5.72-7.02s8.31-13.51,8.31-16.21,2.08-16.75,3.64-18.37c1.56-1.62,8.31-.54,8.31-.54l10.39,9.72s5.2-1.08,6.76-1.08,4.68,14.05,5.72,16.21c1.04,2.16,16.11,7.02,16.11,7.02l1.56,2.16,16.11,14.32,18.32-1.22,3.9,8.91,9.35-7.7,12.86.41,16.37-6.89,3.51,7.7s2.34,6.89,3.51,8.1,6.24-4.05,8.57-3.65c2.34.41,6.63,3.24,6.63,3.24l8.57,11.75s10.52-4.05,11.69-4.05,8.18.41,10.13,4.46c1.95,4.05,11.69,14.18,11.69,14.18l22.61-6.08,5.46-2.03s7.8,9.32,8.19,10.53c.39,1.22,3.12,4.86,3.12,4.86l8.57-5.67,15.2-2.43,3.12,7.29,7.41-7.29,5.46-2.03,30.01,13.78,1.17-7.7h6.63l5.07-3.65,20.27-13.37,3.51,6.89,6.63-1.22,7.8,4.86,2.73,8.1,11.3-1.62s19.49-2.43,20.66-2.84c1.17-.41,7.41,6.89,7.41,6.89l15.2-11.35,8.96-19.85,8.18,2.84-1.95-14.18,8.18-11.75,9.74,2.84,4.29-8.91,17.54-12.16,2.73,9.72,7.41.41,3.12,9.32,9.35-.41,8.18,7.7,2.73-2.03,8.19-6.08s.78-1.22,1.17,1.62c.39,2.84,5.07,8.91,5.07,8.91h-5.07l2.73,1.22s5.46.81,7.02-.41c1.56-1.22,8.18-5.67,8.18-5.67,0,0,12.08-1.62,13.25-2.43,1.17-.81,8.96-14.59,10.13-15.4,1.17-.81,32.35-14.18,32.35-14.18v9.32s4.29-2.84,6.24-3.24c1.95-.41,22.22-2.03,25.72-1.22,3.51.81,1.95,8.51,1.95,8.51l6.63-10.53,5.07,6.89,5.85-8.1,7.8,6.08s3.12-6.08,4.29-6.48c1.17-.41,7.02,6.48,7.02,6.48l8.96,4.86,7.02,21.88-.78-27.55,8.57,4.46,6.63-1.62,42.87-12.16-2.73,15.4s8.96,5.67,10.13,5.67,1.56,8.91,1.56,8.91l4.29,10.53s5.85-4.05,8.18-2.43c2.34,1.62,6.63,10.94,8.18,12.97,1.56,2.03,13.25,2.84,14.42,2.03,1.17-.81,5.46-4.46,6.63.81,1.17,5.27,23.78,4.05,24.94,3.24,1.17-.81,6.24-9.32,7.8-9.72s3.51-3.65,10.91.41,17.93-10.13,19.1-10.94c1.17-.81,5.85-7.7,5.85-7.7,0,0,13.25,6.35,15.33,7.43,2.08,1.08,4.68-8.1,6.24-11.89,1.56-3.78,10.91-7.56,11.95-1.62,1.04,5.94,6.24,14.05,9.87,15.13,3.64,1.08,11.43-8.1,13.51-10.26,2.08-2.16,4.16-2.7,4.68,1.62.52,4.32,3.12,5.94,3.12,5.94l5.72-5.94s9.87-14.59,9.87,0,4.16,4.32,6.24,4.32,26.5-7.02,26.5-7.02c0,0-1.56,7.02,1.56,9.18s11.43,1.62,17.67,0c6.24-1.62,10.91-2.7,10.91-2.7,0,0,2.6,6.48,5.2,7.02,2.6.54,12.99-2.16,14.55-3.78,1.56-1.62,18.71-1.62,18.71-1.62,0,0,8.83,12.43,10.91-5.94,2.08-18.37,5.2-20.53,7.8-17.29,2.6,3.24,6.76,11.35,6.76,11.35l6.76-9.18,9.87,5.94s46.77-12.43,48.85-15.67c2.08-3.24,25.98-8.64,25.98-1.08s7.28,8.64,11.43,4.32c4.16-4.32,5.2-7.56,11.43-2.16,6.24,5.4,23.91,9.72,29.1,4.32,5.2-5.4,2.08-11.89,10.39-8.64,8.31,3.24,10.39,9.72,20.79,3.24,10.39-6.48,8.31-21.61,20.79-10.8,12.47,10.8,21.83,15.13,32.22,11.89,10.39-3.24,11.43-15.13,16.63-5.4,5.2,9.72,29.1,16.21,38.46,9.72,9.35-6.48,7.28-17.29,29.1-12.97,21.83,4.32,39.5-2.16,46.77-3.24,7.28-1.08,16.63,7.56,25.98-10.81,9.35-18.37,21.83-31.33,21.83-31.33,0,0,5.2,1.08,5.2,7.56s6.24,1.08,7.28,5.4c1.04,4.32,0,16.21,4.16,16.21s14.55-23.77,16.63-29.17c2.08-5.4,2.08-7.56,6.24-11.89,4.16-4.32,7.28-16.21,11.43-11.89,4.16,4.32,4.16,9.72,4.16,14.05s-1.04,20.53-1.04,20.53c0,0,8.31,15.13,16.63,17.29,8.31,2.16,12.47,1.08,15.59,2.16,3.12,1.08,21.83,15.13,32.22,9.72,10.39-5.4,21.83-17.29,21.83-17.29,0,0,13.51,6.48,19.75,8.64,6.24,2.16,32.22,6.48,46.77,0,14.55-6.48,25.98-24.85,41.57-21.61,15.59,3.24,33.26,12.97,36.38,19.45,3.12,6.48,15.59-3.24,24.94-10.81,9.35-7.56,18.71-16.21,22.87-16.21s33.26,9.72,33.26,9.72l15.59-22.69s7.28,8.64,7.28,11.89,20.79,7.56,23.91,7.56,10.39-10.8,12.47-14.05c2.08-3.24,3.12-16.21,16.63-14.05,13.51,2.16,22.87,8.64,22.87,8.64,0,0,28.84-33.23,35.08-26.74,6.24,6.48,7.02,12.97,7.02,12.97l11.69-8.91,4.68,9.72,5.46-3.24s3.9-3.24,5.46-.81c1.56,2.43,30.4,2.43,30.4,2.43l1.56-8.1s4.68.81,6.24,3.24c1.56,2.43.78,1.62,1.56,4.86.78,3.24-7.8,5.67,7.8,4.05,15.59-1.62,18.71-1.62,18.71-1.62l3.9-8.1s3.9,9.72,7.02,8.91c3.12-.81,15.59-53.48,15.59-53.48,0,0-.78,25.12-.78,29.98v9.72c0,4.05,8.57-1.62,8.57-1.62.78,7.29-3.12,8.91,2.34,9.72,5.46.81-.78,0,11.69-3.24,12.47-3.24,49.11,8.91,49.11,8.91,0,0,3.12-15.4,5.46-15.4s10.13,5.67,16.37,8.1c6.24,2.43,14.03,4.86,20.27,3.24,6.24-1.62-7.8-12.16,17.93-5.67,25.72,6.48,14.81,2.43,25.72,6.48,10.91,4.05,6.24-5.67,17.15,5.67,10.91,11.35,10.13,18.64,14.03,10.53,3.9-8.1,4.68-12.16,4.68-12.16,0,0,16.37,13.78,16.37,16.21s15.59,2.43,19.49-.81c3.9-3.24,27.28-13.78,32.74-12.97,5.46.81,3.12-8.1,8.57,4.05,5.46,12.16,4.68,2.43,10.91,0,6.24-2.43,26.5,10.53,26.5,10.53l21.31,5.94,11.43-8.64s6.24-6.48,7.8-1.08c1.56,5.4,2.08,7.56,2.08,7.56,0,0,6.76.54,9.87-3.78,3.12-4.32,7.28-13.51,8.31-7.56,1.04,5.94,5.72,12.97,8.32,11.35q2.6-1.62,4.68-4.86c2.08-3.24,2.08-9.72,4.16-7.02,2.08,2.7,4.68,10.8,10.39,12.97,5.72,2.16,11.95,9.18,14.55,1.62,2.6-7.56,3.64-11.35,5.2-11.35s10.39.54,10.39.54c0,0,1.56-3.78,3.12-6.48,1.56-2.7,5.2-10.26,6.76-5.94,1.56,4.32,1.56,9.18,1.56,9.18,0,0,3.12,2.7,4.16,6.48,1.04,3.78,4.16,8.64,7.28,11.35,3.12,2.7,3.64,15.13,8.32,2.7,4.68-12.43,5.2-21.61,5.2-21.61,0,0,0-6.48,6.24,1.62,6.24,8.1-8.32,18.91,1.04,20.53,9.35,1.62,21.83,2.16,18.71-4.32-3.12-6.48-16.11-13.51-3.64-11.35,12.47,2.16,15.07-1.08,16.11,4.86,1.04,5.94-2.6,7.02-2.6,7.02l14.03.54s2.08-2.7,3.64-7.56c1.56-4.86,6.24-17.29,9.35-15.67,3.12,1.62,2.08,15.67,2.08,15.67,0,0-2.08,0-.52,2.16,1.56,2.16,2.6,2.16,5.72,2.16h8.83c1.56,0,3.12,1.08,10.39.54,7.28-.54-.52-4.86,19.75-5.4,20.27-.54,22.35-4.32,31.18,0,8.83,4.32,27.54,5.4,27.54,5.4l26.5-2.7,45.44,2.97v274C2563.28,1824.42,1276.97,1895.77.25,1970.19c.13-143.71.26-287.41.39-431.12Z"/>
  <path class="cls-25" d="M3840,1626s-119.9-40.44-145.03-2.23c-25.12,38.21-102.29,42.03-102.29,42.03,0,0-95.11-9.55-107.67-9.55s-109.46,5.73-109.46,5.73l-114.85,61.14s-245.85,1.91-253.03,1.91-98.7,13.37-139.97,21.02c-41.27,7.64-308.65,47.76-308.65,47.76,0,0-351.72,11.46-391.2,7.64-39.48-3.82-109.46-1.91-163.3,22.93-53.84,24.84-95.11,24.84-127.41,24.84s-184.83,19.11-184.83,19.11l-111.26,19.11,504.26,61.14s561.68,47.76,592.19,47.76,290.71-5.73,323.01,5.73,247.64,43.94,303.27,51.58c55.63,7.64,536.23,26.36,536.23,26.36v-454Z"/>
  <path class="cls-17" d="M-3,1777.48s84.03,31.36,135.63,32.87c51.59,1.51,51.59-21.16,123.51,1.51,71.92,22.67,87.55,24.18,125.07,24.18s85.99-3.02,109.44-7.56c23.45-4.53,178.23,9.07,178.23,9.07,0,0,103.19-21.16,132.89,3.02,29.71,24.18,190.74,40.81,190.74,40.81,0,0,31.27-16.63,114.13-18.14,82.86-1.51,168.85,25.69,189.18,25.69s422.13-120.91,553.46-60.46c131.33,60.46,340.83,51.39,440.89,60.46,100.06,9.07,222.01,30.23,231.39,36.27,9.38,6.05,134.46,6.05,187.61,6.05s200.12-21.16,243.9-21.16,200.12,54.41,275.16,54.41,293.93-3.02,337.7,3.02c43.78,6.05,222.11,34.01,247.02,36.27,24.04,2.19,28.04,4.19,28.04,4.19v153l-3838.17-2s-5.83-254.8-5.83-381.52Z"/>
  <path class="cls-6" d="M-.7,2160.43c.26-51.06-.51-98.37-.25-149.43,25.27,9.58,46.48,7.54,60.69,7.16,10.85-.29,21.11-1.87,39.72-.59,13.75.95,24.79,2.61,30.59,4.04,37.38,9.22,45.5,9.83,65,9.83s44.69-1.23,56.88-3.07c12.19-1.84,92.63,3.69,92.63,3.69,0,0,53.63-8.6,69.06,1.23,15.44,9.83,99.13,16.59,99.13,16.59,0,0,16.25-6.76,59.31-7.37,43.06-.61,87.75,10.44,98.31,10.44s219.38-49.15,287.63-24.58c68.25,24.58,177.13,20.89,229.13,24.58,52,3.69,115.38,12.29,120.25,14.75,4.88,2.46,69.88,2.46,97.5,2.46s104-8.6,126.75-8.6c44.84,0,44.06,8.06,143,22.12,45.96,6.53,88.47,11.07,106.44,12.97,64.76,6.86,91.76,7.83,135.55,19.78,26.28,7.17,29.67,10.4,55.7,18.62,34.09,10.76,89.87,21.57,155.66,24.96"/>
  <g class="cls-18">
    <path class="cls-7" d="M3794.87,1174.43c7.29,5.2,36.38,15.58,36.38,15.58.09,13.34.18,26.68.27,40.02-4.72-1.96-11.9-4.13-20.27-3.12-11.73,1.42-15.3,7.84-27.28,11.69-15.75,5.06-17.53-3.48-31.96.78-10.94,3.23-11.36,8.57-39.76,28.84-5.77,4.12-8.66,6.18-10.13,7.02-20.19,11.43-42.44,4.83-70.94-.78-15.55-3.06-43.67-8.6-74.31-9.61-28.59-.95-26.96,3.11-64.44,3.12-19.74,0-37.06-1.38-71.72-4.16-23.16-1.85-40.94-3.71-55.09-5.2-25.47-2.68-38.21-4.01-53.01-6.24-26.84-4.03-31.15-6.17-57.16-10.39-7.29-1.18-21.58-3.39-60.28-7.28-22.12-2.22-47.48-4.75-84.19-7.28-97.35-6.71-105.87-1.84-128.37-14.56-22.37-12.64-25.04-23.81-49.88-31.18-23.99-7.11-35.78-.96-57.69-12.47-18.25-9.6-31.1-24.96-32.73-23.39-1.39,1.33,8.05,12.19,6.24,14.02-1.97,2.01-12.37-11.65-29.62-14.02-11.45-1.57-15.2,3.31-24.94,0-8.33-2.83-11.67-8.49-17.15-14.02-5.72-5.8-11.97-9.64-43.65-20.28-24.76-8.31-39.82-12.29-56.14-17.15-33.01-9.82-49.66-14.74-56.12-18.71-8.11-4.94-33.75-20.62-45.22-37.41-1.2-1.75-4.52-6.89-10.9-10.92-7.51-4.74-11.38-2.65-17.15-5.46-9.48-4.6-7.91-14.26-19.24-36.63-4.6-9.1-10.78-19.18-14.14-22.37.28-6.12-.66-14.5-5.6-20.24-2.67-3.09-3.45-1.87-10.4-7.27-6.31-4.94-11.41-8.88-14.54-15.6-2.81-6.02-3.29-12.53-3.09-15.9-1.71-2.11-4.68-6.43-8.86-11.63-6.89-8.57-8.29-8.53-11.43-13.01-5.3-7.51-4.72-12.33-7.79-22.33-1.85-6.04-8.21-26.73-23.91-36.38-3.07-1.89-9-3.19-20.8-5.72-25.56-5.5-30.74-4.96-49.88-9.36-14.74-3.39-15.3-4.56-25.98-6.24-11.26-1.77-19.86-1.93-29.62-2.07-22.91-.36-26.87,1.89-41.06.52-13.11-1.27-21.67-4.36-28.07-6.24-5.14-1.51-13.13-2.05-22.03-2.17,6.97-1.43,14.42-3.83,19.44-7.71,11.43-8.83,21.3-20.26,27.01-21.32,5.72-1.04,23.39-3.63,31.18-6.24,7.81-2.59,37.43-3.11,56.66-3.11s4.68-5.2,25.46-17.67c20.8-12.47,40.02-9.88,40.02-9.88,0,0,16.1-9.34,18.71-8.82,2.59.52,36.89,12.47,40.54,15.06,3.63,2.61,62.35,33.79,113.29,57.17,50.92,23.39,64.96,10.4,85.22,29.62,20.26,19.22,76.4,45.2,83.15,49.88,6.75,4.68,61.32,30.66,108.09,47.81,46.77,17.15,59.76,53.01,103.41,72.23,43.67,19.24,60.8,34.3,96.66,47.29,35.86,12.99,205.8,86.8,273.36,101.34,67.55,14.56,120.56,31.18,145.5,31.18s49.9-8.31,77.97-3.11c28.05,5.2,32.21,32.21,74.82,20.78,42.61-11.43,48.85-21.81,78.99-22.85,30.14-1.06,76.92,8.31,84.19,13.51Z"/>
  </g>
  <g class="cls-20">
    <path class="cls-26" d="M3831.55,996.56c-9.88-1.12-19.02-2.79-26.3-5.18-3.59-1.2-26.06-9.14-54.36-19.98-12.15-4.66-19.76-7.73-25.9-9.84-6.14-2.11-10.78-3.25-16.93-4.06-4.96-.64-14.64-1.57-28.13-4.76-7.55-1.79-11.89-2.83-16.71-4.94-13.75-6.06-15.88-14.12-25.28-21.45-8.88-6.95-13.19-4.58-61.5-11.53-16.67-2.41-25.14-3.65-32.31-5.76-4.6-1.35-20.84-6.37-40.82-19.12-22.99-14.68-21.1-20.52-44.2-35.72-14.66-9.64-27.61-15.32-38.77-20.2-23.41-10.26-31.65-10.6-48.13-20.06-12.27-7.07-18.71-13.25-28.39-21.42-46.06-38.81-85.36-56.18-85.26-62.57-9.42-.4-21.75-2.35-33.27-8.39-8.25-4.34-10.1-7.63-15.09-11.05-3.35-2.29-6.23-3.48-8.02-4.19-6.23-2.5-9.76-2.07-19.48-3.25-6.6-.8-4.61-.96-15.59-2.6-12.17-1.82-12.35-1.29-20.15-2.68-12.67-2.25-12.29-3.66-17.44-3.4-9.92.51-10.63,5.71-19.58,6.08-10.66.45-12.62-6.8-21.31-5.2-8.29,1.53-9.01,8.59-17.67,9.35-4.64.41-8.32-1.27-13.51-3.64-8.76-4-8.88-7.07-15.07-9.87-11.59-5.26-18.91,1.98-23.91-2.86-6.04-5.85,2.84-18.2-3.12-26.5-4.27-5.96-13.79-6.5-21.09-6.04,11.53-9.08,25.16-16.69,32.79-22.03,7.79-5.46,38.19-16.36,38.19-16.36,0,0,20.28,12.47,42.87,2.33,22.61-10.14,29.62-10.14,49.13-7.79,19.48,2.33,61.58,18.71,69.37,21.81,7.81,3.13,18.71-4.66,31.97,13.27,13.25,17.93,84.96,54.56,104.45,67.81,19.48,13.25,84.96,62.35,108.35,74.82,23.39,12.47,90.42,55.36,109.13,63.15,18.73,7.79,52.23,40.54,87.31,54.56,35.08,14.02,88.09,51.46,110.7,60.8,22.59,9.36,52.99,16.38,52.99,16.38l.04,12.07Z"/>
  </g>
  <g class="cls-23">
    <path class="cls-27" d="M2042.52,982.15l-17.15,9.34-14.8-.78s-26.51,0-34.3-.78c-7.79-.78-23.39-3.9-31.95-8.59-8.59-4.66-28.07-9.34-39.76-12.47-11.69-3.11-42.09-4.66-42.09-4.66l-33.53-14.04s-14.02-7.79-19.48-10.12c-5.46-2.35-41.32-10.92-41.32-10.92l-7.79-.78s-25.72-24.16-38.99-26.51c-13.25-2.33-24.16.78-24.16.78l-27.27,3.13s-19.48,1.55-21.83,1.55-6.24,0-13.25-1.55c-7.01-1.55-10.92-2.35-10.92-2.35,0,0-17.93,5.46-24.94,7.81-7.01,2.33-4.68,1.55-19.48,1.55s-16.38.78-16.38.78c0,0-9.94,3.03-19.82,6.02,5.62-4.98,10.88-9.16,15.4-11.22,11.43-5.2,35.86-23.91,41.06-23.91s18.19,4.68,23.39,5.2c5.2.52,22.35,1.04,26.5-1.55,4.16-2.61,19.76-14.56,28.07-17.15s34.3-3.13,39.5-2.59c5.2.52,74.82,14.54,90.94,24.42,16.12,9.86,27.55,11.95,42.09,18.19,14.54,6.24,33.27,11.95,47.81,14.54.6.1,1.22.2,1.85.3,5.2,5.26,10.02,10.38,13.21,14.26,10.92,13.25,21.83,11.69,24.96,14.02,3.11,2.33,11.69,7.79,14.02,8.57,2.33.78,24.94,9.36,42.09,14.82,17.15,5.46,14.02,2.33,20.26,2.33s28.07,2.35,28.07,2.35Z"/>
  </g>
  <path class="cls-6" d="M577.12,2042.38l-22.12,5.94,2.46-15.43-13.52-10.68-1.23-9.5,11.06-3.56s-1.23-13.06-1.23-16.62,6.14-16.62,6.14-16.62l2.46-13.06,9.83-11.87,5.84-7.72s-.31-2.97-.31-4.16-.31-3.86,1.23-4.15c1.54-.3,3.07-.89,3.07-.89l-1.84-5.05s.61-2.37,1.84-2.97,5.53-5.94,5.53-6.83,1.54-3.86,1.54-3.86l3.38-7.42,4.91-3.86,3.38-11.87,2.15,7.12.31,7.42,3.38,4.75,7.37,4.75s-1.23,3.26-1.23,4.16-1.23,3.86-1.23,3.86c0,0,4.61,2.08,4.91,3.26.31,1.19.92,8.31.92,8.31,0,0-2.76,2.97-2.76,3.86s2.15,4.75,2.46,6.23,3.69,3.26,3.07,5.64c-.61,2.37,4.3,8.9,4.3,8.9l-4.91,4.45s2.46,3.26,3.38,3.86c.92.59,2.76,2.67,2.76,2.67l3.38,1.78-.61,4.75-.31,6.83-2.15,3.26s3.07,1.78,3.99,3.56c.92,1.78,1.84,8.31,1.54,9.2-.31.89-2.46,2.37-2.46,2.37l3.07,4.16.61,5.05s.31,2.08-.31,2.97c-.61.89-3.38,1.48-3.38,2.97s7.07,5.05,7.07,5.05l-.61,5.05s.61,3.26.61,4.45-11.06,3.86-11.06,3.86l.61,4.45s-2.76,1.19-3.69,1.48c-.92.3-14.13.59-14.13,1.48s-1.23,4.45-1.23,4.45l-13.82-.89-14.44-5.34Z"/>
  <path class="cls-17" d="M1088.9,1860.63l-11.35,3.44,1.26-8.93-6.94-6.19-.63-5.5,5.68-2.06s-.63-7.56-.63-9.62,3.15-9.62,3.15-9.62l1.26-7.56,5.04-6.87,3-4.47s-.16-1.72-.16-2.41-.16-2.23.63-2.41c.79-.17,1.58-.52,1.58-.52l-.95-2.92s.32-1.37.95-1.72,2.84-3.44,2.84-3.95.79-2.23.79-2.23l1.73-4.3,2.52-2.23,1.73-6.87,1.1,4.12.16,4.3,1.73,2.75,3.78,2.75s-.63,1.89-.63,2.41-.63,2.23-.63,2.23c0,0,2.36,1.2,2.52,1.89.16.69.47,4.81.47,4.81,0,0-1.42,1.72-1.42,2.23s1.1,2.75,1.26,3.61c.16.86,1.89,1.89,1.58,3.26s2.21,5.15,2.21,5.15l-2.52,2.58s1.26,1.89,1.73,2.23c.47.34,1.42,1.55,1.42,1.55l1.73,1.03-.32,2.75-.16,3.95-1.1,1.89s1.58,1.03,2.05,2.06c.47,1.03.95,4.81.79,5.33-.16.52-1.26,1.37-1.26,1.37l1.58,2.41.32,2.92s.16,1.2-.16,1.72-1.73.86-1.73,1.72,3.63,2.92,3.63,2.92l-.32,2.92s.32,1.89.32,2.58-5.68,2.23-5.68,2.23l.32,2.58s-1.42.69-1.89.86c-.47.17-7.25.34-7.25.86s-.63,2.58-.63,2.58l-7.09-.52-7.41-3.09Z"/>
  <path class="cls-17" d="M1596.48,1833.99l-14.94,4.06,1.66-10.56-9.13-7.31-.83-6.5,7.47-2.44s-.83-8.93-.83-11.37,4.15-11.37,4.15-11.37l1.66-8.93,6.64-8.12,3.94-5.28s-.21-2.03-.21-2.84-.21-2.64.83-2.84,2.07-.61,2.07-.61l-1.24-3.45s.41-1.62,1.24-2.03c.83-.41,3.73-4.06,3.73-4.67s1.04-2.64,1.04-2.64l2.28-5.08,3.32-2.64,2.28-8.12,1.45,4.87.21,5.08,2.28,3.25,4.98,3.25s-.83,2.23-.83,2.84-.83,2.64-.83,2.64c0,0,3.11,1.42,3.32,2.23.21.81.62,5.68.62,5.68,0,0-1.87,2.03-1.87,2.64s1.45,3.25,1.66,4.26c.21,1.02,2.49,2.23,2.07,3.86-.41,1.62,2.9,6.09,2.9,6.09l-3.32,3.05s1.66,2.23,2.28,2.64c.62.41,1.87,1.83,1.87,1.83l2.28,1.22-.41,3.25-.21,4.67-1.45,2.23s2.07,1.22,2.7,2.44c.62,1.22,1.24,5.68,1.04,6.29-.21.61-1.66,1.62-1.66,1.62l2.07,2.84.41,3.45s.21,1.42-.21,2.03-2.28,1.02-2.28,2.03,4.77,3.45,4.77,3.45l-.41,3.45s.41,2.23.41,3.05-7.47,2.64-7.47,2.64l.41,3.05s-1.87.81-2.49,1.02c-.62.2-9.54.41-9.54,1.02s-.83,3.05-.83,3.05l-9.33-.61-9.75-3.65Z"/>
  <path class="cls-17" d="M1636.47,1830.57l-9.07,2.49,1.01-6.48-5.55-4.49-.5-3.99,4.54-1.5s-.5-5.48-.5-6.98,2.52-6.98,2.52-6.98l1.01-5.48,4.03-4.98,2.39-3.24s-.13-1.25-.13-1.74-.13-1.62.5-1.74c.63-.12,1.26-.37,1.26-.37l-.76-2.12s.25-1,.76-1.25c.5-.25,2.27-2.49,2.27-2.87s.63-1.62.63-1.62l1.39-3.12,2.02-1.62,1.39-4.98.88,2.99.13,3.12,1.39,1.99,3.02,1.99s-.5,1.37-.5,1.74-.5,1.62-.5,1.62c0,0,1.89.87,2.02,1.37.13.5.38,3.49.38,3.49,0,0-1.13,1.25-1.13,1.62s.88,1.99,1.01,2.62c.13.62,1.51,1.37,1.26,2.37-.25,1,1.76,3.74,1.76,3.74l-2.02,1.87s1.01,1.37,1.39,1.62c.38.25,1.13,1.12,1.13,1.12l1.39.75-.25,1.99-.13,2.87-.88,1.37s1.26.75,1.64,1.5c.38.75.76,3.49.63,3.86-.13.37-1.01,1-1.01,1l1.26,1.74.25,2.12s.13.87-.13,1.25c-.25.37-1.39.62-1.39,1.25s2.9,2.12,2.9,2.12l-.25,2.12s.25,1.37.25,1.87-4.54,1.62-4.54,1.62l.25,1.87s-1.13.5-1.51.62c-.38.12-5.8.25-5.8.62s-.5,1.87-.5,1.87l-5.67-.37-5.92-2.24Z"/>
  <path class="cls-17" d="M1560.11,1836.99l-9.99,3.83.37-7.15-6.82-4.18-1.04-4.26,4.97-2.18s-1.22-5.88-1.4-7.5,2.03-7.88,2.03-7.88l.49-6.07,3.98-5.91,2.33-3.81s-.29-1.34-.35-1.88c-.06-.54-.34-1.74.36-1.95.7-.21,1.38-.56,1.38-.56l-1.11-2.2s.17-1.11.71-1.44c.54-.33,2.28-2.98,2.23-3.39-.04-.41.52-1.83.52-1.83l1.2-3.55,2.09-2.01.98-5.58,1.36,3.13.51,3.36,1.81,1.99,3.67,1.79s-.41,1.55-.36,1.95-.38,1.82-.38,1.82c0,0,2.25.71,2.45,1.24.2.52.84,3.74.84,3.74,0,0-1.14,1.49-1.09,1.9.04.41,1.24,2.05,1.45,2.71.22.66,1.88,1.3,1.71,2.41-.17,1.11,2.44,3.83,2.44,3.83l-2.06,2.28s1.31,1.36,1.76,1.58c.46.22,1.42,1.08,1.42,1.08l1.66.64-.05,2.19.2,3.12-.84,1.6s1.52.65,2.03,1.42c.52.76,1.27,3.69,1.17,4.11s-1.02,1.21-1.02,1.21l1.64,1.74.54,2.27s.25.93,0,1.37c-.24.44-1.5.85-1.42,1.52.07.68,3.54,1.94,3.54,1.94l-.03,2.33s.45,1.45.51,2c.06.54-4.95,2.32-4.95,2.32l.51,2s-1.23.68-1.64.86c-.41.18-6.54.99-6.5,1.4.04.41-.35,2.09-.35,2.09l-6.47.3-6.98-1.7Z"/>
  <path class="cls-6" d="M98.98,2021.89l-17.18,5.82.96-11.93-11.42-7.37-1.59-7.18,8.55-3.37s-1.82-9.9-2.05-12.62c-.23-2.72,3.81-13.05,3.81-13.05l1.11-10.12,7.04-9.64,4.14-6.23s-.44-2.25-.51-3.16-.49-2.93.71-3.24,2.38-.86,2.38-.86l-1.79-3.75s.33-1.85,1.27-2.37,4.01-4.86,3.95-5.54c-.06-.68.97-3.04.97-3.04l2.21-5.86,3.66-3.23,1.92-9.26,2.17,5.31.72,5.65,2.99,3.43,6.16,3.2s-.77,2.56-.71,3.24c.06.68-.73,3.02-.73,3.02,0,0,3.79,1.32,4.11,2.21.32.89,1.27,6.29,1.27,6.29,0,0-2,2.43-1.95,3.11.06.68,2.01,3.5,2.35,4.62.34,1.12,3.14,2.28,2.8,4.13-.34,1.85,3.99,6.55,3.99,6.55l-3.62,3.69s2.16,2.35,2.93,2.75,2.37,1.88,2.37,1.88l2.8,1.16-.18,3.66.2,5.23-1.5,2.62s2.55,1.18,3.4,2.49c.85,1.31,2,6.24,1.81,6.94s-1.8,1.96-1.8,1.96l2.71,2.99.81,3.82s.38,1.57-.05,2.28c-.43.72-2.59,1.33-2.49,2.46.1,1.13,5.94,3.44,5.94,3.44l-.16,3.89s.7,2.46.77,3.36c.08.91-8.53,3.59-8.53,3.59l.77,3.36s-2.12,1.07-2.83,1.35c-.71.28-11.19,1.28-11.13,1.96.06.68-.69,3.47-.69,3.47l-11.04.13-11.81-3.24Z"/>
  <path class="cls-17" d="M102.26,1819.56l-12.43,4.75.65-9.88-8.3-6.15-1.18-5.96,6.18-2.75s-1.35-8.21-1.53-10.46c-.18-2.25,2.71-10.8,2.71-10.8l.77-8.38,5.06-7.96,2.97-5.15s-.32-1.86-.38-2.62c-.06-.75-.37-2.43.5-2.69.87-.26,1.72-.7,1.72-.7l-1.31-3.11s.24-1.53.91-1.96c.68-.43,2.89-4.01,2.84-4.57-.04-.56.69-2.51.69-2.51l1.58-4.85,2.64-2.66,1.35-7.67,1.59,4.41.54,4.68,2.18,2.85,4.48,2.67s-.54,2.12-.5,2.69-.52,2.5-.52,2.5c0,0,2.75,1.11,2.99,1.84s.94,5.22.94,5.22c0,0-1.44,2-1.4,2.57.04.56,1.47,2.91,1.72,3.83.25.93,2.28,1.9,2.05,3.43-.24,1.53,2.92,5.44,2.92,5.44l-2.61,3.04s1.58,1.96,2.13,2.29c.56.33,1.72,1.57,1.72,1.57l2.03.97-.12,3.03.16,4.33-1.07,2.16s1.86.99,2.47,2.07,1.47,5.18,1.34,5.75c-.13.58-1.3,1.61-1.3,1.61l1.97,2.49.6,3.17s.28,1.3-.03,1.89c-.31.59-1.87,1.09-1.8,2.03.07.94,4.31,2.87,4.31,2.87l-.1,3.22s.52,2.04.57,2.79c.06.75-6.17,2.94-6.17,2.94l.57,2.79s-1.53.88-2.05,1.11c-.52.23-8.1,1.01-8.05,1.58.04.56-.49,2.87-.49,2.87l-7.99.06-8.57-2.73Z"/>
  <path class="cls-6" d="M1706.8,2093.13l-8.47,3.16.37-6.05-5.73-3.59-.85-3.62,4.21-1.81s-.99-4.99-1.12-6.37c-.14-1.37,1.78-6.66,1.78-6.66l.46-5.14,3.41-4.97,2-3.21s-.24-1.13-.28-1.59c-.05-.46-.27-1.48.32-1.65.59-.17,1.17-.46,1.17-.46l-.92-1.88s.15-.94.61-1.22c.46-.28,1.95-2.51,1.91-2.85-.03-.34.46-1.55.46-1.55l1.04-3,1.79-1.68.87-4.72,1.12,2.67.41,2.85,1.51,1.7,3.08,1.54s-.36,1.31-.32,1.65c.03.34-.33,1.54-.33,1.54,0,0,1.89.62,2.06,1.07.17.45.68,3.17.68,3.17,0,0-.97,1.25-.94,1.6.03.34,1.03,1.75,1.21,2.31.18.56,1.58,1.12,1.43,2.06-.15.94,2.04,3.27,2.04,3.27l-1.76,1.91s1.09,1.16,1.48,1.36c.39.19,1.19.92,1.19.92l1.4.55-.06,1.86.14,2.65-.72,1.34s1.28.57,1.71,1.22c.43.65,1.05,3.14.96,3.49-.09.36-.88,1.01-.88,1.01l1.37,1.48.44,1.92s.2.79,0,1.16c-.21.37-1.27.71-1.22,1.28s2.97,1.67,2.97,1.67l-.05,1.97s.37,1.24.41,1.69c.05.46-4.2,1.92-4.2,1.92l.41,1.69s-1.04.57-1.39.72-5.54.78-5.5,1.13c.03.34-.31,1.77-.31,1.77l-5.47.2-5.89-1.5Z"/>
  <path class="cls-17" d="M3668.91,1991.56l-20.61,3.41,2.68-10.77-12.21-7.99-.88-6.72,10.32-2.12s-.79-9.23-.7-11.73,6.12-11.48,6.12-11.48l2.62-9.1,9.4-8.01,5.6-5.22s-.21-2.1-.17-2.93c.03-.84-.18-2.72,1.25-2.88,1.43-.16,2.86-.52,2.86-.52l-1.57-3.61s.63-1.65,1.78-2.02,5.27-3.98,5.29-4.61c.02-.63,1.52-2.66,1.52-2.66l3.32-5.1,4.65-2.54,3.44-8.23,1.8,5.08.09,5.23,3,3.46,6.69,3.6s-1.22,2.25-1.25,2.88c-.02.63-1.24,2.67-1.24,2.67,0,0,4.21,1.62,4.46,2.47.25.85.63,5.88.63,5.88,0,0-2.63,1.99-2.66,2.62-.02.63,1.86,3.41,2.11,4.47.24,1.05,3.32,2.42,2.69,4.07s3.74,6.41,3.74,6.41l-4.66,2.96s2.19,2.38,3.02,2.83c.84.45,2.49,1.98,2.49,1.98l3.08,1.37-.69,3.32-.46,4.79-2.07,2.22s2.79,1.36,3.6,2.64c.8,1.28,1.48,5.91,1.18,6.52-.31.62-2.34,1.58-2.34,1.58l2.73,3.03.43,3.57s.23,1.47-.36,2.08c-.59.6-3.16.93-3.2,1.97-.04,1.04,6.4,3.79,6.4,3.79l-.7,3.53s.48,2.32.45,3.15c-.03.84-10.33,2.33-10.33,2.33l.45,3.15s-2.59.74-3.45.92c-.86.18-13.08-.07-13.1.55-.02.63-1.25,3.09-1.25,3.09l-12.76-1.11-13.21-4.26Z"/>
  <path class="cls-25" d="M2260.52,1801.54l-7.71,2.18.52-3.92-5.03-2.22-.65-2.32,3.84-1.24s-.73-3.21-.81-4.09c-.08-.89,1.81-4.33,1.81-4.33l.58-3.33,3.22-3.27,1.9-2.11s-.18-.73-.2-1.02-.2-.95.34-1.07c.54-.12,1.07-.32,1.07-.32l-.77-1.2s.16-.61.59-.8c.42-.19,1.83-1.65,1.81-1.87s.46-1.01.46-1.01l1.03-1.95,1.66-1.12.93-3.06.92,1.7.28,1.84,1.3,1.07,2.72.95s-.36.85-.34,1.07-.35,1-.35,1c0,0,1.68.37,1.82.65.14.29.51,2.04.51,2.04,0,0-.91.83-.89,1.05.02.22.87,1.11,1.01,1.47.14.36,1.38.69,1.22,1.3-.16.61,1.72,2.08,1.72,2.08l-1.64,1.26s.94.73,1.28.85,1.04.58,1.04.58l1.24.33-.11,1.2.04,1.71-.69.88s1.13.34,1.5.76c.37.41.84,2.01.75,2.24s-.82.67-.82.67l1.18.93.33,1.24s.16.51-.04.75c-.2.24-1.16.48-1.13.85s2.62,1.03,2.62,1.03l-.1,1.27s.29.79.32,1.09-3.83,1.31-3.83,1.31l.32,1.09s-.95.38-1.27.49c-.32.1-5,.6-4.98.82s-.34,1.15-.34,1.15l-4.92.22-5.24-.87Z"/>
  <path class="cls-25" d="M3480.1,1654.59l-7.83,3.07.21-5.32-5.42-2.95-.87-3.14,3.89-1.73s-1.03-4.34-1.19-5.54c-.16-1.2,1.51-5.9,1.51-5.9l.32-4.52,3.07-4.48,1.79-2.88s-.24-.99-.3-1.39c-.05-.4-.28-1.29.26-1.46.55-.17,1.08-.45,1.08-.45l-.9-1.61s.12-.83.54-1.09c.42-.26,1.76-2.27,1.72-2.57-.04-.3.39-1.37.39-1.37l.91-2.66,1.63-1.54.71-4.17,1.1,2.3.44,2.49,1.45,1.44,2.91,1.24s-.3,1.16-.26,1.46-.28,1.36-.28,1.36c0,0,1.78.48,1.94.86s.71,2.76.71,2.76c0,0-.88,1.13-.84,1.43.04.3,1,1.5,1.18,1.98s1.49.92,1.37,1.75c-.12.83,1.97,2.79,1.97,2.79l-1.6,1.74s1.04.98,1.41,1.14c.36.16,1.13.77,1.13.77l1.32.44v1.63s.18,2.32.18,2.32l-.64,1.2s1.2.45,1.62,1.01c.42.56,1.04,2.71.97,3.03-.07.32-.79.92-.79.92l1.31,1.25.45,1.67s.2.69.02,1.02c-.19.33-1.17.66-1.1,1.16.07.5,2.81,1.36,2.81,1.36v1.73s.37,1.07.42,1.47c.05.4-3.87,1.83-3.87,1.83l.42,1.47s-.96.53-1.28.68c-.32.14-5.14.88-5.1,1.18.04.3-.25,1.56-.25,1.56l-5.1.37-5.52-1.1Z"/>
  <path class="cls-17" d="M3169.03,1965.99l-9.95,3.81,1.5-10.81-5.7-7.74-.29-6.7,4.99-2.32s-.2-9.21-.1-11.71,3.16-11.59,3.16-11.59l1.43-9.14,4.67-8.19,2.79-5.33s-.06-2.09-.03-2.93c.03-.83-.03-2.72.65-2.9.69-.18,1.38-.57,1.38-.57l-.68-3.58s.33-1.66.89-2.06,2.61-4.08,2.63-4.71c.02-.63.78-2.69.78-2.69l1.69-5.16,2.28-2.63,1.81-8.29.76,5.05-.06,5.22,1.37,3.4,3.14,3.46s-.63,2.28-.65,2.9c-.02.63-.65,2.69-.65,2.69,0,0,1.99,1.54,2.09,2.38s.19,5.86.19,5.86c0,0-1.3,2.04-1.33,2.67-.02.63.83,3.38.92,4.42.1,1.05,1.55,2.36,1.21,4.02-.33,1.66,1.67,6.33,1.67,6.33l-2.29,3.05s1,2.34,1.39,2.77c.39.43,1.15,1.92,1.15,1.92l1.45,1.31-.4,3.33-.32,4.8-1.04,2.26s1.31,1.3,1.67,2.57c.36,1.27.6,5.88.44,6.5-.16.62-1.15,1.63-1.15,1.63l1.25,2.97.14,3.56s.08,1.47-.21,2.08-1.54.99-1.57,2.03c-.04,1.04,3,3.67,3,3.67l-.41,3.54s.19,2.31.15,3.14c-.03.84-5,2.53-5,2.53l.15,3.14s-1.26.79-1.67.98-6.27.18-6.3.81c-.02.63-.66,3.11-.66,3.11l-6.1-.86-6.25-4Z"/>
  <path class="cls-25" d="M2981.1,1725.31l-9.43,2.74,1.42-7.78-5.4-5.57-.28-4.82,4.73-1.67s-.19-6.63-.1-8.43c.09-1.8,2.99-8.34,2.99-8.34l1.36-6.58,4.42-5.89,2.64-3.84s-.05-1.51-.02-2.11c.03-.6-.03-1.96.62-2.09.65-.13,1.31-.41,1.31-.41l-.65-2.58s.32-1.19.85-1.48c.53-.29,2.47-2.94,2.49-3.39.02-.45.74-1.94.74-1.94l1.6-3.72,2.16-1.89,1.72-5.97.72,3.63-.06,3.76,1.3,2.44,2.97,2.49s-.6,1.64-.62,2.09c-.02.45-.61,1.94-.61,1.94,0,0,1.88,1.11,1.98,1.71s.18,4.22.18,4.22c0,0-1.23,1.47-1.26,1.92-.02.45.78,2.43.87,3.19.09.76,1.46,1.7,1.15,2.89-.32,1.19,1.58,4.56,1.58,4.56l-2.17,2.2s.95,1.68,1.32,1.99,1.09,1.39,1.09,1.39l1.37.94-.38,2.4-.3,3.45-.98,1.63s1.24.94,1.59,1.85.56,4.23.41,4.68c-.15.45-1.09,1.17-1.09,1.17l1.18,2.14.13,2.56s.08,1.06-.2,1.5c-.28.44-1.45.71-1.49,1.46-.04.75,2.84,2.64,2.84,2.64l-.38,2.55s.18,1.66.15,2.26c-.03.6-4.74,1.82-4.74,1.82l.15,2.26s-1.19.57-1.58.71-5.94.13-5.97.58c-.02.45-.63,2.24-.63,2.24l-5.78-.62-5.92-2.88Z"/>
  <path class="cls-25" d="M3028.07,1725.2l-7.49,1.68,1.17-5.1-4.26-3.73-.19-3.17,3.76-1.04s-.11-4.35-.03-5.54,2.42-5.44,2.42-5.44l1.11-4.31,3.54-3.82,2.12-2.49s-.04-.99,0-1.38-.02-1.29.5-1.36c.52-.08,1.04-.26,1.04-.26l-.5-1.7s.26-.78.68-.96c.42-.18,1.97-1.9,1.99-2.2s.6-1.26.6-1.26l1.29-2.42,1.72-1.22,1.39-3.9.55,2.39-.07,2.47,1.02,1.62,2.35,1.67s-.48,1.07-.5,1.36-.5,1.27-.5,1.27c0,0,1.49.75,1.56,1.15s.12,2.77.12,2.77c0,0-.99.95-1.01,1.25s.61,1.61.68,2.1,1.15,1.13.89,1.91,1.23,3.01,1.23,3.01l-1.74,1.41s.74,1.12,1.04,1.33c.29.21.86.92.86.92l1.08.64-.31,1.57-.26,2.26-.79,1.06s.98.63,1.25,1.24c.27.6.43,2.78.3,3.08s-.87.76-.87.76l.93,1.42.09,1.68s.06.69-.17.98-1.16.45-1.19.94,2.24,1.77,2.24,1.77l-.32,1.67s.13,1.09.1,1.49-3.77,1.14-3.77,1.14l.1,1.49s-.95.36-1.26.44c-.31.09-4.71.01-4.73.31s-.51,1.46-.51,1.46l-4.58-.48-4.68-1.96Z"/>
  <path class="cls-25" d="M2944.64,1732.79l-5.42,2.1-.19-3.4-4.08-1.78-.83-1.99,2.68-1.18s-1.02-2.76-1.21-3.52c-.19-.76.7-3.8.7-3.8l-.06-2.89,1.91-2.92,1.1-1.87s-.24-.63-.3-.88c-.06-.25-.29-.82.1-.94.38-.12.75-.31.75-.31l-.75-1.01s.03-.53.32-.71c.29-.17,1.12-1.48,1.07-1.67-.05-.19.19-.89.19-.89l.48-1.72,1.07-1.01.24-2.67.94,1.45.48,1.58,1.13.89,2.17.74s-.14.75-.1.94-.11.87-.11.87c0,0,1.31.27,1.45.52.14.24.69,1.75.69,1.75,0,0-.56.74-.51.93.05.19.81.94.97,1.24.16.31,1.13.56,1.1,1.09-.03.53,1.6,1.75,1.6,1.75l-1.04,1.14s.81.61,1.08.7c.27.09.86.47.86.47l.97.26.1,1.04.29,1.48-.38.78s.89.27,1.23.61c.33.35.93,1.71.89,1.92-.03.2-.51.6-.51.6l1.02.78.43,1.06s.19.43.08.65-.8.45-.72.76,2.11.82,2.11.82l.11,1.11s.34.68.4.93c.06.25-2.66,1.24-2.66,1.24l.4.93s-.65.36-.88.46-3.64.66-3.59.85-.08,1-.08,1l-3.64.33-4.04-.6Z"/>
  <path class="cls-17" d="M2439.35,1907l-5.88,1.52.82-4.5-3.43-3.27-.22-2.8,2.95-.94s-.18-3.84-.14-4.89c.04-1.04,1.8-4.81,1.8-4.81l.79-3.81,2.71-3.38,1.62-2.21s-.05-.87-.03-1.22c.01-.35-.04-1.13.37-1.21.41-.07.82-.23.82-.23l-.43-1.5s.19-.69.52-.85,1.52-1.69,1.53-1.95c0-.26.45-1.12.45-1.12l.97-2.14,1.33-1.08,1.02-3.45.49,2.11v2.18s.83,1.43.83,1.43l1.89,1.47s-.36.95-.37,1.21c0,.26-.37,1.12-.37,1.12,0,0,1.19.65,1.26,1.01.07.35.15,2.45.15,2.45,0,0-.76.84-.77,1.1s.51,1.41.58,1.85c.06.44.93.99.75,1.68-.19.69,1.03,2.65,1.03,2.65l-1.34,1.26s.61.98.85,1.16c.24.18.7.81.7.81l.87.56-.21,1.39-.16,2-.6.94s.79.55,1.01,1.08c.22.53.39,2.46.3,2.71s-.67.67-.67.67l.76,1.25.11,1.49s.06.61-.11.87c-.17.26-.9.4-.92.84s1.8,1.55,1.8,1.55l-.22,1.47s.13.96.11,1.31c-.01.35-2.95,1.02-2.95,1.02l.11,1.31s-.74.32-.99.4-3.72.03-3.73.3c0,.26-.37,1.29-.37,1.29l-3.62-.4-3.74-1.71Z"/>
  <path class="cls-25" d="M2517.02,1793.7l-3.61.99.51-2.9-2.11-2.1-.13-1.8,1.81-.61s-.11-2.47-.08-3.15c.03-.67,1.11-3.1,1.11-3.1l.49-2.45,1.67-2.18,1-1.42s-.03-.56-.02-.79-.02-.73.23-.78.5-.15.5-.15l-.26-.96s.12-.44.32-.55.94-1.09.94-1.26c0-.17.28-.72.28-.72l.6-1.38.82-.7.63-2.22.3,1.36v1.4s.51.92.51.92l1.16.94s-.22.61-.23.78c0,.17-.23.72-.23.72,0,0,.73.42.77.65.04.23.09,1.57.09,1.57,0,0-.47.54-.47.71,0,.17.31.91.35,1.19.04.28.57.64.46,1.08-.12.44.63,1.71.63,1.71l-.83.81s.37.63.52.75.43.52.43.52l.53.36-.13.89-.1,1.29-.37.6s.48.35.62.7c.14.34.24,1.58.18,1.75-.06.17-.41.43-.41.43l.47.8.06.96s.03.39-.07.56-.56.26-.57.54c-.01.28,1.1,1,1.1,1l-.14.95s.08.62.07.84c0,.22-1.81.66-1.81.66l.07.84s-.45.21-.61.26c-.15.05-2.29.03-2.29.19,0,.17-.23.83-.23.83l-2.23-.25-2.29-1.1Z"/>
  <path class="cls-25" d="M2286.16,1801.37l-2.72,1.19.09-2.47-1.87-1.53-.29-1.49,1.35-.69s-.34-2.05-.39-2.61.54-2.7.54-2.7l.13-2.09,1.08-1.99.63-1.29s-.08-.47-.1-.65-.09-.61.1-.67c.19-.06.38-.18.38-.18l-.31-.78s.04-.38.19-.49.62-1,.6-1.14.14-.63.14-.63l.32-1.21.57-.67.26-1.91.37,1.1.14,1.17.5.71,1,.67s-.11.53-.1.67-.1.62-.1.62c0,0,.61.28.67.46s.24,1.3.24,1.3c0,0-.31.5-.3.64.01.14.34.73.4.96.06.23.51.47.47.86-.04.38.67,1.36.67,1.36l-.56.76s.36.49.48.57.39.39.39.39l.45.24v.76s.05,1.08.05,1.08l-.23.54s.42.25.56.52.35,1.29.33,1.44c-.03.14-.28.4-.28.4l.45.62.15.79s.07.32,0,.47c-.07.15-.41.27-.39.51.02.23.97.72.97.72v.8s.12.51.14.7c.02.19-1.35.74-1.35.74l.14.7s-.33.22-.45.28c-.11.06-1.79.26-1.77.4s-.09.72-.09.72l-1.77.02-1.91-.68Z"/>
  <path class="cls-17" d="M2739.2,1929.3l-11.7,3.55c-.69.21-1.36-.36-1.28-1.07l.52-4.46c.05-.45-.2-.87-.62-1.04l-7.71-3.14c-.28-.11-.49-.35-.58-.63l-.79-2.57c-.16-.52.12-1.06.63-1.24l4.88-1.67c.49-.17.77-.68.65-1.18-.4-1.61-1.21-4.96-1.33-6.09-.15-1.38,2.45-6.44,2.92-7.35.05-.1.08-.2.1-.3l.82-5.25c.03-.2.12-.39.27-.54l5.28-5.5,2.89-3.29c.22-.25.3-.58.22-.89-.1-.4-.23-.95-.26-1.25-.06-.5-.37-1.62.56-1.85.19-.05.38-.1.56-.15.65-.19.93-.96.55-1.52l-.34-.5c-.2-.29-.24-.68-.08-.99s.41-.66.78-.83c.73-.34,3.13-2.91,3.09-3.29-.04-.35.65-1.55.75-1.73,0-.02.02-.03.03-.05l1.6-3.14c.07-.15.18-.27.32-.37l2.35-1.64c.19-.13.33-.32.39-.54l.77-2.69c.24-.85,1.38-.99,1.82-.22l.4.7c.06.1.1.21.12.33l.45,2.57c.04.25.18.47.37.62l1.87,1.44c.09.07.2.13.31.16l3.61,1.14c.53.17.82.74.65,1.27-.12.36-.22.73-.2.9.02.14-.06.4-.15.68-.19.56.14,1.15.71,1.29.86.21,1.92.52,2.06.8.18.35.61,2.02.83,2.91.09.34-.02.7-.26.94-.46.46-1.15,1.19-1.12,1.44.04.38,1.55,1.87,1.82,2.48.26.61,2.43,1.13,2.17,2.18-.17.68,1.15,1.92,2.11,2.72.49.41.47,1.15-.02,1.55l-.77.61c-.53.42-.5,1.25.07,1.62.43.28.88.55,1.14.63.48.15,1.38.67,1.71.87.09.05.17.09.27.11l1.2.29c.48.11.8.56.76,1.04l-.09,1.16s0,.08,0,.12l.12,2.5c.01.23-.06.47-.2.65l-.11.15c-.4.52-.19,1.28.42,1.53.53.21,1.09.5,1.38.81.65.69,1.54,3.4,1.39,3.8-.04.12-.19.27-.37.43-.48.42-.47,1.17.04,1.55l.75.56c.17.13.3.31.36.52l.53,1.78s.29.86-.05,1.28c-.34.42-2.01.87-1.94,1.5.05.46,2.5,1.13,3.8,1.46.47.12.78.55.75,1.03l-.07,1.13c0,.14.01.28.06.42.15.39.47,1.27.51,1.65.04.38-3.81,1.57-5.67,2.12-.54.16-.84.73-.66,1.26h0c.16.5-.09,1.03-.57,1.23s-1.07.44-1.36.53c-.55.19-8.69,1.23-8.65,1.61.02.22-.16.84-.32,1.33-.13.39-.48.66-.88.69l-7.81.53c-.07,0-.14,0-.2,0l-8.85-1.22c-.14-.02-.29,0-.43.03Z"/>
  <path class="cls-17" d="M2977.4,1912.03l-5.82.72.77-2.58-3.44-1.98-.24-1.62,2.91-.46s-.21-2.22-.18-2.82c.03-.6,1.74-2.73,1.74-2.73l.75-2.17,2.66-1.88,1.59-1.23s-.06-.51-.05-.71-.05-.66.36-.69.81-.11.81-.11l-.44-.88s.18-.39.51-.48c.33-.08,1.49-.93,1.5-1.08,0-.15.43-.63.43-.63l.94-1.21,1.31-.59.98-1.96.5,1.23.02,1.26.84.85,1.88.9s-.35.54-.36.69c0,.15-.35.64-.35.64,0,0,1.18.41,1.25.61.07.2.17,1.42.17,1.42,0,0-.75.47-.75.62,0,.15.52.83.59,1.08.07.25.93.6.75.99s1.05,1.56,1.05,1.56l-1.32.69s.61.58.85.7c.24.11.7.49.7.49l.87.34-.2.79-.14,1.15-.59.52s.79.34,1.01.65c.23.31.41,1.43.32,1.57s-.66.37-.66.37l.77.74.12.86s.06.35-.1.5c-.17.14-.89.21-.91.46-.01.25,1.8.94,1.8.94l-.2.84s.13.56.12.76c0,.2-2.92.51-2.92.51l.12.76s-.73.16-.97.2c-.24.04-3.69-.08-3.7.07,0,.15-.36.74-.36.74l-3.6-.33-3.72-1.09Z"/>
  <path class="cls-6" d="M343.56,2029.68l-8.54,2.05.95-5.33-5.22-3.69-.47-3.28,4.27-1.23s-.47-4.51-.47-5.74,2.37-5.74,2.37-5.74l.95-4.51,3.79-4.1,2.25-2.67s-.12-1.03-.12-1.44-.12-1.33.47-1.44c.59-.1,1.19-.31,1.19-.31l-.71-1.74s.24-.82.71-1.03c.47-.21,2.13-2.05,2.13-2.36s.59-1.33.59-1.33l1.3-2.56,1.9-1.33,1.3-4.1.83,2.46.12,2.56,1.3,1.64,2.85,1.64s-.47,1.13-.47,1.44-.47,1.33-.47,1.33c0,0,1.78.72,1.9,1.13.12.41.36,2.87.36,2.87,0,0-1.07,1.03-1.07,1.33s.83,1.64.95,2.15,1.42,1.13,1.19,1.95,1.66,3.08,1.66,3.08l-1.9,1.54s.95,1.13,1.3,1.33c.36.21,1.07.92,1.07.92l1.3.62-.24,1.64-.12,2.36-.83,1.13s1.19.62,1.54,1.23c.36.62.71,2.87.59,3.18-.12.31-.95.82-.95.82l1.19,1.44.24,1.74s.12.72-.12,1.03-1.3.51-1.3,1.03,2.73,1.74,2.73,1.74l-.24,1.74s.24,1.13.24,1.54-4.27,1.33-4.27,1.33l.24,1.54s-1.07.41-1.42.51c-.36.1-5.45.21-5.45.51s-.47,1.54-.47,1.54l-5.34-.31-5.57-1.85Z"/>
  <path class="cls-17" d="M136.79,1819.78l-7.64,2.62.85-6.81-4.67-4.72-.42-4.19,3.82-1.57s-.42-5.77-.42-7.34,2.12-7.34,2.12-7.34l.85-5.77,3.4-5.24,2.02-3.41s-.11-1.31-.11-1.83-.11-1.7.42-1.83c.53-.13,1.06-.39,1.06-.39l-.64-2.23s.21-1.05.64-1.31c.42-.26,1.91-2.62,1.91-3.01s.53-1.7.53-1.7l1.17-3.28,1.7-1.7,1.17-5.24.74,3.14.11,3.28,1.17,2.1,2.55,2.1s-.42,1.44-.42,1.83-.42,1.7-.42,1.7c0,0,1.59.92,1.7,1.44.11.52.32,3.67.32,3.67,0,0-.95,1.31-.95,1.7s.74,2.1.85,2.75,1.27,1.44,1.06,2.49c-.21,1.05,1.49,3.93,1.49,3.93l-1.7,1.97s.85,1.44,1.17,1.7c.32.26.95,1.18.95,1.18l1.17.79-.21,2.1-.11,3.01-.74,1.44s1.06.79,1.38,1.57c.32.79.64,3.67.53,4.06-.11.39-.85,1.05-.85,1.05l1.06,1.83.21,2.23s.11.92-.11,1.31c-.21.39-1.17.66-1.17,1.31s2.44,2.23,2.44,2.23l-.21,2.23s.21,1.44.21,1.97-3.82,1.7-3.82,1.7l.21,1.97s-.95.52-1.27.66c-.32.13-4.88.26-4.88.66s-.42,1.97-.42,1.97l-4.77-.39-4.99-2.36Z"/>
  <path class="cls-6" d="M1046.8,2046.62l-10.63,3.05,1.18-7.94-6.5-5.5-.59-4.89,5.32-1.83s-.59-6.72-.59-8.55,2.95-8.55,2.95-8.55l1.18-6.72,4.73-6.11,2.81-3.97s-.15-1.53-.15-2.14-.15-1.99.59-2.14,1.48-.46,1.48-.46l-.89-2.6s.3-1.22.89-1.53c.59-.31,2.66-3.05,2.66-3.51s.74-1.99.74-1.99l1.62-3.82,2.36-1.99,1.62-6.11,1.03,3.67.15,3.82,1.62,2.44,3.54,2.44s-.59,1.68-.59,2.14-.59,1.99-.59,1.99c0,0,2.22,1.07,2.36,1.68.15.61.44,4.28.44,4.28,0,0-1.33,1.53-1.33,1.99s1.03,2.44,1.18,3.21c.15.76,1.77,1.68,1.48,2.9-.3,1.22,2.07,4.58,2.07,4.58l-2.36,2.29s1.18,1.68,1.62,1.99c.44.31,1.33,1.37,1.33,1.37l1.62.92-.3,2.44-.15,3.51-1.03,1.68s1.48.92,1.92,1.83c.44.92.89,4.28.74,4.73-.15.46-1.18,1.22-1.18,1.22l1.48,2.14.3,2.6s.15,1.07-.15,1.53c-.3.46-1.62.76-1.62,1.53s3.4,2.6,3.4,2.6l-.3,2.6s.3,1.68.3,2.29-5.32,1.99-5.32,1.99l.3,2.29s-1.33.61-1.77.76c-.44.15-6.79.31-6.79.76s-.59,2.29-.59,2.29l-6.65-.46-6.94-2.75Z"/>
  <path class="cls-6" d="M847.16,2023.28l-5.21,1.32.58-3.44-3.19-2.38-.29-2.12,2.61-.79s-.29-2.91-.29-3.7,1.45-3.7,1.45-3.7l.58-2.91,2.32-2.65,1.38-1.72s-.07-.66-.07-.93-.07-.86.29-.93c.36-.07.72-.2.72-.2l-.43-1.12s.14-.53.43-.66c.29-.13,1.3-1.32,1.3-1.52s.36-.86.36-.86l.8-1.65,1.16-.86.8-2.65.51,1.59.07,1.65.8,1.06,1.74,1.06s-.29.73-.29.93-.29.86-.29.86c0,0,1.09.46,1.16.73.07.26.22,1.85.22,1.85,0,0-.65.66-.65.86s.51,1.06.58,1.39.87.73.72,1.26c-.14.53,1.01,1.98,1.01,1.98l-1.16.99s.58.73.8.86c.22.13.65.6.65.6l.8.4-.14,1.06-.07,1.52-.51.73s.72.4.94.79c.22.4.43,1.85.36,2.05-.07.2-.58.53-.58.53l.72.93.14,1.12s.07.46-.07.66-.8.33-.8.66,1.67,1.12,1.67,1.12l-.14,1.12s.14.73.14.99-2.61.86-2.61.86l.14.99s-.65.26-.87.33c-.22.07-3.33.13-3.33.33s-.29.99-.29.99l-3.26-.2-3.4-1.19Z"/>
  <path class="cls-6" d="M525.78,2049.66l-11.45,3.96.91-9.12-7.34-5.99-.87-5.56,5.71-2.33s-.96-7.65-1.05-9.74c-.09-2.09,2.82-9.9,2.82-9.9l.97-7.73,4.86-7.18,2.87-4.66s-.23-1.74-.26-2.44c-.03-.7-.25-2.26.54-2.47s1.59-.59,1.59-.59l-1.09-2.93s.26-1.41.89-1.78,2.75-3.61,2.73-4.13c-.02-.52.71-2.3.71-2.3l1.59-4.43,2.48-2.37,1.48-7.05,1.3,4.14.34,4.35,1.89,2.72,3.98,2.64s-.56,1.94-.54,2.47c.02.52-.55,2.29-.55,2.29,0,0,2.46,1.12,2.65,1.81.19.69.69,4.86.69,4.86,0,0-1.38,1.8-1.35,2.33.02.52,1.24,2.75,1.44,3.61.2.87,2.01,1.84,1.75,3.25s2.47,5.14,2.47,5.14l-2.47,2.72s1.37,1.87,1.86,2.2c.5.33,1.51,1.51,1.51,1.51l1.81.98-.21,2.8v4.02s-1.04,1.96-1.04,1.96c0,0,1.65.98,2.18,2.01s1.17,4.84,1.03,5.37c-.14.53-1.23,1.45-1.23,1.45l1.71,2.38.44,2.95s.21,1.21-.09,1.75c-.3.54-1.73.94-1.7,1.82.04.87,3.82,2.82,3.82,2.82l-.2,2.98s.4,1.91.43,2.6c.03.7-5.7,2.5-5.7,2.5l.43,2.6s-1.42.76-1.9.95c-.48.19-7.39.65-7.37,1.17.02.52-.54,2.64-.54,2.64l-7.26-.23-7.7-2.83Z"/>
  <path class="cls-6" d="M641.76,2049.96l-11.38,1.96,1.77-7.09-6.46-5.46-.29-4.46,5.71-1.25s-.17-6.12-.05-7.78c.12-1.66,3.68-7.51,3.68-7.51l1.69-5.99,5.38-5.17,3.22-3.38s-.05-1.39-.01-1.94c.04-.55-.02-1.81.76-1.89.79-.08,1.58-.3,1.58-.3l-.76-2.41s.39-1.08,1.03-1.31c.64-.23,3-2.56,3.03-2.97.03-.41.91-1.74.91-1.74l1.96-3.33,2.62-1.62,2.12-5.4.84,3.39-.1,3.46,1.54,2.33,3.56,2.48s-.73,1.47-.76,1.89c-.03.41-.75,1.75-.75,1.75,0,0,2.26,1.13,2.37,1.7s.18,3.9.18,3.9c0,0-1.5,1.28-1.53,1.69-.03.41.92,2.29,1.03,2.99.1.7,1.75,1.65,1.36,2.74-.39,1.08,1.87,4.3,1.87,4.3l-2.64,1.89s1.13,1.61,1.57,1.92,1.31,1.34,1.31,1.34l1.65.95-.47,2.19-.39,3.16-1.2,1.44s1.49.94,1.9,1.8.64,3.93.46,4.34c-.19.4-1.32,1.02-1.32,1.02l1.41,2.04.14,2.37s.08.98-.26,1.37c-.34.39-1.76.57-1.81,1.26s3.4,2.6,3.4,2.6l-.48,2.33s.2,1.54.16,2.09c-.04.55-5.72,1.39-5.72,1.39l.16,2.09s-1.44.45-1.91.56-7.16-.24-7.19.18c-.03.41-.77,2.03-.77,2.03l-6.96-.92-7.11-3.01Z"/>
  <path class="cls-17" d="M657.13,1835.6l-7.83,2.39.87-6.21-4.79-4.3-.44-3.82,3.92-1.43s-.44-5.25-.44-6.69,2.18-6.69,2.18-6.69l.87-5.25,3.48-4.78,2.07-3.1s-.11-1.19-.11-1.67-.11-1.55.44-1.67c.54-.12,1.09-.36,1.09-.36l-.65-2.03s.22-.96.65-1.19c.44-.24,1.96-2.39,1.96-2.75s.54-1.55.54-1.55l1.2-2.99,1.74-1.55,1.2-4.78.76,2.87.11,2.99,1.2,1.91,2.61,1.91s-.44,1.31-.44,1.67-.44,1.55-.44,1.55c0,0,1.63.84,1.74,1.31.11.48.33,3.34.33,3.34,0,0-.98,1.19-.98,1.55s.76,1.91.87,2.51c.11.6,1.31,1.31,1.09,2.27-.22.96,1.52,3.58,1.52,3.58l-1.74,1.79s.87,1.31,1.2,1.55c.33.24.98,1.07.98,1.07l1.2.72-.22,1.91-.11,2.75-.76,1.31s1.09.72,1.41,1.43c.33.72.65,3.34.54,3.7s-.87.96-.87.96l1.09,1.67.22,2.03s.11.84-.11,1.19c-.22.36-1.2.6-1.2,1.19s2.5,2.03,2.5,2.03l-.22,2.03s.22,1.31.22,1.79-3.92,1.55-3.92,1.55l.22,1.79s-.98.48-1.31.6c-.33.12-5,.24-5,.6s-.44,1.79-.44,1.79l-4.9-.36-5.11-2.15Z"/>
  <path class="cls-6" d="M169.45,2028.74l-5.8,1.64.64-4.25-3.54-2.95-.32-2.62,2.9-.98s-.32-3.6-.32-4.58,1.61-4.58,1.61-4.58l.64-3.6,2.58-3.27,1.53-2.13s-.08-.82-.08-1.15-.08-1.06.32-1.15c.4-.08.81-.25.81-.25l-.48-1.39s.16-.65.48-.82c.32-.16,1.45-1.64,1.45-1.88s.4-1.06.4-1.06l.89-2.05,1.29-1.06.89-3.27.56,1.96.08,2.05.89,1.31,1.93,1.31s-.32.9-.32,1.15-.32,1.06-.32,1.06c0,0,1.21.57,1.29.9.08.33.24,2.29.24,2.29,0,0-.73.82-.73,1.06s.56,1.31.64,1.72c.08.41.97.9.81,1.55-.16.65,1.13,2.45,1.13,2.45l-1.29,1.23s.64.9.89,1.06c.24.16.73.74.73.74l.89.49-.16,1.31-.08,1.88-.56.9s.81.49,1.05.98c.24.49.48,2.29.4,2.54-.08.25-.64.65-.64.65l.81,1.15.16,1.39s.08.57-.08.82c-.16.25-.89.41-.89.82s1.85,1.39,1.85,1.39l-.16,1.39s.16.9.16,1.23-2.9,1.06-2.9,1.06l.16,1.23s-.73.33-.97.41-3.71.16-3.71.41-.32,1.23-.32,1.23l-3.63-.25-3.79-1.47Z"/>
  <path class="cls-6" d="M1238.11,2058.56l-17.57,4.07,1.95-10.57-10.74-7.32-.98-6.5,8.79-2.44s-.98-8.94-.98-11.38,4.88-11.38,4.88-11.38l1.95-8.94,7.81-8.13,4.64-5.28s-.24-2.03-.24-2.85-.24-2.64.98-2.85c1.22-.2,2.44-.61,2.44-.61l-1.46-3.46s.49-1.63,1.46-2.03c.98-.41,4.39-4.07,4.39-4.67s1.22-2.64,1.22-2.64l2.68-5.08,3.9-2.64,2.68-8.13,1.71,4.88.24,5.08,2.68,3.25,5.86,3.25s-.98,2.24-.98,2.85-.98,2.64-.98,2.64c0,0,3.66,1.42,3.9,2.24.24.81.73,5.69.73,5.69,0,0-2.2,2.03-2.2,2.64s1.71,3.25,1.95,4.27,2.93,2.24,2.44,3.86c-.49,1.63,3.42,6.1,3.42,6.1l-3.9,3.05s1.95,2.24,2.68,2.64,2.2,1.83,2.2,1.83l2.68,1.22-.49,3.25-.24,4.67-1.71,2.24s2.44,1.22,3.17,2.44c.73,1.22,1.46,5.69,1.22,6.3-.24.61-1.95,1.63-1.95,1.63l2.44,2.85.49,3.46s.24,1.42-.24,2.03c-.49.61-2.68,1.02-2.68,2.03s5.61,3.46,5.61,3.46l-.49,3.46s.49,2.24.49,3.05-8.79,2.64-8.79,2.64l.49,3.05s-2.2.81-2.93,1.02c-.73.2-11.23.41-11.23,1.02s-.98,3.05-.98,3.05l-10.98-.61-11.47-3.66Z"/>
  <path class="cls-17" d="M1030.51,1867.83l-2.66.97c-1,.37-2.04-.45-1.91-1.51l.26-2.21c.05-.42-.09-.83-.37-1.14l-2.54-2.74c-.21-.23-.34-.52-.37-.84l-.16-1.67c-.06-.61.28-1.2.85-1.44l.85-.37c.55-.24.89-.8.85-1.4-.09-1.37-.24-3.74-.24-4.57,0-1.07,1.22-4.72,1.46-5.44.03-.09.05-.17.06-.26l.54-3.95c.03-.19.09-.38.19-.55l2.26-3.73,1.23-2.22c.13-.24.19-.51.18-.79-.02-.32-.05-.75-.05-.98,0-.4-.08-1.29.3-1.39.38-.1.75-.3.75-.3l-.45-1.69s.15-.8.45-.99,1.36-1.99,1.36-2.29.38-1.29.38-1.29l.73-2.19c.06-.19.17-.37.31-.52l.72-.77c.18-.19.3-.43.35-.68l.75-3.59.5,2.26c.02.09.03.18.03.27l.06,2.03c0,.22.06.43.16.62l.55,1.06c.08.16.19.3.32.41l.95.84c.39.34.57.87.45,1.38-.05.24-.1.47-.1.59,0,.09-.03.24-.06.4-.12.53.09,1.08.5,1.42.23.19.43.4.46.56.05.28.15,1.59.19,2.31.02.3-.05.6-.21.85-.2.32-.44.74-.44.92,0,.3.53,1.59.6,2.09.08.5.9,1.09.75,1.89-.09.48.32,1.49.66,2.2.24.5.16,1.08-.18,1.51h0c-.39.48-.43,1.15-.09,1.67.12.18.23.33.3.4.23.2.68.9.68.9l.83.6-.15,1.55s0,.06,0,.09l-.06,1.94c0,.2-.05.39-.14.57l-.4.82s.75.6.98,1.19c.23.6.45,2.79.38,3.08-.02.07-.06.15-.11.23-.28.42-.28.97-.03,1.42l.15.28c.09.17.15.36.17.55l.12,1.4s.08.7-.08.99c-.15.3-.83.5-.83.99,0,.3.62.84,1.12,1.24.38.3.59.77.54,1.25l-.07.73c0,.1,0,.2,0,.31.04.31.13,1.04.13,1.34,0,.23-.92.63-1.69.93-.6.23-.98.84-.91,1.48l.04.38s-.68.4-.9.5c-.23.1-3.47.2-3.47.5,0,.04,0,.09-.01.16-.1.75-.79,1.29-1.54,1.22l-1.86-.16c-.18-.02-.36-.07-.52-.15l-2.74-1.39c-.35-.18-.77-.2-1.14-.07Z"/>
</svg>