<?xml version="1.0" encoding="UTF-8"?>
<svg id="Layer_1" data-name="Layer 1" xmlns="http://www.w3.org/2000/svg" xmlns:xlink="http://www.w3.org/1999/xlink" viewBox="0 0 3840 8192">
  <defs>
    <style>
      .cls-1 {
        fill: #1a3e3f;
      }

      .cls-2 {
        fill: url(#linear-gradient-8);
      }

      .cls-3 {
        fill: url(#linear-gradient-7);
      }

      .cls-4 {
        fill: url(#linear-gradient-5);
      }

      .cls-5 {
        fill: url(#linear-gradient-6);
      }

      .cls-6 {
        fill: url(#linear-gradient-9);
      }

      .cls-7 {
        fill: url(#linear-gradient-4);
      }

      .cls-8 {
        fill: url(#linear-gradient-3);
      }

      .cls-9 {
        fill: url(#linear-gradient-2);
      }

      .cls-10 {
        fill: url(#linear-gradient);
      }

      .cls-11 {
        fill: #1a4949;
      }

      .cls-12 {
        fill: #176872;
      }

      .cls-13 {
        fill: #68a09c;
      }
    </style>
    <linearGradient id="linear-gradient" x1="1741.21" y1="15046.73" x2="1741.21" y2="16027.77" gradientTransform="translate(281.49 15036.31) scale(.94 -.94)" gradientUnits="userSpaceOnUse">
      <stop offset="0" stop-color="#ecf5ed"/>
      <stop offset=".58" stop-color="#d2e4d7"/>
      <stop offset="1" stop-color="#bed9c6"/>
    </linearGradient>
    <linearGradient id="linear-gradient-2" x1="3075.42" y1="14780.17" x2="3199.56" y2="15233.74" gradientTransform="translate(281.49 15036.31) scale(.94 -.94)" gradientUnits="userSpaceOnUse">
      <stop offset="0" stop-color="#d1e3d6"/>
      <stop offset=".17" stop-color="#b5d1c8"/>
      <stop offset=".37" stop-color="#99c0bb"/>
      <stop offset=".58" stop-color="#85b3b1"/>
      <stop offset=".79" stop-color="#79acab"/>
      <stop offset="1" stop-color="#75aaaa"/>
    </linearGradient>
    <linearGradient id="linear-gradient-3" x1="2404.95" y1="14395.58" x2="2517.76" y2="15034.79" gradientTransform="translate(281.49 15036.31) scale(.94 -.94)" gradientUnits="userSpaceOnUse">
      <stop offset="0" stop-color="#d7e7db"/>
      <stop offset=".48" stop-color="#accec9"/>
      <stop offset=".81" stop-color="#95c1bf"/>
    </linearGradient>
    <linearGradient id="linear-gradient-4" x1="1173.36" y1="13989.14" x2="1348.38" y2="14594.17" gradientTransform="translate(281.49 15036.31) scale(.94 -.94)" gradientUnits="userSpaceOnUse">
      <stop offset=".52" stop-color="#d1e3d6"/>
      <stop offset="1" stop-color="#bed9c6"/>
    </linearGradient>
    <linearGradient id="linear-gradient-5" x1="695.74" y1="14850.45" x2="3059.93" y2="14850.45" gradientTransform="translate(281.49 15036.31) scale(.94 -.94)" gradientUnits="userSpaceOnUse">
      <stop offset="0" stop-color="#d1e3d6"/>
      <stop offset=".08" stop-color="#cee1d3"/>
      <stop offset=".54" stop-color="#c2dbc9"/>
      <stop offset="1" stop-color="#bed9c6"/>
    </linearGradient>
    <linearGradient id="linear-gradient-6" x1="2059.73" y1="15066.45" x2="3859.55" y2="15066.45" gradientTransform="translate(281.49 15036.31) scale(.94 -.94)" gradientUnits="userSpaceOnUse">
      <stop offset=".27" stop-color="#d1e3d6"/>
      <stop offset=".4" stop-color="#c6dcd1"/>
      <stop offset=".64" stop-color="#abcbc4"/>
      <stop offset=".94" stop-color="#7fb0ae"/>
      <stop offset="1" stop-color="#75aaaa"/>
    </linearGradient>
    <linearGradient id="linear-gradient-7" x1="2929.53" y1="15265.64" x2="3859.58" y2="15265.64" gradientTransform="translate(281.49 15036.31) scale(.94 -.94)" gradientUnits="userSpaceOnUse">
      <stop offset=".27" stop-color="#d1e3d6"/>
      <stop offset=".4" stop-color="#c6dcd1"/>
      <stop offset=".64" stop-color="#abcbc4"/>
      <stop offset=".94" stop-color="#7fb0ae"/>
      <stop offset="1" stop-color="#75aaaa"/>
    </linearGradient>
    <linearGradient id="linear-gradient-8" x1="1317.81" y1="15136.28" x2="1872.35" y2="15136.28" gradientTransform="translate(281.49 15036.31) scale(.94 -.94)" gradientUnits="userSpaceOnUse">
      <stop offset="0" stop-color="#d1e3d6"/>
      <stop offset=".43" stop-color="#c6ddcd"/>
      <stop offset="1" stop-color="#bed9c6"/>
    </linearGradient>
    <linearGradient id="linear-gradient-9" x1="1747.16" y1="9634.64" x2="1730.75" y2="13568.67" gradientTransform="translate(281.49 15036.31) scale(.94 -.94)" gradientUnits="userSpaceOnUse">
      <stop offset="0" stop-color="#c5decd"/>
      <stop offset=".13" stop-color="#c0d9c9"/>
      <stop offset=".29" stop-color="#b2ccbd"/>
      <stop offset=".45" stop-color="#9ab6aa"/>
      <stop offset=".63" stop-color="#7a988f"/>
      <stop offset=".8" stop-color="#50716c"/>
      <stop offset=".99" stop-color="#1e4242"/>
      <stop offset="1" stop-color="#1a3e3f"/>
    </linearGradient>
  </defs>
  <g>
    <rect class="cls-10" x="-91.35" y="-87.41" width="4019.16" height="1067.71"/>
    <path class="cls-9" d="M3927.82,1082.88l-308.31-5.04-319.85-42.07-541.74-222.24-205.61-105.12,88.12-17.27s72.62-16.52,95.45-30.79c22.85-14.26,47.34-22.53,51.42-26.27,4.07-3.75,55.46-25.54,55.46-25.54l56.29-25.52s44.89-31.55,48.15-31.55,26.11,1.51,30.19.75c4.08-.75,29.38-8.26,29.38-8.26,0,0,22.83,9.76,35.08.75.26-.19.52-.37.78-.56,12.06-8.75,26.34-16.08,34.32-21.22,8.15-5.25,39.97-15.76,39.97-15.76,0,0,21.23,12.01,44.87,2.25,23.66-9.76,31.01-9.76,51.42-7.5,20.4,2.25,64.44,18.02,72.6,21.01,8.18,3.02,19.59-4.49,33.46,12.78,13.86,17.27,88.92,52.55,109.33,65.31,20.4,12.76,88.92,60.06,113.4,72.07,24.48,12.01,94.64,53.32,114.22,60.82,19.61,7.5,54.66,39.05,91.38,52.55,36.73,13.5,92.2,49.57,115.87,58.56,23.65,9.02,64.35,17.23,64.35,17.23"/>
    <path class="cls-8" d="M3928.07,1075.2v311.35s-164.26,8.02-167.52,6.03c-3.28-2.01-258.93-7.02-258.93-7.02l-447.1-7-290.47,18.27-646.18-27.02-833.29-474.8s49.5-3.52,64.72-8.51c15.24-5.01,28.84-7.02,40.81-11.01,11.96-4.01,34.26-8.02,42.98-12.51,8.7-4.51,31.01-9.02,41.33-12.53,10.34-3.5,15.79-2.49,31.01-13.01,9.22-6.35,19-15.45,27.93-22.74,5.89-4.79,11.39-8.82,16.12-10.81,11.96-5.01,37.54-23.03,42.98-23.03s19.04,4.51,24.48,5.01c5.44.5,23.4,1,27.74-1.49,4.35-2.51,20.68-14.03,29.38-16.52s35.9-3.02,41.35-2.49c5.44.5,78.31,14,95.18,23.52,16.87,9.5,28.84,11.51,44.06,17.52,15.22,6.01,34.83,11.51,50.05,14,.63.09,1.28.19,1.93.29,15.86,2.26,45.85,2.73,56.79,2.73s25.56,8,38.08-8.52c12.51-16.52,31.01-27.04,46.79-34.04,15.76-7,78.87-33.54,94.09-39.55,15.22-6.01,36.45-19.01,42.98-26.52,6.53-7.52,25.03-23.52,27.74-23.52,1.53,0,10.05-.31,19.35-2.09h.02c7.3-1.38,15.09-3.69,20.35-7.42,11.96-8.51,22.3-19.51,28.27-20.54,5.99-1,24.48-3.5,32.64-6.01,8.18-2.49,39.18-3,59.3-3s4.9-5.01,26.65-17.02c21.77-12.01,41.89-9.52,41.89-9.52,0,0,16.85-9,19.59-8.49,2.71.5,38.62,12.01,42.44,14.51,3.8,2.51,65.26,32.55,118.58,55.07,53.29,22.53,67.99,10.02,89.2,28.53,21.21,18.51,79.96,43.54,87.03,48.05,7.07,4.51,64.18,29.53,113.14,46.05,48.96,16.52,62.55,51.06,108.24,69.57,45.71,18.53,63.63,33.04,101.17,45.55,37.54,12.51,215.41,83.61,286.12,97.61,70.7,14.03,126.19,30.03,152.3,30.03s52.23-8,81.61-3c29.36,5.01,33.72,31.02,78.31,20.02,44.6-11.01,51.12-21.01,82.67-22.01,31.55-1.02,80.51,8,88.12,13.01,7.63,5.01,38.08,15.01,38.08,15.01l-.02.02-.03-.02h0Z"/>
    <path class="cls-7" d="M3281.93,1367.17c-46.13,2.82-92.24,5.64-138.37,8.48-45.19,2.76-90.35,5.51-135.55,8.29-1.34.08-2.69.17-4.02.25l-470.47,43.29-108.65,10-367.31,33.81-1393.53-18.02c-251.44,3-502.86,6.01-754.28,9-.15-22.14-.29-44.29-.43-66.46-.8-149.29-1.45-298.48-.65-447.78,9.7-7.16,21.61-14.69,34.53-21.87,24.6-13.62,47.95-22.22,67.32-27.77h31.84l22.03,4.49s44.06-4.49,61.19-13.5c17.14-9.02,70.97-18.02,95.45-36.03,24.48-18.02,100.35-51.81,100.35-51.81l88.12-31.55s51.39-33.78,56.29-40.54,25.03-21.01,30.46-20.52c5.44.5,11.15-.25,18.22-.25s25.28-.77,31.27-2.26c5.99-1.49,15.51-4.51,18.22-5.51,2.71-1,30.46-3.99,33.45-3.74,3,.25,3.54-3.52,23.66-1.51,20.12,2.01,22.85,3.02,27.46,7.02,4.62,3.99,48.15,15.76,63.38,14.51,15.22-1.25,35.88-5.76,38.62-6.01,2.71-.25,28.82-8.76,38.62-8.26s42.44,3,42.44,3c0,0,33.72,4.01,40.25,4.01s33.74,3.99,45.69,2.49c6.66-.85,11.85.37,15.09,1.57,2.58.96,3.96,1.93,3.96,1.93,0,0,42.96,22.03,49.47,24.02s71.27,26.54,84.86,38.05,74.52,31.53,85.41,46.55c4.9,6.77,13.49,14.49,21.91,21.1,10.25,8.09,20.24,14.57,23.23,15.93,5.44,2.51,8.7,1,11.43,0,2.71-1,25.03-8,34.8-8s23.94,7.5,36.99,18.51c13.05,11.01,56.02,22.53,64.73,22.53s67.42,12.01,102.25-1.99c34.8-14.03,43.53-17.02,58.73-16.02,15.24,1,25.03-13.03,46.79,5.01,21.75,18.02,62.01,30.03,96.81,41.04,34.83,11.01,57.65,30.03,68.53,38.03,6.45,4.75,23.94,8.1,37.83,9.8,9.56,1.2,17.41,1.6,18.75,1.22,2-.61,8.51,5.18,20.26,14.14,7.4,5.64,16.92,12.55,28.69,19.9,30.46,19.01,60.92,55.07,128.38,73.09,67.42,18.02,74.65,20.4,93.42,28.64,18.76,8.27,35.09,16.52,40.81,19.9,5.7,3.38,24.46,6.76,37.54,6.76s45.26,6.39,63.22,11.25c17.95,4.9,123.48,24.54,171.89,24.54s73.95-2.51,94.09,3c20.12,5.51,59.81,13.52,101.17,35.53,41.33,22.03,78.31,46.05,87.03,53.07,8.7,7,54.94,27.52,61.47,27.02s16.85-7.5,26.11-.5c9.24,7,15.76,14.03,19.59,15.03,3.8,1,31.01,0,31.01,0,0,0,32.64-5.01,45.15,1.99,12.51,7,16.87,15.53,30.46,17.52,13.6,2.01,35.37,1.49,35.37,1.49,17.85-7.11,31.53-7.24,40.79-6.01,7.87,1.06,9.39,2.69,27.76,8.02,11.94,3.48,20.66,5.49,38.08,9.5,20.78,4.81,38.23,8.26,45.15,9.52,48.54,8.98,60.07.77,113.82,7.41,1.55.19,3.13.41,4.75.61,14.57,1.93,23.22,3.74,33.35,5.57,8.91,1.58,18.96,3.21,35.18,4.93,20.24,2.15,37.06,3.08,48.39,3.52l-.02.02h.01-.03Z"/>
    <path class="cls-4" d="M3165.46,1352.55c-7.35,2.28-15.22,4.51-23.53,6.65-35.88,9.3-80.18,17.52-128.69,24.74-163.63,24.35-375.29,37.42-474.49,43.54-71.39,4.42-139.99,7.44-205.46,9.4-219.54,6.58-403.89.92-540.88-6.58-3.7-12.25-7.34-24.5-11.03-36.78,0,0-18.37-7.54-20.2-11.3-1.84-3.77-2.73-9.46-1.84-16.06.92-6.59,1.84-6.59,1.84-15.09s0-23.58-3.65-29.25c-3.7-5.66-17.45-12.25-21.11-12.25s-12.86-8.52-18.37-10.41c-5.51-1.88-33.04-3.75-33.04-3.75h-55.06c-11.03,0-16.54-4.72-16.54-4.72,0,0,6.44-8.48,1.81-22.64-4.57-14.14,3.7-19.8-8.25-18.86-11.91.94-19.25,1.88-22.93-2.82-3.7-4.72-5.51-14.16-8.25-16.04-2.78-1.9-13.79-6.59-22.04-6.59s-17.45,0-27.55-2.84c-10.11-2.82-18.37-5.64-27.55-13.23-9.16-7.54-38.54-11.3-43.14-13.19-4.59-1.9-116.6-78.29-116.6-78.29,0,0-48.65-16.04-50.48-28.3-1.84-12.26-4.61-30.19-4.61-39.62s-1.81-5.64,5.53-31.12c7.34-25.46,11.92-34.91,12.84-49.07.92-14.14-12.84-.94-17.45-11.3-2.31-5.25-3.7-8.81-4.73-11.92-2.26-6.76-1.12-7.58-2.63-8.85-2.33-1.97-4.85-1.08-9.26-3.48-2.1-1.14-3.58-2.45-4.48-3.38-4.9-1.63-9.79-3.25-14.69-4.89-4.72-9.09-10.39-13.06-14.69-15.02-4.98-2.26-8.78-2.12-22.85-5.63-4.19-1.05-7.6-2-9.79-2.63-6.9-4.67-12.81-8.03-16.96-10.26-8.37-4.46-19.25-9.44-19.25-9.44h0c-8.2-1.44-16.38-2.89-24.57-4.33-5.62-.11-13.13-1.2-18.76-6.01-4.61-3.94-4.76-7.63-9.37-12.39-5.25-5.42-11.51-7.28-18.36-9.38-40.46-12.43-32.33-12.06-47.32-15.39,0,0-19.45-4.39-30.18-10.51-2.18-1.25-3.71-2.22-4.9-3.03-2.42-1.65-4.17-2.92-4.76-3.35-13.32-9.96-24.99-14.95-30.03-25.4-3.98-8.24,1.49-8.76-2.72-19.02-4.72-11.5-12.05-11.94-13.73-22.28-.58-3.59-.34-7.4-2.5-13.83-.75-2.22-1.72-4.53-2.99-6.93-4.61-8.75-11.57-9.25-17.37-15.45,2.58.96,3.96,1.93,3.96,1.93,0,0,42.96,22.03,49.47,24.02,6.52,1.99,71.27,26.54,84.86,38.05,13.59,11.51,74.52,31.53,85.41,46.55,4.9,6.77,13.49,14.49,21.91,21.1,10.25,8.09,20.24,14.57,23.23,15.93,5.44,2.51,8.7,1,11.43,0,2.71-1,25.03-8,34.8-8s23.94,7.5,36.99,18.51,56.02,22.53,64.73,22.53,67.42,12.01,102.25-1.99c34.8-14.03,43.53-17.02,58.73-16.02,15.24,1,25.03-13.03,46.79,5.01,21.75,18.02,62.01,30.03,96.81,41.04,34.83,11.01,57.65,30.03,68.53,38.03,6.45,4.75,23.94,8.1,37.83,9.8,11.69,5.74,24.58,10.94,39.01,15.35,7.4,5.64,16.92,12.55,28.69,19.9,30.46,19.01,60.92,55.07,128.38,73.09,67.42,18.02,74.65,20.4,93.42,28.64,18.76,8.27,35.09,16.52,40.81,19.9,5.7,3.38,24.46,6.76,37.54,6.76s45.26,6.39,63.22,11.25c17.95,4.9,123.48,24.54,171.89,24.54s73.95-2.51,94.09,3c20.12,5.51,59.81,13.52,101.17,35.53,41.33,22.03,78.31,46.05,87.03,53.07,8.7,7,54.94,27.52,61.47,27.02s16.85-7.5,26.11-.5c9.24,7,15.76,14.03,19.59,15.03,3.8,1,31.01,0,31.01,0,0,0,32.64-5.01,45.15,1.99,12.51,7,16.87,15.53,30.46,17.52,13.6,2.01,35.37,1.49,35.37,1.49,17.85-7.11,31.53-7.24,40.79-6.01,7.87,1.06,9.39,2.69,27.76,8.02,11.94,3.48,20.66,5.49,38.08,9.5,20.78,4.81,38.23,8.26,45.15,9.52,48.54,8.98,60.07.77,113.82,7.41l-.02.04h-.06Z"/>
    <path class="cls-13" d="M-90.68,1395.03c7.89,3.77,15.77,7.54,23.66,11.32l22.85-4.68,6.53-8.59s2.44-14.06,5.71-1.56c3.27,12.49,5.71,17.95,5.71,17.95,0,0,12.24-8.59,13.86-12.49,1.63-3.9,2.44-12.49,4.9-14.06,2.44-1.56,12.24-5.46,12.24-5.46l2.44,19.51,3.27,2.34,7.34-24.97s4.9,13.27,7.34,16.4,8.98-8.59,8.98-8.59l5.71,10.14s8.16,2.34,10.61.78,8.98-7.02,11.42-7.8,3.27-2.34,7.34-1.56c4.07.78,26.11,7.02,26.11,7.02l12.24-13.27s-4.08-4.68,4.9-3.9,25.3,5.46,25.3,5.46c0,0,4.9,5.46,7.34,6.25,2.44.78,17.95-7.02,17.95-7.02,0,0,1.63,2.34,1.63-3.12v-7.8l29.37,17.17c2.44,7.8,6.53,27.31,11.42,31.22,4.9,3.9,14.69-6.25,14.69-6.25,0,0-.81-14.06,8.98-10.93s4.9.78,12.24,3.12,9.79,3.9,20.4-6.25c10.61-10.14,13.86-14.83,16.32-14.83s25.3.78,25.3.78l20.4,4.68s-13.86-10.93,12.24-3.12c26.11,7.8,52.21,1.56,55.48,7.8l3.27,6.25s18.76,6.25,26.11,0,10.61-8.59,10.61-8.59c0,0-11.42-17.17,6.53,2.34s24.48,20.29,26.92,20.29,9.79-.78,9.79-.78l50.59-10.14s-4.08-26.54,11.42-9.36c15.5,17.17,19.59,20.29,20.4,24.97s2.44,9.36,5.71,14.83c3.27,5.46,7.34,6.25,11.42,12.49s32.64-10.93,32.64-10.93l5.71-14.06s2.44-15.61,6.53-11.71c4.08,3.9,9.79,29.66,9.79,29.66,4.9,7.02,15.5,9.36,15.5,9.36l26.11-10.14,24.48-24.2s3.27-9.36,9.79-7.8c6.53,1.56,36.72,23.42,36.72,23.42l33.45,7.8,3.27-19.51s1.63-13.27,8.16.78c6.53,14.06,2.44,17.17,9.79,16.4s22.03-20.29,22.03-20.29l10.61,18.99,13.05-4.68,1.63,10.93,3.27,8.32,9.79-12.49.54,7.28,8.16,1.04,4.35-10.93,10.88,10.93,1.63-12.49,4.9-5.72,9.79-8.32,12.51,19.77,2.72-6.25,2.72-9.36,15.77,13.01s1.63,4.16,5.99,1.04,11.42-10.93,11.42-10.93l4.9-10.41s11.96,4.16,13.6,5.72,8.16,5.2,8.16,5.2l2.18,14.58s6.53-1.04,6.53-3.12-1.63-11.45-1.63-11.45l8.7.52,4.9-12.49,5.99-6.76s8.7-13.01,8.7-15.61,2.18-16.13,3.81-17.69,8.7-.52,8.7-.52l10.88,9.36s5.44-1.04,7.08-1.04,4.9,13.53,5.99,15.61c1.09,2.09,16.86,6.76,16.86,6.76l1.63,2.09,16.86,13.79,19.17-1.18,4.08,8.59,9.79-7.42,13.46.4,17.13-6.63,3.67,7.42s2.44,6.63,3.67,7.8,6.53-3.9,8.98-3.52c2.44.4,6.94,3.12,6.94,3.12l8.98,11.32s11-3.9,12.23-3.9,8.56.4,10.61,4.29c2.04,3.9,12.23,13.66,12.23,13.66l23.66-5.86,5.71-1.95s8.16,8.98,8.57,10.14c.42,1.18,3.27,4.68,3.27,4.68l8.98-5.46,15.9-2.34,3.27,7.02,7.75-7.02,5.71-1.95,31.41,13.27,1.22-7.42h6.94l5.3-3.52,21.22-12.88,3.67,6.63,6.94-1.18,8.16,4.68,2.85,7.8,11.83-1.56s20.4-2.34,21.62-2.74c1.22-.4,7.75,6.63,7.75,6.63l15.9-10.93,9.37-19.12,8.56,2.74-2.04-13.66,8.56-11.32,10.19,2.74,4.48-8.59,18.36-11.71,2.85,9.36,7.75.4,3.27,8.98,9.79-.4,8.56,7.42,2.85-1.95,8.57-5.86s.81-1.18,1.22,1.56,5.3,8.59,5.3,8.59h-5.3l2.85,1.18s5.71.78,7.34-.4,8.56-5.46,8.56-5.46c0,0,12.64-1.56,13.86-2.34s9.37-14.06,10.61-14.83,33.86-13.66,33.86-13.66v8.98s4.48-2.74,6.53-3.12c2.04-.4,23.26-1.95,26.92-1.18,3.67.78,2.04,8.2,2.04,8.2l6.94-10.14,5.3,6.63,6.12-7.8,8.16,5.86s3.27-5.86,4.48-6.25c1.22-.4,7.34,6.25,7.34,6.25l9.37,4.68,7.34,21.08-.81-26.54,8.98,4.29,6.94-1.56,44.87-11.71-2.85,14.83s9.37,5.46,10.61,5.46,1.63,8.59,1.63,8.59l4.48,10.14s6.12-3.9,8.56-2.34c2.44,1.56,6.94,10.54,8.56,12.49,1.63,1.95,13.86,2.74,15.09,1.95,1.22-.78,5.71-4.29,6.94.78s24.89,3.9,26.11,3.12c1.22-.78,6.53-8.98,8.16-9.36s3.67-3.52,11.42.4c7.74,3.92,18.76-9.76,19.99-10.54,1.22-.78,6.12-7.42,6.12-7.42,0,0,13.86,6.11,16.04,7.16s4.9-7.8,6.53-11.45c1.63-3.64,11.42-7.28,12.51-1.56,1.09,5.72,6.53,13.53,10.33,14.58,3.81,1.04,11.96-7.8,14.14-9.89s4.35-2.6,4.9,1.56c.54,4.16,3.27,5.72,3.27,5.72l5.99-5.72s10.33-14.06,10.33,0,4.35,4.16,6.53,4.16,27.74-6.76,27.74-6.76c0,0-1.63,6.76,1.63,8.84s11.96,1.56,18.5,0,11.42-2.6,11.42-2.6c0,0,2.72,6.25,5.44,6.76,2.72.52,13.6-2.09,15.23-3.64s19.59-1.56,19.59-1.56c0,0,9.24,11.97,11.42-5.72,2.18-17.69,5.44-19.77,8.17-16.65s7.08,10.93,7.08,10.93l7.08-8.84,10.33,5.72s48.96-11.97,51.12-15.1c2.18-3.13,27.2-8.32,27.2-1.04s7.62,8.32,11.96,4.16c4.35-4.16,5.44-7.28,11.96-2.09,6.53,5.2,25.03,9.36,30.46,4.16,5.44-5.2,2.18-11.45,10.88-8.32,8.7,3.12,10.88,9.36,21.76,3.12,10.88-6.25,8.7-20.81,21.76-10.41,13.05,10.41,22.85,14.58,33.73,11.45s11.96-14.58,17.41-5.2c5.44,9.36,30.46,15.61,40.26,9.36,9.79-6.25,7.62-16.65,30.46-12.49,22.85,4.16,41.35-2.09,48.96-3.12,7.62-1.04,17.41,7.28,27.2-10.42,9.79-17.69,22.85-30.18,22.85-30.18,0,0,5.44,1.04,5.44,7.28s6.53,1.04,7.62,5.2,0,15.61,4.35,15.61,15.23-22.9,17.41-28.1,2.18-7.28,6.53-11.45c4.35-4.16,7.62-15.61,11.96-11.45,4.35,4.16,4.35,9.36,4.35,13.53s-1.09,19.77-1.09,19.77c0,0,8.7,14.58,17.41,16.65,8.7,2.09,13.05,1.04,16.32,2.09s22.85,14.58,33.73,9.36c10.88-5.2,22.85-16.65,22.85-16.65,0,0,14.14,6.25,20.67,8.32s33.73,6.25,48.96,0c15.23-6.25,27.2-23.94,43.51-20.81,16.31,3.13,34.82,12.49,38.08,18.74,3.26,6.25,16.32-3.12,26.11-10.42,9.79-7.28,19.59-15.61,23.94-15.61s34.82,9.36,34.82,9.36l16.32-21.86s7.62,8.32,7.62,11.45,21.76,7.28,25.03,7.28,10.88-10.41,13.05-13.53c2.18-3.12,3.27-15.61,17.41-13.53,14.14,2.09,23.94,8.32,23.94,8.32,0,0,30.18-32.01,36.72-25.76,6.53,6.25,7.34,12.49,7.34,12.49l12.23-8.59,4.9,9.36,5.71-3.12s4.08-3.12,5.71-.78,31.82,2.34,31.82,2.34l1.63-7.8s4.9.78,6.53,3.12.81,1.56,1.63,4.68-8.17,5.46,8.17,3.9c16.32-1.56,19.59-1.56,19.59-1.56l4.08-7.8s4.08,9.36,7.34,8.59c3.27-.78,16.32-51.51,16.32-51.51,0,0-.81,24.2-.81,28.88v9.36c0,3.9,8.98-1.56,8.98-1.56.81,7.02-3.27,8.59,2.44,9.36s-.81,0,12.23-3.12,51.39,8.59,51.39,8.59c0,0,3.27-14.83,5.71-14.83s10.6,5.46,17.13,7.8,14.69,4.68,21.22,3.12-8.17-11.71,18.76-5.46c26.92,6.25,15.5,2.34,26.92,6.25s6.53-5.46,17.95,5.46c11.42,10.93,10.6,17.95,14.69,10.14,4.08-7.8,4.9-11.71,4.9-11.71,0,0,17.13,13.27,17.13,15.61s16.32,2.34,20.4-.78,28.55-13.27,34.27-12.49,3.27-7.8,8.98,3.9c5.71,11.71,4.9,2.34,11.42,0,6.53-2.34,27.74,10.14,27.74,10.14l22.31,5.72,11.96-8.32s6.53-6.25,8.17-1.04,2.18,7.28,2.18,7.28c0,0,7.08.52,10.33-3.64,3.27-4.16,7.62-13.01,8.7-7.28,1.09,5.72,5.99,12.49,8.71,10.93,1.81-1.04,3.45-2.6,4.9-4.68,2.18-3.12,2.18-9.36,4.35-6.76,2.18,2.6,4.9,10.41,10.88,12.49,5.99,2.09,12.51,8.84,15.23,1.56,2.72-7.28,3.81-10.93,5.44-10.93s10.88.52,10.88.52c0,0,1.63-3.64,3.27-6.25s5.44-9.89,7.08-5.72c1.63,4.16,1.63,8.84,1.63,8.84,0,0,3.27,2.6,4.35,6.25,1.09,3.64,4.35,8.32,7.62,10.93,3.27,2.6,3.81,14.58,8.71,2.6,4.9-11.97,5.44-20.81,5.44-20.81,0,0,0-6.25,6.53,1.56,6.53,7.81-8.71,18.22,1.09,19.77,9.79,1.56,22.85,2.09,19.59-4.16-3.27-6.25-16.86-13.01-3.81-10.93,13.05,2.09,15.77-1.04,16.86,4.68s-2.72,6.76-2.72,6.76l14.69.52s2.18-2.6,3.81-7.28,6.53-16.65,9.79-15.1c3.27,1.56,2.18,15.1,2.18,15.1,0,0-2.18,0-.54,2.09s2.72,2.09,5.99,2.09h9.24c1.63,0,3.27,1.04,10.88.52,7.62-.52-.54-4.68,20.67-5.2s23.4-4.16,32.64,0c9.24,4.16,28.83,5.2,28.83,5.2l27.74-2.6,47.56,2.86v263.92c-1336.4,71.76-2682.73,140.49-4019.02,212.17.13-138.42.27-276.83.42-415.26l.09.02h-.07Z"/>
    <path class="cls-12" d="M3927.82,1478.77s-125.5-38.95-151.8-2.15c-26.29,36.8-107.06,40.48-107.06,40.48,0,0-99.55-9.2-112.69-9.2s-114.57,5.52-114.57,5.52l-120.21,58.89s-257.32,1.84-264.83,1.84-103.31,12.88-146.5,20.25c-43.19,7.36-323.06,46-323.06,46,0,0-368.13,11.04-409.45,7.36-41.32-3.68-114.57-1.84-170.92,22.09-56.35,23.93-99.55,23.93-133.35,23.93s-193.45,18.41-193.45,18.41l-116.46,18.41,527.79,58.89s587.89,46,619.82,46,304.27-5.52,338.08,5.52c33.81,11.04,259.2,42.32,317.42,49.68,58.23,7.36,561.25,25.39,561.25,25.39v-437.3h0v-.02h-.01Z"/>
    <path class="cls-11" d="M-94.49,1624.68s87.96,30.21,141.96,31.66c54,1.45,54-20.38,129.27,1.45,75.28,21.83,91.63,23.29,130.91,23.29s90-2.91,114.54-7.28,186.55,8.74,186.55,8.74c0,0,108-20.38,139.09,2.91,31.09,23.29,199.64,39.3,199.64,39.3,0,0,32.72-16.02,119.45-17.47,86.73-1.45,176.73,24.75,198.01,24.75s441.83-116.46,579.28-58.24c137.46,58.24,356.73,49.5,461.46,58.24,104.73,8.74,232.37,29.11,242.19,34.94,9.82,5.83,140.74,5.83,196.37,5.83s209.45-20.38,255.28-20.38,209.45,52.41,287.99,52.41,307.64-2.91,353.45,2.91c45.82,5.83,232.48,32.76,258.55,34.94,25.16,2.11,29.35,4.04,29.35,4.04v147.38l-4017.25-1.92s-6.09-245.43-6.09-367.48v.02-.03h-.01Z"/>
    <path class="cls-1" d="M-92.09,1993.53c.27-49.18-.53-94.75-.27-143.93,26.45,9.23,48.65,7.26,63.53,6.9,11.36-.28,22.09-1.8,41.57-.57,14.4.92,25.95,2.51,32.01,3.89,39.12,8.88,47.62,9.47,68.04,9.47s46.78-1.19,59.54-2.95,96.95,3.56,96.95,3.56c0,0,56.13-8.28,72.28,1.19,16.16,9.47,103.75,15.98,103.75,15.98,0,0,17-6.51,62.09-7.09,45.08-.58,91.84,10.06,102.89,10.06s229.61-47.34,301.05-23.68c71.44,23.68,185.39,20.12,239.83,23.68,54.44,3.56,120.77,11.84,125.87,14.21,5.11,2.37,73.14,2.37,102.05,2.37s108.85-8.28,132.67-8.28c46.93,0,46.12,7.76,149.67,21.3,48.1,6.29,92.6,10.66,111.41,12.49,67.79,6.6,96.04,7.54,141.87,19.05,27.5,6.91,31.06,10.02,58.3,17.93,35.68,10.37,94.06,20.77,162.92,24.04"/>
    <path class="cls-5" d="M3880.58,1043.81c7.63,5.01,38.08,15.01,38.08,15.01.09,12.85.19,25.7.28,38.55-4.94-1.89-12.46-3.98-21.22-3.01-12.27,1.37-16.02,7.55-28.55,11.25-16.48,4.88-18.35-3.35-33.45.75-11.45,3.11-11.89,8.26-41.61,27.77-6.04,3.97-9.06,5.95-10.6,6.76-21.12,11.01-44.42,4.65-74.24-.75-16.28-2.94-45.71-8.28-77.78-9.26-29.93-.92-28.21,3-67.44,3.01-20.66,0-38.79-1.33-75.06-4.01-24.24-1.78-42.85-3.58-57.66-5.01-26.66-2.59-39.99-3.86-55.48-6.01-28.09-3.88-32.61-5.94-59.82-10.01-7.63-1.13-22.58-3.26-63.09-7.01-23.15-2.14-49.69-4.58-88.12-7.01-101.9-6.46-110.81-1.77-134.36-14.03-23.42-12.17-26.2-22.94-52.2-30.03-25.1-6.85-37.44-.92-60.38-12.01-19.1-9.25-32.54-24.04-34.26-22.53-1.45,1.28,8.43,11.75,6.53,13.5-2.07,1.93-12.96-11.22-31.01-13.5-11.99-1.51-15.9,3.19-26.11,0-8.72-2.73-12.22-8.18-17.95-13.5-5.99-5.59-12.53-9.28-45.69-19.53-25.91-8-41.68-11.84-58.77-16.52-34.55-9.46-51.98-14.2-58.73-18.02-8.49-4.75-35.33-19.86-47.34-36.03-1.26-1.69-4.73-6.63-11.41-10.52-7.87-4.57-11.91-2.56-17.95-5.25-9.92-4.43-8.27-13.74-20.14-35.28-4.81-8.76-11.28-18.47-14.79-21.55.29-5.9-.69-13.96-5.86-19.49-2.8-2.97-3.61-1.8-10.89-7-6.61-4.75-11.94-8.56-15.22-15.03-2.95-5.8-3.45-12.07-3.23-15.31-1.79-2.03-4.9-6.19-9.28-11.2-7.2-8.26-8.68-8.22-11.96-12.53-5.54-7.24-4.94-11.88-8.15-21.51-1.93-5.82-8.6-25.75-25.03-35.04-3.21-1.82-9.42-3.08-21.77-5.51-26.75-5.3-32.18-4.77-52.2-9.02-15.43-3.26-16.02-4.4-27.2-6.01-11.78-1.71-20.78-1.86-31.01-1.99-23.98-.35-28.12,1.82-42.98.5-13.72-1.23-22.68-4.2-29.38-6.01-5.38-1.45-13.74-1.97-23.06-2.09,7.3-1.38,15.09-3.69,20.35-7.42,11.96-8.51,22.3-19.51,28.27-20.54,5.99-1,24.48-3.5,32.64-6.01,8.18-2.49,39.18-3,59.3-3s4.9-5.01,26.65-17.02c21.77-12.01,41.89-9.52,41.89-9.52,0,0,16.85-9,19.59-8.49,2.71.5,38.62,12.01,42.44,14.51,3.8,2.51,65.26,32.55,118.58,55.07,53.29,22.53,67.99,10.02,89.2,28.53,21.21,18.51,79.96,43.54,87.03,48.05s64.18,29.53,113.14,46.05c48.96,16.52,62.55,51.06,108.24,69.57,45.71,18.53,63.63,33.04,101.17,45.55,37.54,12.51,215.41,83.61,286.12,97.61,70.7,14.03,126.19,30.03,152.3,30.03s52.23-8,81.61-3c29.36,5.01,33.72,31.02,78.31,20.02,44.6-11.01,51.12-21.01,82.67-22.01,31.55-1.02,80.51,8,88.12,13.01l-.02.04h-.06Z"/>
    <path class="cls-3" d="M3918.98,872.49c-10.34-1.08-19.91-2.69-27.53-4.99-3.76-1.16-27.28-8.8-56.9-19.25-12.72-4.49-20.68-7.44-27.1-9.48-6.44-2.03-11.28-3.13-17.72-3.92-5.19-.61-15.32-1.51-29.45-4.59-7.9-1.73-12.44-2.73-17.49-4.75-14.4-5.84-16.62-13.6-26.46-20.66-9.3-6.7-13.81-4.42-64.37-11.1-17.45-2.32-26.32-3.52-33.81-5.55-4.81-1.3-21.82-6.13-42.72-18.42-24.06-14.14-22.08-19.77-46.27-34.41-15.34-9.28-28.9-14.76-40.58-19.45-24.51-9.89-33.12-10.21-50.38-19.32-12.84-6.81-19.59-12.76-29.71-20.63-48.21-37.38-89.34-54.12-89.24-60.27-9.86-.39-22.76-2.26-34.83-8.09-8.63-4.18-10.58-7.35-15.8-10.64-3.51-2.21-6.52-3.35-8.4-4.04-6.52-2.41-10.21-1.99-20.4-3.13-6.91-.77-4.82-.92-16.32-2.5-12.74-1.75-12.93-1.25-21.09-2.59-13.27-2.17-12.86-3.53-18.25-3.27-10.39.49-11.13,5.5-20.49,5.86-11.15.43-13.2-6.55-22.31-5.01-8.68,1.47-9.43,8.27-18.5,9.01-4.86.4-8.71-1.23-14.14-3.51-9.17-3.85-9.3-6.81-15.77-9.51-12.12-5.07-19.8,1.91-25.03-2.75-6.32-5.63,2.98-17.53-3.27-25.53-4.46-5.74-14.43-6.26-22.07-5.82,12.06-8.75,26.34-16.08,34.32-21.22,8.15-5.25,39.97-15.76,39.97-15.76,0,0,21.23,12.01,44.87,2.25,23.66-9.76,31.01-9.76,51.42-7.5,20.4,2.25,64.44,18.02,72.6,21.01,8.18,3.02,19.59-4.49,33.46,12.78,13.86,17.27,88.92,52.55,109.33,65.31,20.4,12.76,88.92,60.06,113.4,72.07,24.48,12.01,94.64,53.32,114.22,60.82,19.61,7.5,54.66,39.05,91.38,52.55,36.73,13.5,92.2,49.57,115.87,58.56,23.65,9.02,55.46,15.77,55.46,15.77l.04,11.62h0l.02.03h.03Z"/>
    <path class="cls-2" d="M2046.47,858.61l-17.95,9-15.5-.75s-27.75,0-35.9-.75-24.48-3.75-33.45-8.27c-8.99-4.49-29.38-9-41.61-12.01-12.23-3-44.06-4.49-44.06-4.49l-35.09-13.52s-14.68-7.5-20.4-9.75c-5.71-2.26-43.25-10.52-43.25-10.52l-8.15-.75s-26.92-23.27-40.81-25.54c-13.86-2.25-25.3.75-25.3.75l-28.55,3.02s-20.4,1.49-22.85,1.49-6.53,0-13.86-1.49-11.43-2.26-11.43-2.26c0,0-18.76,5.25-26.11,7.52-7.34,2.25-4.9,1.49-20.4,1.49s-17.14.75-17.14.75c0,0-10.41,2.92-20.75,5.8,5.89-4.79,11.39-8.82,16.12-10.81,11.96-5.01,37.54-23.03,42.98-23.03s19.04,4.51,24.48,5.01c5.44.5,23.4,1,27.74-1.49,4.35-2.51,20.68-14.03,29.38-16.52,8.7-2.49,35.9-3.02,41.35-2.49,5.44.5,78.31,14,95.18,23.52,16.87,9.5,28.84,11.51,44.06,17.52,15.22,6.01,34.83,11.51,50.05,14,.63.09,1.28.19,1.93.29,5.44,5.07,10.48,10,13.83,13.74,11.43,12.76,22.85,11.27,26.13,13.5,3.26,2.25,12.23,7.5,14.68,8.26,2.44.75,26.11,9.02,44.06,14.27s14.68,2.25,21.21,2.25,29.38,2.26,29.38,2.26h-.01Z"/>
    <path class="cls-1" d="M512.7,1879.83l-23.15,5.72,2.57-14.86-14.15-10.28-1.29-9.15,11.57-3.42s-1.29-12.58-1.29-16.01,6.44-16.01,6.44-16.01l2.57-12.58,10.29-11.43,6.11-7.43s-.32-2.86-.32-4.01-.32-3.72,1.29-4c1.61-.29,3.21-.86,3.21-.86l-1.92-4.87s.63-2.28,1.92-2.86,5.79-5.72,5.79-6.58,1.61-3.72,1.61-3.72l3.53-7.15,5.14-3.72,3.53-11.43,2.25,6.86.32,7.15,3.53,4.58,7.71,4.58s-1.29,3.14-1.29,4.01-1.29,3.72-1.29,3.72c0,0,4.82,2,5.14,3.14.32,1.14.97,8,.97,8,0,0-2.89,2.86-2.89,3.72s2.25,4.58,2.57,6,3.86,3.14,3.21,5.43c-.63,2.28,4.49,8.58,4.49,8.58l-5.14,4.28s2.57,3.14,3.53,3.72c.97.57,2.89,2.58,2.89,2.58l3.53,1.72-.63,4.58-.32,6.58-2.25,3.14s3.21,1.72,4.17,3.42,1.92,8,1.61,8.86c-.32.86-2.57,2.28-2.57,2.28l3.21,4.01.63,4.87s.32,2-.32,2.86c-.63.86-3.53,1.42-3.53,2.86s7.4,4.87,7.4,4.87l-.63,4.87s.63,3.14.63,4.28-11.57,3.72-11.57,3.72l.63,4.28s-2.89,1.14-3.86,1.42c-.97.29-14.78.57-14.78,1.42s-1.29,4.28-1.29,4.28l-14.46-.86-15.11-5.14h.02l.03-.02h0Z"/>
    <path class="cls-11" d="M1048.35,1704.77l-11.88,3.31,1.32-8.6-7.27-5.96-.65-5.3,5.94-1.98s-.65-7.28-.65-9.26,3.3-9.26,3.3-9.26l1.32-7.28,5.27-6.61,3.15-4.3s-.17-1.66-.17-2.32-.17-2.15.65-2.32c.82-.16,1.65-.5,1.65-.5l-1-2.81s.33-1.32,1-1.66,2.98-3.31,2.98-3.8.82-2.15.82-2.15l1.81-4.14,2.64-2.15,1.81-6.61,1.15,3.97.17,4.14,1.81,2.65,3.96,2.65s-.65,1.82-.65,2.32-.65,2.15-.65,2.15c0,0,2.47,1.16,2.64,1.82s.49,4.63.49,4.63c0,0-1.48,1.66-1.48,2.15s1.15,2.65,1.32,3.48,1.97,1.82,1.65,3.14,2.31,4.96,2.31,4.96l-2.64,2.48s1.32,1.82,1.81,2.15,1.48,1.49,1.48,1.49l1.81.99-.33,2.65-.17,3.8-1.15,1.82s1.65.99,2.15,1.98c.49.99,1,4.63.82,5.13-.17.5-1.32,1.32-1.32,1.32l1.65,2.32.33,2.81s.17,1.16-.17,1.66-1.81.83-1.81,1.66,3.8,2.81,3.8,2.81l-.33,2.81s.33,1.82.33,2.48-5.94,2.15-5.94,2.15l.33,2.48s-1.48.66-1.97.83-7.59.33-7.59.83-.65,2.48-.65,2.48l-7.42-.5-7.75-2.97h-.02.02Z"/>
    <path class="cls-11" d="M1579.62,1679.1l-15.64,3.92,1.73-10.17-9.55-7.04-.86-6.26,7.82-2.35s-.86-8.6-.86-10.95,4.34-10.95,4.34-10.95l1.73-8.6,6.96-7.82,4.12-5.09s-.22-1.95-.22-2.74-.22-2.55.86-2.74,2.17-.58,2.17-.58l-1.3-3.32s.44-1.56,1.3-1.95,3.9-3.92,3.9-4.5,1.09-2.55,1.09-2.55l2.39-4.9,3.48-2.55,2.39-7.82,1.53,4.69.22,4.9,2.39,3.13,5.21,3.13s-.86,2.15-.86,2.74-.86,2.55-.86,2.55c0,0,3.26,1.37,3.48,2.15s.64,5.47.64,5.47c0,0-1.95,1.95-1.95,2.55s1.53,3.13,1.73,4.1c.22.98,2.61,2.15,2.17,3.72-.44,1.56,3.03,5.87,3.03,5.87l-3.48,2.93s1.73,2.15,2.39,2.55,1.95,1.76,1.95,1.76l2.39,1.18-.44,3.13-.22,4.5-1.53,2.15s2.17,1.18,2.82,2.35c.64,1.18,1.3,5.47,1.09,6.06-.22.58-1.73,1.56-1.73,1.56l2.17,2.74.44,3.32s.22,1.37-.22,1.95-2.39.98-2.39,1.95,4.98,3.32,4.98,3.32l-.44,3.32s.44,2.15.44,2.93-7.82,2.55-7.82,2.55l.44,2.93s-1.95.78-2.61.98c-.64.19-9.99.4-9.99.98s-.86,2.93-.86,2.93l-9.77-.58-10.2-3.52h.05-.04Z"/>
    <path class="cls-11" d="M1621.47,1675.81l-9.5,2.4,1.06-6.25-5.81-4.32-.52-3.84,4.75-1.44s-.52-5.27-.52-6.73,2.64-6.73,2.64-6.73l1.06-5.27,4.22-4.79,2.5-3.12s-.13-1.21-.13-1.68-.13-1.56.52-1.68,1.32-.36,1.32-.36l-.8-2.04s.27-.96.8-1.21c.52-.25,2.38-2.4,2.38-2.76s.65-1.56.65-1.56l1.45-3.01,2.11-1.56,1.45-4.79.92,2.88.13,3.01,1.45,1.92,3.17,1.92s-.52,1.32-.52,1.68-.52,1.56-.52,1.56c0,0,1.97.84,2.11,1.32s.4,3.36.4,3.36c0,0-1.17,1.21-1.17,1.56s.92,1.92,1.06,2.52c.13.59,1.58,1.32,1.32,2.28s1.85,3.6,1.85,3.6l-2.11,1.8s1.06,1.32,1.45,1.56,1.17,1.08,1.17,1.08l1.45.73-.27,1.92-.13,2.76-.92,1.32s1.32.73,1.72,1.44.8,3.36.65,3.72-1.06.96-1.06.96l1.32,1.68.27,2.04s.13.84-.13,1.21c-.27.36-1.45.59-1.45,1.21s3.03,2.04,3.03,2.04l-.27,2.04s.27,1.32.27,1.8-4.75,1.56-4.75,1.56l.27,1.8s-1.17.48-1.58.59-6.07.25-6.07.59-.52,1.8-.52,1.8l-5.93-.36-6.2-2.16h-.02v-.03h-.03Z"/>
    <path class="cls-11" d="M1541.55,1682l-10.45,3.69.38-6.89-7.14-4.03-1.09-4.1,5.2-2.1s-1.28-5.66-1.46-7.23,2.12-7.6,2.12-7.6l.51-5.85,4.16-5.69,2.44-3.67s-.3-1.29-.36-1.81c-.06-.52-.35-1.68.37-1.88s1.44-.54,1.44-.54l-1.16-2.12s.18-1.07.75-1.39c.57-.32,2.39-2.87,2.34-3.26-.04-.4.54-1.76.54-1.76l1.26-3.42,2.19-1.93,1.02-5.38,1.42,3.02.53,3.24,1.9,1.92,3.84,1.73s-.44,1.49-.37,1.88-.4,1.75-.4,1.75c0,0,2.36.68,2.56,1.2.21.5.88,3.6.88,3.6,0,0-1.18,1.43-1.14,1.83s1.3,1.97,1.53,2.61,1.96,1.25,1.79,2.32,2.55,3.69,2.55,3.69l-2.16,2.2s1.37,1.31,1.85,1.52,1.48,1.04,1.48,1.04l1.73.61-.05,2.11.21,3.01-.88,1.54s1.59.62,2.12,1.37c.54.74,1.33,3.56,1.22,3.96s-1.07,1.17-1.07,1.17l1.72,1.68.57,2.19s.27.9,0,1.32c-.26.42-1.57.82-1.48,1.46.07.65,3.71,1.87,3.71,1.87l-.03,2.25s.47,1.4.53,1.92-5.18,2.24-5.18,2.24l.53,1.92s-1.29.65-1.72.83-6.84.95-6.8,1.35-.36,2.01-.36,2.01l-6.78.29-7.31-1.64v-.04h.03Z"/>
    <path class="cls-1" d="M12.25,1860.09l-17.98,5.6,1-11.49-11.95-7.09-1.67-6.92,8.95-3.25s-1.9-9.54-2.15-12.15,3.99-12.57,3.99-12.57l1.16-9.75,7.36-9.28,4.33-6s-.46-2.17-.53-3.05-.51-2.82.75-3.12,2.49-.83,2.49-.83l-1.88-3.61s.34-1.78,1.33-2.28,4.19-4.68,4.13-5.34,1.01-2.92,1.01-2.92l2.31-5.64,3.83-3.11,2.01-8.92,2.26,5.11.76,5.44,3.13,3.3,6.45,3.09s-.81,2.46-.75,3.12-.77,2.91-.77,2.91c0,0,3.97,1.27,4.3,2.13s1.33,6.06,1.33,6.06c0,0-2.09,2.34-2.04,3,.06.65,2.1,3.37,2.45,4.45s3.29,2.2,2.93,3.98,4.17,6.31,4.17,6.31l-3.79,3.56s2.26,2.26,3.06,2.65,2.48,1.81,2.48,1.81l2.93,1.11-.19,3.53.21,5.04-1.57,2.52s2.67,1.13,3.55,2.4c.89,1.26,2.09,6.01,1.9,6.69s-1.89,1.89-1.89,1.89l2.83,2.88.84,3.68s.4,1.51-.05,2.2c-.46.7-2.71,1.28-2.61,2.37.1,1.08,6.22,3.31,6.22,3.31l-.17,3.75s.74,2.37.81,3.24c.09.88-8.93,3.46-8.93,3.46l.81,3.24s-2.22,1.03-2.97,1.3-11.71,1.24-11.65,1.89-.73,3.34-.73,3.34l-11.55.12-12.36-3.12h0l.04-.02h.05Z"/>
    <path class="cls-11" d="M15.68,1665.21l-13.01,4.58.67-9.52-8.69-5.92-1.24-5.74,6.47-2.65s-1.41-7.91-1.6-10.08,2.83-10.41,2.83-10.41l.81-8.08,5.29-7.67,3.11-4.96s-.33-1.79-.4-2.52c-.06-.73-.38-2.34.52-2.59s1.8-.67,1.8-.67l-1.37-3s.26-1.47.96-1.89c.71-.42,3.02-3.86,2.98-4.41s.73-2.42.73-2.42l1.65-4.67,2.76-2.57,1.41-7.39,1.67,4.25.57,4.51,2.27,2.75,4.69,2.58s-.57,2.04-.52,2.59-.54,2.41-.54,2.41c0,0,2.88,1.07,3.13,1.77s.99,5.03.99,5.03c0,0-1.52,1.92-1.46,2.47.04.54,1.55,2.8,1.8,3.69.27.9,2.39,1.83,2.15,3.3-.26,1.47,3.05,5.24,3.05,5.24l-2.73,2.92s1.65,1.89,2.23,2.21c.59.32,1.8,1.51,1.8,1.51l2.12.93-.12,2.92.17,4.17-1.12,2.09s1.94.95,2.58,1.99,1.55,4.99,1.4,5.54c-.13.56-1.36,1.55-1.36,1.55l2.07,2.4.63,3.06s.29,1.25-.03,1.82-1.95,1.05-1.89,1.95c.07.91,4.51,2.76,4.51,2.76l-.1,3.1s.54,1.96.6,2.69c.06.73-6.46,2.83-6.46,2.83l.6,2.69s-1.6.85-2.15,1.07c-.54.22-8.47.97-8.43,1.52.04.54-.51,2.76-.51,2.76l-8.37.06-8.98-2.63.05.05h-.03.03Z"/>
    <path class="cls-1" d="M1695.08,1928.71l-8.87,3.05.38-5.83-6-3.46-.89-3.49,4.41-1.75s-1.04-4.8-1.17-6.13c-.15-1.32,1.87-6.42,1.87-6.42l.48-4.95,3.56-4.78,2.09-3.09s-.26-1.08-.29-1.53c-.05-.44-.28-1.42.33-1.58s1.22-.44,1.22-.44l-.97-1.81s.16-.91.63-1.18,2.04-2.42,2-2.75c-.03-.33.48-1.49.48-1.49l1.09-2.89,1.88-1.62.91-4.55,1.17,2.58.44,2.75,1.58,1.64,3.22,1.48s-.37,1.26-.33,1.58c.03.33-.34,1.48-.34,1.48,0,0,1.97.59,2.16,1.03s.71,3.06.71,3.06c0,0-1.01,1.21-.99,1.54.03.33,1.08,1.69,1.27,2.23s1.65,1.08,1.49,1.98c-.16.91,2.13,3.15,2.13,3.15l-1.85,1.84s1.14,1.11,1.55,1.31c.42.18,1.25.89,1.25.89l1.46.53-.06,1.79.15,2.56-.76,1.29s1.34.55,1.79,1.18c.46.62,1.1,3.03,1,3.36-.09.35-.92.97-.92.97l1.43,1.42.46,1.85s.21.76,0,1.11c-.22.36-1.33.68-1.28,1.24s3.11,1.6,3.11,1.6l-.05,1.9s.38,1.2.44,1.63c.05.44-4.4,1.85-4.4,1.85l.44,1.63s-1.09.55-1.45.7-5.8.75-5.75,1.08c.03.33-.32,1.71-.32,1.71l-5.72.19-6.17-1.44v.02l.02-.02Z"/>
    <path class="cls-11" d="M3748.75,1830.89l-21.57,3.28,2.81-10.38-12.78-7.7-.92-6.47,10.8-2.04s-.82-8.89-.74-11.3,6.4-11.06,6.4-11.06l2.74-8.76,9.84-7.72,5.86-5.03s-.22-2.02-.18-2.82c.03-.81-.19-2.62,1.31-2.77s2.99-.5,2.99-.5l-1.64-3.48s.65-1.58,1.87-1.94,5.52-3.83,5.53-4.44,1.59-2.57,1.59-2.57l3.48-4.92,4.87-2.44,3.6-7.92,1.89,4.9.09,5.04,3.15,3.33,7,3.47s-1.28,2.17-1.31,2.77c-.02.6-1.3,2.58-1.3,2.58,0,0,4.41,1.56,4.66,2.38s.65,5.66.65,5.66c0,0-2.75,1.92-2.79,2.52-.02.6,1.94,3.28,2.21,4.3.26,1.01,3.48,2.33,2.81,3.92s3.91,6.17,3.91,6.17l-4.88,2.85s2.28,2.29,3.17,2.73c.88.43,2.61,1.91,2.61,1.91l3.22,1.32-.73,3.2-.48,4.61-2.17,2.14s2.92,1.31,3.77,2.55c.83,1.24,1.55,5.69,1.24,6.28-.32.59-2.44,1.52-2.44,1.52l2.85,2.92.46,3.43s.25,1.42-.37,2-3.31.9-3.35,1.9,6.7,3.65,6.7,3.65l-.74,3.4s.5,2.24.47,3.04c-.03.81-10.81,2.25-10.81,2.25l.47,3.04s-2.71.72-3.61.89-13.68-.07-13.7.53-1.31,2.97-1.31,2.97l-13.35-1.07-13.83-4.1h-.02v-.04h0Z"/>
    <path class="cls-12" d="M2274.65,1647.85l-8.07,2.1.54-3.77-5.26-2.14-.67-2.24,4.02-1.2s-.77-3.09-.84-3.94c-.09-.86,1.9-4.17,1.9-4.17l.61-3.21,3.36-3.15,1.99-2.03s-.19-.71-.21-.98-.21-.92.35-1.03,1.12-.31,1.12-.31l-.81-1.16s.17-.58.62-.77c.45-.18,1.91-1.58,1.9-1.8s.48-.97.48-.97l1.08-1.88,1.73-1.08.98-2.94.97,1.64.29,1.77,1.36,1.03,2.84.92s-.37.82-.35,1.03-.36.96-.36.96c0,0,1.75.36,1.9.62.15.28.53,1.96.53,1.96,0,0-.95.8-.93,1.01s.91,1.07,1.06,1.42,1.44.66,1.28,1.25,1.8,2,1.8,2l-1.72,1.22s.99.71,1.34.82,1.09.56,1.09.56l1.3.32-.11,1.16.04,1.65-.73.85s1.17.33,1.57.74c.38.4.88,1.93.79,2.16s-.85.64-.85.64l1.24.9.34,1.2s.17.49-.04.73-1.21.46-1.17.82,2.74.99,2.74.99l-.1,1.23s.3.76.33,1.05-4.01,1.26-4.01,1.26l.33,1.05s-1,.37-1.33.47c-.33.09-5.23.58-5.21.79s-.35,1.1-.35,1.1l-5.15.21-5.49-.84h-.03Z"/>
    <path class="cls-12" d="M3551.13,1506.31l-8.2,2.95.22-5.12-5.68-2.84-.91-3.03,4.08-1.67s-1.08-4.18-1.25-5.34,1.58-5.68,1.58-5.68l.33-4.35,3.21-4.31,1.88-2.77s-.26-.95-.31-1.34-.29-1.25.27-1.41c.58-.16,1.13-.43,1.13-.43l-.94-1.55s.12-.8.57-1.05,1.85-2.19,1.8-2.47c-.04-.29.42-1.32.42-1.32l.95-2.57,1.71-1.48.75-4.02,1.15,2.22.46,2.4,1.53,1.39,3.04,1.2s-.31,1.11-.27,1.41-.29,1.31-.29,1.31c0,0,1.87.46,2.03.83s.75,2.66.75,2.66c0,0-.92,1.08-.88,1.38.04.29,1.05,1.44,1.24,1.91s1.56.89,1.43,1.69,2.07,2.69,2.07,2.69l-1.68,1.68s1.09.94,1.47,1.09c.37.15,1.17.75,1.17.75l1.38.42v1.57l.19,2.24-.66,1.16s1.26.43,1.7.97c.45.54,1.09,2.61,1.01,2.92-.07.31-.82.89-.82.89l1.37,1.21.47,1.6s.21.66.02.98c-.2.32-1.22.63-1.15,1.11.07.48,2.95,1.31,2.95,1.31v1.67s.38,1.03.45,1.42c.05.39-4.06,1.76-4.06,1.76l.45,1.42s-1,.51-1.34.65c-.33.13-5.38.85-5.35,1.13.04.29-.27,1.5-.27,1.5l-5.35.36-5.77-1.06h-.02v-.03h0Z"/>
    <path class="cls-11" d="M3225.54,1806.25l-10.42,3.67,1.57-10.42-5.97-7.45-.3-6.45,5.22-2.24s-.21-8.87-.1-11.28,3.31-11.16,3.31-11.16l1.49-8.8,4.89-7.89,2.92-5.13s-.06-2.01-.03-2.82c.03-.8-.03-2.62.67-2.79.73-.17,1.44-.55,1.44-.55l-.71-3.44s.34-1.59.93-1.98,2.73-3.93,2.75-4.54c.02-.6.81-2.59.81-2.59l1.76-4.97,2.39-2.54,1.9-7.98.8,4.87-.06,5.03,1.43,3.27,3.29,3.33s-.65,2.2-.67,2.79c-.02.6-.67,2.59-.67,2.59,0,0,2.09,1.48,2.19,2.29s.2,5.64.2,5.64c0,0-1.36,1.96-1.39,2.58-.02.6.86,3.25.97,4.25.1,1.01,1.62,2.27,1.27,3.87-.34,1.59,1.74,6.09,1.74,6.09l-2.4,2.93s1.05,2.25,1.45,2.67,1.2,1.85,1.2,1.85l1.53,1.26-.43,3.21-.33,4.62-1.09,2.18s1.37,1.25,1.74,2.47c.37,1.23.63,5.66.46,6.26-.17.59-1.2,1.57-1.2,1.57l1.31,2.86.15,3.42s.09,1.42-.22,2-1.61.95-1.64,1.95c-.04,1,3.15,3.54,3.15,3.54l-.44,3.41s.2,2.23.16,3.03c-.03.81-5.23,2.43-5.23,2.43l.16,3.03s-1.32.76-1.74.94-6.56.17-6.6.78c-.02.6-.69,3-.69,3l-6.38-.83-6.54-3.85h.02v.02h0Z"/>
    <path class="cls-12" d="M3028.84,1574.43l-9.87,2.64,1.48-7.49-5.66-5.37-.29-4.64,4.95-1.6s-.2-6.39-.1-8.12c.09-1.74,3.13-8.03,3.13-8.03l1.42-6.34,4.62-5.67,2.76-3.7s-.05-1.45-.02-2.03-.03-1.89.64-2.01,1.37-.4,1.37-.4l-.67-2.48s.33-1.14.89-1.42,2.58-2.83,2.61-3.26c.02-.43.78-1.87.78-1.87l1.68-3.59,2.26-1.82,1.8-5.76.76,3.5-.06,3.62,1.36,2.35,3.11,2.4s-.63,1.58-.64,2.01-.63,1.87-.63,1.87c0,0,1.96,1.07,2.08,1.65s.19,4.07.19,4.07c0,0-1.29,1.42-1.32,1.85-.02.43.81,2.34.91,3.08.09.74,1.54,1.64,1.2,2.78s1.65,4.4,1.65,4.4l-2.26,2.12s1,1.62,1.38,1.92,1.14,1.34,1.14,1.34l1.43.91-.4,2.31-.31,3.32-1.02,1.57s1.3.91,1.67,1.78.59,4.08.44,4.51c-.16.43-1.14,1.12-1.14,1.12l1.24,2.06.13,2.46s.09,1.02-.21,1.44-1.53.68-1.56,1.41,2.98,2.55,2.98,2.55l-.4,2.45s.19,1.59.16,2.18-4.96,1.75-4.96,1.75l.16,2.18s-1.25.55-1.65.68-6.22.12-6.25.56c-.02.43-.65,2.16-.65,2.16l-6.05-.59-6.2-2.77h0v-.02h-.04Z"/>
    <path class="cls-12" d="M3078.01,1574.33l-7.84,1.62,1.22-4.92-4.45-3.59-.2-3.06,3.93-1s-.11-4.19-.03-5.34,2.53-5.24,2.53-5.24l1.16-4.15,3.71-3.68,2.22-2.4s-.04-.95,0-1.33-.02-1.25.52-1.31c.54-.08,1.09-.25,1.09-.25l-.52-1.64s.27-.75.71-.92,2.07-1.83,2.09-2.12.63-1.22.63-1.22l1.36-2.33,1.8-1.18,1.45-3.75.58,2.3-.07,2.38,1.07,1.56,2.45,1.6s-.5,1.03-.52,1.31-.52,1.23-.52,1.23c0,0,1.56.73,1.63,1.1s.12,2.67.12,2.67c0,0-1.04.92-1.06,1.21s.63,1.55.71,2.02,1.2,1.08.93,1.84,1.29,2.9,1.29,2.9l-1.82,1.36s.78,1.08,1.09,1.28c.3.2.9.89.9.89l1.13.61-.32,1.51-.27,2.18-.82,1.02s1.02.6,1.31,1.2c.28.58.46,2.68.31,2.96s-.91.74-.91.74l.98,1.37.09,1.62s.06.66-.18.94-1.21.43-1.25.91,2.35,1.71,2.35,1.71l-.33,1.6s.13,1.05.1,1.43-3.94,1.09-3.94,1.09l.1,1.43s-1,.35-1.32.42c-.32.08-4.93,0-4.95.3s-.53,1.41-.53,1.41l-4.8-.46-4.9-1.89v.03h-.03Z"/>
    <path class="cls-12" d="M2990.69,1581.63l-5.68,2.02-.2-3.27-4.27-1.72-.86-1.92,2.81-1.13s-1.07-2.66-1.27-3.39.74-3.66.74-3.66l-.06-2.78,2-2.81,1.15-1.8s-.26-.6-.31-.85-.3-.79.1-.91c.4-.11.79-.3.79-.3l-.79-.97s.03-.51.33-.68c.3-.16,1.17-1.42,1.12-1.6-.05-.18.2-.86.2-.86l.5-1.66,1.12-.97.26-2.58.99,1.4.5,1.52,1.17.86,2.26.72s-.15.73-.1.91-.11.84-.11.84c0,0,1.37.26,1.53.5.15.24.73,1.69.73,1.69,0,0-.59.72-.53.9s.84.91,1.01,1.2c.17.3,1.17.54,1.15,1.05-.03.51,1.68,1.69,1.68,1.69l-1.09,1.09s.84.58,1.13.67.9.45.9.45l1.01.25.1,1,.3,1.42-.4.75s.93.26,1.29.58c.34.34.98,1.65.93,1.85-.03.19-.53.58-.53.58l1.07.75.46,1.02s.2.42.09.62-.83.43-.76.74,2.21.79,2.21.79l.11,1.07s.35.65.43.9c.06.25-2.79,1.2-2.79,1.2l.43.9s-.67.35-.92.44-3.81.63-3.76.82-.09.96-.09.96l-3.81.32-4.24-.58h-.03Z"/>
    <path class="cls-11" d="M2461.81,1749.43l-6.16,1.46.85-4.33-3.59-3.15-.23-2.7,3.08-.91s-.19-3.7-.15-4.71c.04-1,1.89-4.63,1.89-4.63l.82-3.67,2.83-3.25,1.7-2.13s-.05-.84-.03-1.18c0-.34-.04-1.08.38-1.17.44-.07.85-.22.85-.22l-.46-1.44s.2-.66.54-.82,1.59-1.63,1.6-1.88c0-.25.47-1.08.47-1.08l1.01-2.06,1.39-1.04,1.07-3.32.51,2.03v2.1l.86,1.38,1.97,1.42s-.37.92-.38,1.17c0,.25-.38,1.08-.38,1.08,0,0,1.25.62,1.32.97.07.34.16,2.36.16,2.36,0,0-.8.81-.81,1.06s.53,1.36.61,1.78c.06.42.98.95.79,1.62-.2.66,1.08,2.56,1.08,2.56l-1.4,1.22s.63.94.89,1.11.74.78.74.78l.91.54-.22,1.34-.17,1.92-.63.91s.82.53,1.06,1.04.42,2.37.31,2.61-.7.64-.7.64l.8,1.21.11,1.43s.06.58-.11.84c-.18.25-.94.39-.97.81s1.89,1.49,1.89,1.49l-.23,1.42s.13.92.11,1.26c0,.34-3.08.98-3.08.98l.11,1.26s-.78.31-1.04.39-3.9.03-3.9.29-.38,1.25-.38,1.25l-3.79-.39-3.91-1.65h-.03l.03.02h-.01Z"/>
    <path class="cls-12" d="M2543.11,1640.3l-3.78.95.53-2.79-2.21-2.02-.13-1.74,1.9-.58s-.11-2.38-.09-3.04c.03-.64,1.16-2.98,1.16-2.98l.51-2.36,1.74-2.1,1.05-1.37s-.03-.54-.02-.76-.02-.71.25-.75.52-.14.52-.14l-.27-.92s.12-.42.33-.53.99-1.05.99-1.22.29-.7.29-.7l.63-1.33.85-.67.65-2.14.31,1.31v1.35l.53.89,1.21.91s-.23.58-.25.75c0,.16-.25.7-.25.7,0,0,.77.41.81.62s.09,1.51.09,1.51c0,0-.49.52-.49.68s.32.88.36,1.14.6.61.48,1.04c-.12.42.65,1.65.65,1.65l-.86.78s.38.6.54.73.46.5.46.5l.56.35-.13.86-.1,1.25-.38.58s.5.34.64.67c.15.33.26,1.52.19,1.69s-.44.42-.44.42l.49.77.06.92s.03.38-.07.54-.59.25-.6.52,1.15.96,1.15.96l-.15.92s.09.59.07.81c0,.21-1.9.63-1.9.63l.07.81s-.47.2-.63.25c-.16.05-2.4.03-2.4.18,0,.16-.25.8-.25.8l-2.34-.25-2.4-1.06v.02h.05Z"/>
    <path class="cls-12" d="M2301.48,1647.69l-2.84,1.14.09-2.38-1.95-1.47-.3-1.43,1.41-.66s-.35-1.97-.42-2.51.57-2.6.57-2.6l.13-2.01,1.13-1.92.65-1.25s-.09-.45-.1-.62-.09-.58.1-.64c.2-.06.4-.17.4-.17l-.32-.75s.04-.37.2-.47.64-.96.63-1.09.15-.6.15-.6l.33-1.17.6-.64.27-1.84.38,1.06.15,1.12.52.68,1.05.64s-.11.51-.1.64-.1.59-.1.59c0,0,.63.27.7.44s.26,1.25.26,1.25c0,0-.32.48-.31.61s.35.71.43.92c.06.22.53.45.49.83-.04.37.7,1.31.7,1.31l-.59.74s.37.47.5.55.42.38.42.38l.47.24v.74l.05,1.04-.25.52s.45.25.59.5.36,1.25.34,1.39c-.03.13-.29.39-.29.39l.47.59.16.76s.07.31,0,.45-.44.26-.42.49c.02.22,1.01.7,1.01.7v.77s.12.49.15.67c.02.18-1.41.72-1.41.72l.15.67s-.34.21-.47.27c-.11.06-1.88.25-1.86.39s-.09.7-.09.7l-1.86.02-2-.65h.03v-.02h.03Z"/>
    <path class="cls-11" d="M2775.66,1770.91l-12.24,3.42c-.73.2-1.42-.35-1.34-1.03l.54-4.29c.05-.43-.21-.84-.64-1l-8.07-3.03c-.29-.1-.51-.34-.61-.6l-.82-2.47c-.17-.5.12-1.02.65-1.2l5.11-1.6c.51-.16.81-.65.67-1.13-.43-1.55-1.27-4.77-1.39-5.87-.16-1.33,2.56-6.2,3.05-7.08.05-.09.09-.19.1-.29l.85-5.06c.03-.19.12-.38.28-.52l5.53-5.3,3.02-3.17c.23-.25.31-.56.23-.86-.1-.39-.25-.92-.27-1.21-.06-.48-.38-1.56.59-1.78.2-.05.4-.09.59-.14.67-.18.98-.92.58-1.46l-.35-.48c-.21-.28-.26-.65-.09-.95s.44-.63.81-.8c.77-.33,3.28-2.8,3.23-3.17-.04-.34.67-1.49.79-1.67,0-.02.02-.03.03-.05l1.68-3.03c.07-.14.19-.26.33-.36l2.45-1.58c.2-.12.34-.31.42-.52l.81-2.59c.26-.82,1.44-.95,1.9-.21l.43.67c.06.09.1.2.12.32l.47,2.47c.04.25.19.45.38.59l1.95,1.39c.09.07.21.12.32.15l3.78,1.09c.56.16.85.72.67,1.23-.12.35-.23.71-.21.87.02.13-.06.39-.16.65-.2.54.15,1.1.75,1.25.9.2,2.01.5,2.16.77.19.34.63,1.94.86,2.8.09.33-.02.67-.27.91-.48.44-1.2,1.14-1.17,1.39.04.37,1.62,1.8,1.9,2.39.27.58,2.54,1.08,2.26,2.1-.18.65,1.2,1.85,2.21,2.62.51.4.49,1.1-.02,1.49l-.81.58c-.56.41-.52,1.21.07,1.56.46.27.92.53,1.19.6.5.14,1.44.64,1.79.84.09.05.18.08.28.1l1.26.28c.5.1.83.54.8,1l-.09,1.11v.11l.12,2.41c0,.22-.06.45-.21.62l-.11.14c-.43.5-.2,1.24.45,1.47.56.2,1.14.48,1.44.78.67.66,1.61,3.27,1.45,3.66-.04.11-.2.26-.38.42-.5.41-.49,1.12.04,1.49l.79.54c.18.12.31.3.37.5l.56,1.72s.3.83-.05,1.24-2.1.84-2.03,1.44c.05.44,2.63,1.08,3.98,1.41.49.11.81.53.79.99l-.07,1.08c0,.13,0,.27.06.41.16.38.49,1.23.53,1.58s-3.99,1.51-5.93,2.04c-.57.15-.88.71-.69,1.22h0c.17.48-.09.99-.6,1.19s-1.12.42-1.42.51c-.58.18-9.09,1.19-9.05,1.55.02.21-.17.81-.33,1.28-.13.38-.5.63-.92.66l-8.18.51h-.21l-9.26-1.18c-.15-.02-.3,0-.46.03h-.05.02Z"/>
    <path class="cls-11" d="M3024.96,1754.28l-6.08.7.81-2.48-3.6-1.91-.26-1.56,3.04-.44s-.22-2.14-.19-2.72,1.82-2.63,1.82-2.63l.79-2.09,2.79-1.81,1.67-1.19s-.06-.49-.05-.68-.05-.63.37-.66.84-.1.84-.1l-.46-.85s.19-.38.53-.46,1.56-.9,1.57-1.04c0-.14.46-.6.46-.6l.99-1.17,1.37-.57,1.02-1.89.52,1.19.02,1.22.88.82,1.96.87s-.36.52-.37.66c0,.14-.36.61-.36.61,0,0,1.24.4,1.31.58s.18,1.37.18,1.37c0,0-.79.45-.79.59s.54.8.62,1.04.98.58.79.95,1.1,1.5,1.1,1.5l-1.38.66s.63.56.89.67c.26.1.74.47.74.47l.91.33-.21.76-.15,1.1-.62.5s.82.33,1.06.62c.25.3.44,1.38.33,1.51s-.69.36-.69.36l.81.72.12.83s.06.34-.1.48c-.18.13-.93.2-.95.44,0,.25,1.89.91,1.89.91l-.21.81s.13.54.12.74c0,.19-3.05.49-3.05.49l.12.74s-.77.15-1.01.19c-.26.04-3.86-.08-3.87.07,0,.14-.37.72-.37.72l-3.77-.32-3.9-1.05h.03-.03Z"/>
    <path class="cls-1" d="M268.25,1867.59l-8.94,1.97,1-5.13-5.46-3.56-.49-3.16,4.46-1.19s-.49-4.34-.49-5.53,2.48-5.53,2.48-5.53l1-4.34,3.97-3.95,2.36-2.58s-.12-.99-.12-1.39-.12-1.28.49-1.39c.62-.09,1.25-.3,1.25-.3l-.75-1.68s.26-.79.75-.99,2.23-1.97,2.23-2.27.62-1.28.62-1.28l1.36-2.46,1.99-1.28,1.36-3.95.86,2.37.12,2.46,1.36,1.58,2.99,1.58s-.49,1.08-.49,1.39-.49,1.28-.49,1.28c0,0,1.87.7,1.99,1.08s.37,2.76.37,2.76c0,0-1.12.99-1.12,1.28s.86,1.58,1,2.08,1.48,1.08,1.25,1.88,1.73,2.96,1.73,2.96l-1.99,1.48s1,1.08,1.36,1.28c.37.2,1.12.89,1.12.89l1.36.59-.26,1.58-.12,2.27-.86,1.08s1.25.59,1.61,1.19c.37.59.75,2.76.62,3.07s-1,.79-1,.79l1.25,1.39.26,1.68s.12.7-.12.99-1.36.49-1.36.99,2.85,1.68,2.85,1.68l-.26,1.68s.26,1.08.26,1.48-4.46,1.28-4.46,1.28l.26,1.48s-1.12.4-1.48.49c-.37.09-5.71.2-5.71.49s-.49,1.48-.49,1.48l-5.58-.3-5.83-1.78h-.05Z"/>
    <path class="cls-11" d="M51.82,1665.42l-7.99,2.52.89-6.56-4.89-4.55-.45-4.04,4-1.51s-.45-5.56-.45-7.07,2.22-7.07,2.22-7.07l.89-5.56,3.55-5.05,2.11-3.28s-.11-1.26-.11-1.76-.11-1.64.45-1.76,1.11-.38,1.11-.38l-.66-2.15s.22-1.01.66-1.26,2-2.52,2-2.9.56-1.64.56-1.64l1.22-3.16,1.78-1.64,1.22-5.05.78,3.03.11,3.16,1.22,2.02,2.67,2.02s-.45,1.39-.45,1.76-.45,1.64-.45,1.64c0,0,1.67.89,1.78,1.39s.33,3.54.33,3.54c0,0-1,1.26-1,1.64s.78,2.02.89,2.65c.11.62,1.33,1.39,1.11,2.4s1.56,3.78,1.56,3.78l-1.78,1.9s.89,1.39,1.22,1.64,1,1.13,1,1.13l1.22.76-.22,2.02-.11,2.9-.78,1.39s1.11.76,1.44,1.51.66,3.54.56,3.92-.89,1.01-.89,1.01l1.11,1.76.22,2.15s.11.89-.11,1.26c-.22.38-1.22.63-1.22,1.26s2.55,2.15,2.55,2.15l-.22,2.15s.22,1.39.22,1.9-4,1.64-4,1.64l.22,1.9s-1,.5-1.33.63c-.33.12-5.11.25-5.11.63s-.45,1.9-.45,1.9l-4.98-.38-5.22-2.27-.04-.03h.03-.02Z"/>
    <path class="cls-1" d="M1004.29,1883.92l-11.13,2.93,1.24-7.65-6.8-5.3-.62-4.71,5.56-1.76s-.62-6.47-.62-8.24,3.08-8.24,3.08-8.24l1.24-6.47,4.95-5.89,2.95-3.82s-.16-1.47-.16-2.06-.16-1.92.62-2.06,1.55-.44,1.55-.44l-.93-2.5s.31-1.18.93-1.47,2.79-2.93,2.79-3.38.78-1.92.78-1.92l1.7-3.68,2.47-1.92,1.7-5.89,1.08,3.54.16,3.68,1.7,2.35,3.71,2.35s-.62,1.62-.62,2.06-.62,1.92-.62,1.92c0,0,2.33,1.03,2.47,1.62.16.58.46,4.12.46,4.12,0,0-1.39,1.47-1.39,1.92s1.08,2.35,1.24,3.09,1.86,1.62,1.55,2.79,2.17,4.42,2.17,4.42l-2.47,2.21s1.24,1.62,1.7,1.92c.46.3,1.39,1.32,1.39,1.32l1.7.89-.31,2.35-.16,3.38-1.08,1.62s1.55.89,2.01,1.76c.46.89.93,4.12.78,4.56-.16.44-1.24,1.18-1.24,1.18l1.55,2.06.31,2.5s.16,1.03-.16,1.47c-.31.44-1.7.74-1.7,1.47s3.55,2.5,3.55,2.5l-.31,2.5s.31,1.62.31,2.21-5.56,1.92-5.56,1.92l.31,2.21s-1.39.58-1.86.74c-.46.14-7.11.3-7.11.74s-.62,2.21-.62,2.21l-6.97-.44-7.27-2.65h.02-.02Z"/>
    <path class="cls-1" d="M795.34,1861.43l-5.45,1.27.61-3.31-3.34-2.29-.3-2.04,2.73-.76s-.3-2.8-.3-3.57,1.53-3.57,1.53-3.57l.61-2.8,2.43-2.56,1.44-1.66s-.07-.63-.07-.9-.07-.83.3-.9.76-.19.76-.19l-.46-1.08s.15-.51.46-.63,1.36-1.27,1.36-1.46.37-.83.37-.83l.83-1.58,1.21-.83.83-2.56.53,1.53.07,1.58.83,1.02,1.82,1.02s-.3.71-.3.9-.3.83-.3.83c0,0,1.14.44,1.21.71.07.25.23,1.78.23,1.78,0,0-.67.63-.67.83s.53,1.02.61,1.34.91.71.76,1.22c-.15.51,1.06,1.91,1.06,1.91l-1.21.95s.61.71.83.83.67.58.67.58l.83.39-.15,1.02-.07,1.46-.53.71s.76.39.99.76c.23.39.46,1.78.37,1.97-.07.19-.61.51-.61.51l.76.9.15,1.08s.07.44-.07.63-.83.32-.83.63,1.74,1.08,1.74,1.08l-.15,1.08s.15.71.15.95-2.73.83-2.73.83l.15.95s-.67.25-.91.32-3.49.12-3.49.32-.3.95-.3.95l-3.42-.19-3.55-1.14h-.01Z"/>
    <path class="cls-1" d="M458.96,1886.84l-11.99,3.81.96-8.78-7.68-5.77-.91-5.36,5.98-2.25s-1-7.37-1.1-9.38,2.96-9.54,2.96-9.54l1.01-7.44,5.09-6.92,3-4.49s-.25-1.68-.27-2.35-.27-2.18.57-2.38,1.67-.57,1.67-.57l-1.14-2.82s.27-1.36.93-1.72,2.88-3.48,2.85-3.98.75-2.22.75-2.22l1.67-4.26,2.6-2.28,1.55-6.79,1.36,3.99.35,4.19,1.97,2.62,4.16,2.55s-.59,1.87-.57,2.38c.02.5-.58,2.21-.58,2.21,0,0,2.57,1.08,2.78,1.75.2.66.73,4.68.73,4.68,0,0-1.44,1.74-1.41,2.25.02.5,1.3,2.65,1.52,3.48.21.84,2.1,1.77,1.84,3.13s2.58,4.95,2.58,4.95l-2.58,2.62s1.43,1.8,1.94,2.12c.52.32,1.58,1.45,1.58,1.45l1.9.94-.22,2.7v3.87l-1.09,1.89s1.72.94,2.27,1.93,1.22,4.66,1.08,5.17-1.29,1.4-1.29,1.4l1.79,2.29.46,2.84s.22,1.17-.09,1.69-1.81.91-1.78,1.75c.04.84,4,2.72,4,2.72l-.21,2.87s.43,1.84.46,2.5c.03.67-5.97,2.41-5.97,2.41l.46,2.5s-1.48.74-1.99.92c-.5.18-7.73.62-7.71,1.12s-.57,2.55-.57,2.55l-7.6-.22-8.07-2.73h.03,0Z"/>
    <path class="cls-1" d="M580.35,1887.13l-11.91,1.89,1.86-6.83-6.77-5.25-.3-4.29,5.98-1.21s-.18-5.9-.05-7.49,3.85-7.24,3.85-7.24l1.76-5.77,5.64-4.98,3.36-3.25s-.05-1.34,0-1.87c.04-.53-.02-1.75.8-1.82.82-.08,1.65-.29,1.65-.29l-.8-2.32s.42-1.04,1.08-1.26c.66-.22,3.15-2.46,3.18-2.86.03-.4.96-1.68.96-1.68l2.06-3.21,2.74-1.56,2.22-5.2.88,3.26-.1,3.33,1.61,2.25,3.72,2.39s-.77,1.42-.8,1.82-.79,1.69-.79,1.69c0,0,2.37,1.08,2.48,1.64s.19,3.75.19,3.75c0,0-1.57,1.24-1.6,1.63-.03.4.97,2.21,1.08,2.88.1.67,1.84,1.58,1.42,2.64-.42,1.04,1.95,4.14,1.95,4.14l-2.76,1.82s1.17,1.55,1.64,1.85,1.37,1.29,1.37,1.29l1.72.92-.49,2.11-.42,3.05-1.26,1.39s1.56.91,1.99,1.74.66,3.78.48,4.18c-.2.39-1.38.98-1.38.98l1.47,1.96.15,2.28s.09.94-.27,1.32-1.85.55-1.9,1.22,3.55,2.5,3.55,2.5l-.5,2.25s.21,1.48.17,2.01-5.99,1.34-5.99,1.34l.17,2.01s-1.52.43-2,.54-7.49-.24-7.52.17c-.03.4-.81,1.95-.81,1.95l-7.29-.89-7.44-2.9h-.05v-.02h.02Z"/>
    <path class="cls-11" d="M596.44,1680.66l-8.2,2.3.91-5.98-5.01-4.14-.46-3.68,4.1-1.38s-.46-5.06-.46-6.44,2.27-6.44,2.27-6.44l.91-5.06,3.64-4.6,2.17-2.98s-.11-1.14-.11-1.6-.11-1.49.46-1.6,1.14-.35,1.14-.35l-.67-1.95s.23-.92.67-1.14c.46-.24,2.06-2.3,2.06-2.65s.57-1.49.57-1.49l1.26-2.88,1.82-1.49,1.26-4.6.8,2.76.11,2.88,1.26,1.84,2.73,1.84s-.46,1.26-.46,1.6-.46,1.49-.46,1.49c0,0,1.71.81,1.82,1.26.11.46.34,3.22.34,3.22,0,0-1.02,1.14-1.02,1.49s.8,1.84.91,2.42,1.37,1.26,1.14,2.19,1.59,3.44,1.59,3.44l-1.82,1.73s.91,1.26,1.26,1.49,1.02,1.03,1.02,1.03l1.26.7-.23,1.84-.11,2.65-.8,1.26s1.14.7,1.47,1.38c.34.7.67,3.22.57,3.57s-.91.92-.91.92l1.14,1.6.23,1.95s.11.81-.11,1.14c-.23.35-1.26.58-1.26,1.14s2.63,1.95,2.63,1.95l-.23,1.95s.23,1.26.23,1.73-4.1,1.49-4.1,1.49l.23,1.73s-1.02.46-1.37.58-5.23.24-5.23.58-.46,1.73-.46,1.73l-5.13-.35-5.35-2.08v.02l-.04-.02h.02Z"/>
    <path class="cls-1" d="M86,1866.7l-6.07,1.58.66-4.09-3.71-2.84-.33-2.52,3.03-.94s-.33-3.47-.33-4.42,1.69-4.42,1.69-4.42l.66-3.47,2.7-3.15,1.6-2.05s-.09-.79-.09-1.1-.09-1.02.33-1.1.84-.25.84-.25l-.5-1.34s.17-.62.5-.79c.33-.15,1.53-1.58,1.53-1.81s.43-1.02.43-1.02l.93-1.97,1.36-1.02.93-3.15.59,1.89.09,1.97.93,1.26,2.02,1.26s-.33.87-.33,1.1-.33,1.02-.33,1.02c0,0,1.27.55,1.36.87.09.32.26,2.21.26,2.21,0,0-.77.79-.77,1.02s.59,1.26.66,1.66c.09.4,1.01.87.84,1.49s1.17,2.36,1.17,2.36l-1.36,1.19s.66.87.93,1.02c.26.15.77.72.77.72l.93.47-.17,1.26-.09,1.81-.59.87s.84.47,1.1.94.5,2.21.43,2.44-.66.62-.66.62l.84,1.1.17,1.34s.09.55-.09.79-.93.4-.93.79,1.93,1.34,1.93,1.34l-.17,1.34s.17.87.17,1.19-3.03,1.02-3.03,1.02l.17,1.19s-.77.32-1.01.4-3.89.15-3.89.4-.33,1.19-.33,1.19l-3.8-.25-3.97-1.42h-.01Z"/>
    <path class="cls-1" d="M1204.52,1895.42l-18.39,3.93,2.04-10.18-11.24-7.05-1.02-6.26,9.2-2.35s-1.02-8.61-1.02-10.96,5.11-10.96,5.11-10.96l2.04-8.61,8.18-7.83,4.86-5.09s-.26-1.95-.26-2.75-.26-2.55,1.02-2.75c1.28-.19,2.55-.58,2.55-.58l-1.54-3.33s.51-1.57,1.54-1.95c1.02-.4,4.6-3.92,4.6-4.5s1.28-2.55,1.28-2.55l2.81-4.9,4.08-2.55,2.81-7.83,1.79,4.7.26,4.9,2.81,3.13,6.14,3.13s-1.02,2.16-1.02,2.75-1.02,2.55-1.02,2.55c0,0,3.83,1.37,4.08,2.16.26.78.77,5.48.77,5.48,0,0-2.29,1.95-2.29,2.55s1.79,3.13,2.04,4.11,3.06,2.16,2.55,3.72c-.51,1.57,3.58,5.88,3.58,5.88l-4.08,2.93s2.04,2.16,2.81,2.55,2.29,1.76,2.29,1.76l2.81,1.18-.51,3.13-.26,4.5-1.79,2.16s2.55,1.18,3.32,2.35,1.54,5.48,1.28,6.07c-.26.58-2.04,1.57-2.04,1.57l2.55,2.75.51,3.33s.26,1.37-.26,1.95c-.51.58-2.81.98-2.81,1.95s5.88,3.33,5.88,3.33l-.51,3.33s.51,2.16.51,2.93-9.2,2.55-9.2,2.55l.51,2.93s-2.29.78-3.06.98c-.77.19-11.75.4-11.75.98s-1.02,2.93-1.02,2.93l-11.5-.58-12.01-3.53.04-.04h-.06Z"/>
    <path class="cls-11" d="M987.24,1711.7l-2.79.93c-1.05.36-2.13-.43-2-1.45l.27-2.13c.05-.41-.09-.8-.38-1.09l-2.66-2.64c-.22-.22-.35-.5-.38-.81l-.17-1.6c-.06-.58.29-1.16.89-1.39l.89-.36c.58-.24.93-.77.89-1.35-.09-1.32-.26-3.6-.26-4.41,0-1.03,1.28-4.55,1.54-5.24.03-.08.05-.16.06-.25l.57-3.8c.03-.18.09-.37.2-.53l2.37-3.59,1.29-2.14c.13-.24.2-.49.19-.76-.02-.31-.05-.73-.05-.94,0-.39-.09-1.25.31-1.34s.79-.29.79-.29l-.47-1.63s.16-.77.47-.95,1.42-1.92,1.42-2.21.4-1.25.4-1.25l.77-2.11c.06-.18.18-.36.32-.5l.76-.75c.19-.18.31-.42.36-.65l.79-3.46.52,2.18c.02.08.03.17.03.26l.06,1.95c0,.21.06.42.17.59l.58,1.02c.09.15.2.29.33.4l1,.81c.42.33.6.84.47,1.33-.05.24-.1.45-.1.57,0,.08-.03.24-.06.39-.12.51.09,1.04.52,1.37.25.18.46.39.48.54.05.27.16,1.53.2,2.23.02.29-.05.58-.22.82-.21.31-.46.72-.46.89,0,.29.56,1.53.63,2.01.09.48.94,1.05.79,1.82-.09.46.33,1.43.69,2.12.26.48.17,1.04-.19,1.45h0c-.42.46-.46,1.1-.09,1.6.12.17.25.32.31.39.25.19.71.87.71.87l.86.58-.16,1.49v.08l-.06,1.87c0,.19-.05.38-.15.55l-.43.79s.79.58,1.02,1.14c.25.58.47,2.69.4,2.96-.02.07-.06.14-.11.22-.29.41-.29.93-.03,1.37l.16.27c.09.16.16.35.18.53l.12,1.35s.09.67-.09.95c-.16.29-.86.48-.86.95,0,.29.64.81,1.17,1.2.4.29.62.75.57,1.21l-.07.71v.3c.04.3.13,1,.13,1.29,0,.22-.97.6-1.76.9-.63.22-1.02.81-.96,1.42l.04.37s-.71.39-.94.48c-.25.09-3.63.19-3.63.48v.15c-.1.73-.82,1.25-1.61,1.18l-1.94-.15c-.19-.02-.37-.07-.54-.14l-2.87-1.34c-.36-.17-.81-.19-1.18-.07h.03l-.02-.03h-.01Z"/>
  </g>
  <rect class="cls-6" x="-89.6" y="1977.82" width="4019.77" height="6310.4"/>
  <path class="cls-1" d="M1617.31,2057.43c.27-49.18-.53-94.75-.27-143.93,26.45,9.23,48.65,7.26,63.53,6.9,11.36-.28,22.09-1.8,41.57-.57,14.4.92,25.95,2.51,32.01,3.89,39.12,8.88,47.62,9.47,68.04,9.47s46.78-1.19,59.54-2.95c12.77-1.77,96.95,3.56,96.95,3.56,0,0,56.13-8.28,72.28,1.19,16.16,9.47,103.76,15.98,103.76,15.98,0,0,17-6.51,62.09-7.09,45.08-.58,91.84,10.06,102.89,10.06s229.61-47.34,301.05-23.68c71.44,23.68,185.39,20.12,239.83,23.68s120.77,11.84,125.87,14.21c5.11,2.37,73.13,2.37,102.05,2.37s108.85-8.28,132.67-8.28c46.93,0,46.12,7.76,149.67,21.3,48.1,6.29,92.6,10.66,111.41,12.49,67.79,6.6,96.04,7.54,141.87,19.05,27.5,6.91,31.06,10.02,58.3,17.93,35.68,10.37,94.06,20.77,162.92,24.04"/>
</svg>