<?xml version="1.0" encoding="UTF-8"?>
<svg id="Layer_1" xmlns="http://www.w3.org/2000/svg" xmlns:xlink="http://www.w3.org/1999/xlink" version="1.1" viewBox="0 0 3840 8192">
  <!-- Generator: Adobe Illustrator 29.6.0, SVG Export Plug-In . SVG Version: 2.1.1 Build 207)  -->
  <defs>
    <style>
      .st0 {
        fill: url(#linear-gradient2);
      }

      .st1 {
        fill: url(#linear-gradient1);
      }

      .st2 {
        fill: url(#linear-gradient3);
      }

      .st3 {
        fill: url(#linear-gradient6);
      }

      .st4 {
        fill: url(#linear-gradient8);
      }

      .st5 {
        fill: url(#linear-gradient7);
      }

      .st6 {
        fill: url(#linear-gradient5);
      }

      .st7 {
        fill: url(#linear-gradient4);
      }

      .st8 {
        fill: #1a3e3f;
      }

      .st9 {
        fill: url(#linear-gradient);
      }

      .st10 {
        fill: #1a4949;
      }

      .st11 {
        fill: #176872;
      }

      .st12 {
        fill: #68a09c;
      }
    </style>
    <linearGradient id="linear-gradient" x1="1796.35" y1="-6557.43" x2="1796.35" y2="-7517.13" gradientTransform="translate(223.89 7122.47) scale(.94)" gradientUnits="userSpaceOnUse">
      <stop offset="0" stop-color="#ecf5ed"/>
      <stop offset=".58" stop-color="#d2e4d7"/>
      <stop offset="1" stop-color="#bed9c6"/>
    </linearGradient>
    <linearGradient id="linear-gradient1" x1="3080.5" y1="-6296.43" x2="3201.93" y2="-6740.12" gradientTransform="translate(223.89 7122.47) scale(.94)" gradientUnits="userSpaceOnUse">
      <stop offset="0" stop-color="#d1e3d6"/>
      <stop offset=".17" stop-color="#b5d1c8"/>
      <stop offset=".37" stop-color="#99c0bb"/>
      <stop offset=".58" stop-color="#85b3b1"/>
      <stop offset=".79" stop-color="#79acab"/>
      <stop offset="1" stop-color="#75aaaa"/>
    </linearGradient>
    <linearGradient id="linear-gradient2" x1="2434.99" y1="-5921.84" x2="2545.22" y2="-6546.44" gradientTransform="translate(223.89 7122.47) scale(.94)" gradientUnits="userSpaceOnUse">
      <stop offset="0" stop-color="#d7e7db"/>
      <stop offset=".48" stop-color="#accec9"/>
      <stop offset=".81" stop-color="#95c1bf"/>
    </linearGradient>
    <linearGradient id="linear-gradient3" x1="1248.02" y1="-5529.96" x2="1416.85" y2="-6113.61" gradientTransform="translate(223.89 7122.47) scale(.94)" gradientUnits="userSpaceOnUse">
      <stop offset=".52" stop-color="#d1e3d6"/>
      <stop offset="1" stop-color="#bed9c6"/>
    </linearGradient>
    <linearGradient id="linear-gradient4" x1="789.22" y1="-6365.42" x2="3066.71" y2="-6365.42" gradientTransform="translate(223.89 7122.47) scale(.94)" gradientUnits="userSpaceOnUse">
      <stop offset="0" stop-color="#d1e3d6"/>
      <stop offset=".08" stop-color="#cee1d3"/>
      <stop offset=".54" stop-color="#c2dbc9"/>
      <stop offset="1" stop-color="#bed9c6"/>
    </linearGradient>
    <linearGradient id="linear-gradient5" x1="2103.19" y1="-6576.72" x2="3837.01" y2="-6576.72" gradientTransform="translate(223.89 7122.47) scale(.94)" gradientUnits="userSpaceOnUse">
      <stop offset=".27" stop-color="#d1e3d6"/>
      <stop offset=".4" stop-color="#c6dcd1"/>
      <stop offset=".64" stop-color="#abcbc4"/>
      <stop offset=".94" stop-color="#7fb0ae"/>
      <stop offset="1" stop-color="#75aaaa"/>
    </linearGradient>
    <linearGradient id="linear-gradient6" x1="2941.09" y1="-6771.58" x2="3837.04" y2="-6771.58" gradientTransform="translate(223.89 7122.47) scale(.94)" gradientUnits="userSpaceOnUse">
      <stop offset=".27" stop-color="#d1e3d6"/>
      <stop offset=".4" stop-color="#c6dcd1"/>
      <stop offset=".64" stop-color="#abcbc4"/>
      <stop offset=".94" stop-color="#7fb0ae"/>
      <stop offset="1" stop-color="#75aaaa"/>
    </linearGradient>
    <linearGradient id="linear-gradient7" x1="1388.48" y1="-6645.04" x2="1922.68" y2="-6645.04" gradientTransform="translate(223.89 7122.47) scale(.94)" gradientUnits="userSpaceOnUse">
      <stop offset="0" stop-color="#d1e3d6"/>
      <stop offset=".43" stop-color="#c6ddcd"/>
      <stop offset="1" stop-color="#bed9c6"/>
    </linearGradient>
    <linearGradient id="linear-gradient8" x1="1802.13" y1="-1263.11" x2="1786.08" y2="-5111.41" gradientTransform="translate(223.89 7122.47) scale(.94)" gradientUnits="userSpaceOnUse">
      <stop offset="0" stop-color="#c5decd"/>
      <stop offset=".13" stop-color="#c0d9c9"/>
      <stop offset=".29" stop-color="#b2ccbd"/>
      <stop offset=".45" stop-color="#9ab6aa"/>
      <stop offset=".63" stop-color="#7a988f"/>
      <stop offset=".8" stop-color="#50716c"/>
      <stop offset=".99" stop-color="#1e4242"/>
      <stop offset="1" stop-color="#1a3e3f"/>
    </linearGradient>
  </defs>
  <g>
    <rect class="st9" x="-23.42" width="3871.77" height="1044.48"/>
    <path class="st1" d="M3848.36,1144.84l-297-4.93-308.12-41.15-521.87-217.41-198.07-102.83,84.89-16.89s69.96-16.16,91.95-30.12c22.01-13.95,45.6-22.04,49.53-25.7,3.92-3.67,53.43-24.98,53.43-24.98l54.23-24.96s43.24-30.86,46.38-30.86,25.15,1.48,29.08.73c3.93-.73,28.3-8.08,28.3-8.08,0,0,21.99,9.55,33.79.73.25-.19.5-.36.75-.55,11.62-8.56,25.37-15.73,33.06-20.76,7.85-5.14,38.5-15.42,38.5-15.42,0,0,20.45,11.75,43.22,2.2,22.79-9.55,29.87-9.55,49.53-7.34,19.65,2.2,62.08,17.63,69.94,20.55,7.88,2.95,18.87-4.39,32.23,12.5,13.35,16.89,85.66,51.41,105.32,63.89,19.65,12.48,85.66,58.75,109.24,70.5,23.58,11.75,91.17,52.16,110.03,59.5,18.89,7.34,52.66,38.2,88.03,51.41,35.38,13.21,88.82,48.49,111.62,57.29,22.78,8.82,61.99,16.86,61.99,16.86"/>
    <path class="st0" d="M3848.6,1137.32v304.58s-158.24,7.85-161.38,5.9c-3.16-1.97-249.43-6.87-249.43-6.87l-430.7-6.85-279.82,17.87-622.48-26.43-802.73-464.47s47.68-3.44,62.35-8.32c14.68-4.9,27.78-6.87,39.31-10.77,11.52-3.92,33-7.85,41.4-12.24,8.38-4.41,29.87-8.82,39.81-12.26,9.96-3.42,15.21-2.44,29.87-12.73,8.88-6.21,18.3-15.11,26.91-22.25,5.67-4.69,10.97-8.63,15.53-10.57,11.52-4.9,36.16-22.53,41.4-22.53s18.34,4.41,23.58,4.9c5.24.49,22.54.98,26.72-1.46,4.19-2.46,19.92-13.72,28.3-16.16s34.58-2.95,39.83-2.44c5.24.49,75.44,13.7,91.69,23.01,16.25,9.29,27.78,11.26,42.44,17.14,14.66,5.88,33.55,11.26,48.21,13.7.61.09,1.23.19,1.86.28,15.28,2.21,44.17,2.67,54.71,2.67s24.62,7.83,36.68-8.33c12.05-16.16,29.87-26.45,45.07-33.3,15.18-6.85,75.98-32.81,90.64-38.69,14.66-5.88,35.11-18.6,41.4-25.94,6.29-7.36,24.11-23.01,26.72-23.01,1.47,0,9.68-.3,18.64-2.04h.02c7.03-1.35,14.54-3.61,19.6-7.26,11.52-8.32,21.48-19.09,27.23-20.09,5.77-.98,23.58-3.42,31.44-5.88,7.88-2.44,37.74-2.93,57.13-2.93s4.72-4.9,25.67-16.65c20.97-11.75,40.35-9.31,40.35-9.31,0,0,16.23-8.8,18.87-8.31,2.61.49,37.2,11.75,40.88,14.19,3.66,2.46,62.87,31.84,114.23,53.87,51.34,22.04,65.5,9.8,85.93,27.91s77.03,42.59,83.84,47,61.83,28.89,108.99,45.05,60.26,49.95,104.27,68.06c44.03,18.13,61.3,32.32,97.46,44.56s207.51,81.79,275.63,95.49c68.11,13.72,121.56,29.38,146.71,29.38s50.31-7.83,78.62-2.93c28.28,4.9,32.48,30.35,75.44,19.58,42.96-10.77,49.25-20.55,79.64-21.53,30.39-1,77.56,7.83,84.89,12.73,7.35,4.9,36.68,14.68,36.68,14.68l-.02.02-.03-.02Z"/>
    <path class="st2" d="M3226.15,1422.94c-44.44,2.76-88.86,5.52-133.3,8.3-43.53,2.7-87.04,5.39-130.58,8.11-1.29.08-2.59.17-3.87.24l-453.22,42.35-104.67,9.78-353.84,33.07-1342.43-17.63c-242.22,2.93-484.42,5.88-726.62,8.8-.14-21.66-.28-43.33-.41-65.01-.77-146.04-1.4-291.99-.63-438.04,9.34-7,20.82-14.37,33.26-21.39,23.7-13.32,46.19-21.74,64.85-27.17h30.67l21.22,4.39s42.44-4.39,58.95-13.21c16.51-8.82,68.37-17.63,91.95-35.25,23.58-17.63,96.67-50.68,96.67-50.68l84.89-30.86s49.51-33.05,54.23-39.66,24.11-20.55,29.34-20.07c5.24.49,10.74-.24,17.55-.24s24.35-.75,30.12-2.21,14.94-4.41,17.55-5.39c2.61-.98,29.34-3.9,32.22-3.66,2.89.24,3.41-3.44,22.79-1.48,19.38,1.97,22.01,2.95,26.45,6.87,4.45,3.9,46.38,15.42,61.06,14.19,14.66-1.22,34.56-5.63,37.2-5.88,2.61-.24,27.76-8.57,37.2-8.08s40.88,2.93,40.88,2.93c0,0,32.48,3.92,38.77,3.92s32.5,3.9,44.01,2.44c6.42-.83,11.42.36,14.54,1.54,2.49.94,3.81,1.89,3.81,1.89,0,0,41.38,21.55,47.66,23.5s68.66,25.96,81.75,37.22,71.79,30.84,82.28,45.54c4.72,6.62,13,14.17,21.11,20.64,9.87,7.91,19.5,14.25,22.38,15.58,5.24,2.46,8.38.98,11.01,0,2.61-.98,24.11-7.83,33.52-7.83s23.06,7.34,35.63,18.11,53.97,22.04,62.36,22.04,64.95,11.75,98.5-1.95c33.52-13.72,41.93-16.65,56.58-15.67,14.68.98,24.11-12.75,45.07,4.9,20.95,17.63,59.74,29.38,93.26,40.15,33.55,10.77,55.54,29.38,66.02,37.2,6.21,4.65,23.06,7.92,36.44,9.59,9.21,1.17,16.77,1.57,18.06,1.19,1.93-.6,8.2,5.07,19.52,13.83,7.13,5.52,16.3,12.28,27.64,19.47,29.34,18.6,58.69,53.87,123.67,71.5,64.95,17.63,71.91,19.96,89.99,28.02,18.07,8.09,33.8,16.16,39.31,19.47,5.49,3.31,23.56,6.61,36.16,6.61s43.6,6.25,60.9,11.01c17.29,4.79,118.95,24.01,165.59,24.01s71.24-2.46,90.64,2.93c19.38,5.39,57.62,13.23,97.46,34.76,39.81,21.55,75.44,45.05,83.84,51.92,8.38,6.85,52.93,26.92,59.22,26.43,6.29-.49,16.23-7.34,25.15-.49,8.9,6.85,15.18,13.72,18.87,14.7,3.66.98,29.87,0,29.87,0,0,0,31.44-4.9,43.49,1.95,12.05,6.85,16.25,15.19,29.34,17.14,13.1,1.97,34.07,1.46,34.07,1.46,17.2-6.96,30.37-7.08,39.29-5.88,7.58,1.04,9.05,2.63,26.74,7.85,11.5,3.4,19.9,5.37,36.68,9.29,20.02,4.71,36.83,8.08,43.49,9.31,46.76,8.78,57.87.75,109.65,7.25,1.49.19,3.02.4,4.58.6,14.04,1.89,22.37,3.66,32.13,5.45,8.58,1.55,18.26,3.14,33.89,4.82,19.5,2.1,35.7,3.01,46.62,3.44l-.02.02h.01Z"/>
    <path class="st7" d="M3113.96,1408.64c-7.08,2.23-14.66,4.41-22.67,6.51-34.56,9.1-77.24,17.14-123.97,24.2-157.63,23.82-361.53,36.61-457.09,42.59-68.77,4.32-134.86,7.28-197.93,9.2-211.49,6.44-389.08.9-521.04-6.44-3.56-11.98-7.07-23.97-10.63-35.98,0,0-17.7-7.38-19.46-11.05-1.77-3.69-2.63-9.25-1.77-15.71.89-6.45,1.77-6.45,1.77-14.76s0-23.07-3.52-28.61c-3.56-5.54-16.81-11.98-20.34-11.98s-12.39-8.33-17.7-10.18c-5.31-1.84-31.83-3.67-31.83-3.67h-53.04c-10.63,0-15.93-4.62-15.93-4.62,0,0,6.2-8.3,1.74-22.15-4.4-13.83,3.56-19.37-7.95-18.45-11.47.92-18.54,1.84-22.09-2.76-3.56-4.62-5.31-13.85-7.95-15.69-2.68-1.86-13.28-6.45-21.23-6.45s-16.81,0-26.54-2.78c-9.74-2.76-17.7-5.52-26.54-12.94-8.82-7.38-37.13-11.05-41.56-12.9-4.42-1.86-112.32-76.59-112.32-76.59,0,0-46.87-15.69-48.63-27.68-1.77-11.99-4.44-29.53-4.44-38.76s-1.74-5.52,5.33-30.44c7.07-24.91,11.48-34.15,12.37-48,.89-13.83-12.37-.92-16.81-11.05-2.23-5.14-3.56-8.62-4.56-11.66-2.18-6.61-1.08-7.42-2.53-8.66-2.24-1.93-4.67-1.06-8.92-3.4-2.02-1.12-3.45-2.4-4.32-3.31-4.72-1.59-9.43-3.18-14.15-4.78-4.55-8.89-10.01-12.78-14.15-14.69-4.8-2.21-8.46-2.07-22.01-5.51-4.04-1.03-7.32-1.96-9.43-2.57-6.65-4.57-12.34-7.86-16.34-10.04-8.06-4.36-18.54-9.23-18.54-9.23h0c-7.9-1.41-15.78-2.83-23.67-4.24-5.41-.11-12.65-1.17-18.07-5.88-4.44-3.85-4.59-7.46-9.03-12.12-5.06-5.3-11.09-7.12-17.69-9.18-38.98-12.16-31.14-11.8-45.58-15.06,0,0-18.74-4.29-29.07-10.28-2.1-1.22-3.57-2.17-4.72-2.96-2.33-1.61-4.02-2.86-4.59-3.28-12.83-9.74-24.07-14.62-28.93-24.85-3.83-8.06,1.44-8.57-2.62-18.61-4.55-11.25-11.61-11.68-13.23-21.8-.56-3.51-.33-7.24-2.41-13.53-.72-2.17-1.66-4.43-2.88-6.78-4.44-8.56-11.15-9.05-16.73-15.11,2.49.94,3.81,1.89,3.81,1.89,0,0,41.38,21.55,47.66,23.5s68.66,25.96,81.75,37.22,71.79,30.84,82.28,45.54c4.72,6.62,13,14.17,21.11,20.64,9.87,7.91,19.5,14.25,22.38,15.58,5.24,2.46,8.38.98,11.01,0,2.61-.98,24.11-7.83,33.52-7.83s23.06,7.34,35.63,18.11,53.97,22.04,62.36,22.04,64.95,11.75,98.5-1.95c33.52-13.72,41.93-16.65,56.58-15.67,14.68.98,24.11-12.75,45.07,4.9,20.95,17.63,59.74,29.38,93.26,40.15,33.55,10.77,55.54,29.38,66.02,37.2,6.21,4.65,23.06,7.92,36.44,9.59,11.26,5.62,23.68,10.7,37.58,15.02,7.13,5.52,16.3,12.28,27.64,19.47,29.34,18.6,58.69,53.87,123.67,71.5,64.95,17.63,71.91,19.96,89.99,28.02,18.07,8.09,33.8,16.16,39.31,19.47,5.49,3.31,23.56,6.61,36.16,6.61s43.6,6.25,60.9,11.01c17.29,4.79,118.95,24.01,165.59,24.01s71.24-2.46,90.64,2.93c19.38,5.39,57.62,13.23,97.46,34.76,39.81,21.55,75.44,45.05,83.84,51.92,8.38,6.85,52.93,26.92,59.22,26.43,6.29-.49,16.23-7.34,25.15-.49,8.9,6.85,15.18,13.72,18.87,14.7,3.66.98,29.87,0,29.87,0,0,0,31.44-4.9,43.49,1.95,12.05,6.85,16.25,15.19,29.34,17.14,13.1,1.97,34.07,1.46,34.07,1.46,17.2-6.96,30.37-7.08,39.29-5.88,7.58,1.04,9.05,2.63,26.74,7.85,11.5,3.4,19.9,5.37,36.68,9.29,20.02,4.71,36.83,8.08,43.49,9.31,46.76,8.78,57.87.75,109.65,7.25l-.02.04h-.04Z"/>
    <path class="st12" d="M-22.77,1450.2c7.6,3.69,15.19,7.38,22.79,11.07l22.01-4.58,6.29-8.4s2.35-13.75,5.5-1.53c3.15,12.22,5.5,17.56,5.5,17.56,0,0,11.79-8.4,13.35-12.22,1.57-3.82,2.35-12.22,4.72-13.75,2.35-1.53,11.79-5.34,11.79-5.34l2.35,19.09,3.15,2.29,7.07-24.43s4.72,12.98,7.07,16.04,8.65-8.4,8.65-8.4l5.5,9.92s7.86,2.29,10.22.76,8.65-6.87,11-7.63,3.15-2.29,7.07-1.53,25.15,6.87,25.15,6.87l11.79-12.98s-3.93-4.58,4.72-3.82c8.65.76,24.37,5.34,24.37,5.34,0,0,4.72,5.34,7.07,6.11,2.35.76,17.29-6.87,17.29-6.87,0,0,1.57,2.29,1.57-3.05v-7.63l28.29,16.8c2.35,7.63,6.29,26.72,11,30.54,4.72,3.82,14.15-6.11,14.15-6.11,0,0-.78-13.75,8.65-10.69s4.72.76,11.79,3.05,9.43,3.82,19.65-6.11c10.22-9.92,13.35-14.51,15.72-14.51s24.37.76,24.37.76l19.65,4.58s-13.35-10.69,11.79-3.05c25.15,7.63,50.3,1.53,53.45,7.63l3.15,6.11s18.07,6.11,25.15,0,10.22-8.4,10.22-8.4c0,0-11-16.8,6.29,2.29s23.58,19.85,25.93,19.85,9.43-.76,9.43-.76l48.73-9.92s-3.93-25.96,11-9.16c14.93,16.8,18.87,19.85,19.65,24.43s2.35,9.16,5.5,14.51c3.15,5.34,7.07,6.11,11,12.22,3.93,6.11,31.44-10.69,31.44-10.69l5.5-13.75s2.35-15.27,6.29-11.46c3.93,3.82,9.43,29.01,9.43,29.01,4.72,6.87,14.93,9.16,14.93,9.16l25.15-9.92,23.58-23.67s3.15-9.16,9.43-7.63c6.29,1.53,35.37,22.91,35.37,22.91l32.22,7.63,3.15-19.09s1.57-12.98,7.86.76c6.29,13.75,2.35,16.8,9.43,16.04s21.22-19.85,21.22-19.85l10.22,18.58,12.57-4.58,1.57,10.69,3.15,8.14,9.43-12.22.52,7.12,7.86,1.02,4.19-10.69,10.48,10.69,1.57-12.22,4.72-5.6,9.43-8.14,12.05,19.34,2.62-6.11,2.62-9.16,15.19,12.73s1.57,4.07,5.77,1.02,11-10.69,11-10.69l4.72-10.18s11.52,4.07,13.1,5.6,7.86,5.09,7.86,5.09l2.1,14.26s6.29-1.02,6.29-3.05-1.57-11.2-1.57-11.2l8.38.51,4.72-12.22,5.77-6.61s8.38-12.73,8.38-15.27,2.1-15.78,3.67-17.31,8.38-.51,8.38-.51l10.48,9.16s5.24-1.02,6.82-1.02,4.72,13.24,5.77,15.27c1.05,2.04,16.24,6.61,16.24,6.61l1.57,2.04,16.24,13.49,18.47-1.15,3.93,8.4,9.43-7.26,12.97.39,16.5-6.49,3.54,7.26s2.35,6.49,3.54,7.63,6.29-3.82,8.65-3.44c2.35.39,6.69,3.05,6.69,3.05l8.65,11.07s10.6-3.82,11.78-3.82,8.25.39,10.22,4.2c1.97,3.82,11.78,13.36,11.78,13.36l22.79-5.73,5.5-1.91s7.86,8.78,8.26,9.92c.4,1.15,3.15,4.58,3.15,4.58l8.65-5.34,15.32-2.29,3.15,6.87,7.47-6.87,5.5-1.91,30.26,12.98,1.18-7.26h6.69l5.11-3.44,20.44-12.6,3.54,6.49,6.69-1.15,7.86,4.58,2.75,7.63,11.4-1.53s19.65-2.29,20.83-2.68c1.18-.39,7.47,6.49,7.47,6.49l15.32-10.69,9.03-18.7,8.25,2.68-1.97-13.36,8.25-11.07,9.82,2.68,4.32-8.4,17.69-11.46,2.75,9.16,7.47.39,3.15,8.78,9.43-.39,8.25,7.26,2.75-1.91,8.26-5.73s.78-1.15,1.18,1.53,5.11,8.4,5.11,8.4h-5.11l2.75,1.15s5.5.76,7.07-.39,8.25-5.34,8.25-5.34c0,0,12.18-1.53,13.35-2.29s9.03-13.75,10.22-14.51,32.62-13.36,32.62-13.36v8.78s4.32-2.68,6.29-3.05c1.97-.39,22.41-1.91,25.93-1.15,3.54.76,1.97,8.02,1.97,8.02l6.69-9.92,5.11,6.49,5.9-7.63,7.86,5.73s3.15-5.73,4.32-6.11c1.18-.39,7.07,6.11,7.07,6.11l9.03,4.58,7.07,20.62-.78-25.96,8.65,4.2,6.69-1.53,43.22-11.46-2.75,14.51s9.03,5.34,10.22,5.34,1.57,8.4,1.57,8.4l4.32,9.92s5.9-3.82,8.25-2.29c2.35,1.53,6.69,10.31,8.25,12.22,1.57,1.91,13.35,2.68,14.54,1.91,1.18-.76,5.5-4.2,6.69.76s23.98,3.82,25.15,3.05c1.18-.76,6.29-8.78,7.86-9.16s3.54-3.44,11,.39c7.46,3.83,18.07-9.55,19.26-10.31,1.18-.76,5.9-7.26,5.9-7.26,0,0,13.35,5.98,15.45,7s4.72-7.63,6.29-11.2c1.57-3.56,11-7.12,12.05-1.53,1.05,5.6,6.29,13.24,9.95,14.26,3.67,1.02,11.52-7.63,13.62-9.67s4.19-2.54,4.72,1.53c.52,4.07,3.15,5.6,3.15,5.6l5.77-5.6s9.95-13.75,9.95,0,4.19,4.07,6.29,4.07,26.72-6.61,26.72-6.61c0,0-1.57,6.61,1.57,8.65s11.52,1.53,17.82,0,11-2.54,11-2.54c0,0,2.62,6.11,5.24,6.61,2.62.51,13.1-2.04,14.67-3.56s18.87-1.53,18.87-1.53c0,0,8.9,11.71,11-5.6,2.1-17.31,5.24-19.34,7.87-16.29s6.82,10.69,6.82,10.69l6.82-8.65,9.95,5.6s47.16-11.71,49.25-14.77c2.1-3.06,26.2-8.14,26.2-1.02s7.34,8.14,11.52,4.07c4.19-4.07,5.24-7.12,11.52-2.04,6.29,5.09,24.11,9.16,29.34,4.07,5.24-5.09,2.1-11.2,10.48-8.14,8.38,3.05,10.48,9.16,20.96,3.05,10.48-6.11,8.38-20.36,20.96-10.18,12.57,10.18,22.01,14.26,32.49,11.2s11.52-14.26,16.77-5.09c5.24,9.16,29.34,15.27,38.78,9.16,9.43-6.11,7.34-16.29,29.34-12.22,22.01,4.07,39.83-2.04,47.16-3.05,7.34-1.02,16.77,7.12,26.2-10.19,9.43-17.31,22.01-29.52,22.01-29.52,0,0,5.24,1.02,5.24,7.12s6.29,1.02,7.34,5.09c1.05,4.07,0,15.27,4.19,15.27s14.67-22.4,16.77-27.49,2.1-7.12,6.29-11.2c4.19-4.07,7.34-15.27,11.52-11.2,4.19,4.07,4.19,9.16,4.19,13.24s-1.05,19.34-1.05,19.34c0,0,8.38,14.26,16.77,16.29,8.38,2.04,12.57,1.02,15.72,2.04s22.01,14.26,32.49,9.16c10.48-5.09,22.01-16.29,22.01-16.29,0,0,13.62,6.11,19.91,8.14s32.49,6.11,47.16,0,26.2-23.42,41.91-20.36,33.54,12.22,36.68,18.33,15.72-3.05,25.15-10.19c9.43-7.12,18.87-15.27,23.06-15.27s33.54,9.16,33.54,9.16l15.72-21.38s7.34,8.14,7.34,11.2,20.96,7.12,24.11,7.12,10.48-10.18,12.57-13.24c2.1-3.05,3.15-15.27,16.77-13.24,13.62,2.04,23.06,8.14,23.06,8.14,0,0,29.07-31.31,35.37-25.2,6.29,6.11,7.07,12.22,7.07,12.22l11.78-8.4,4.72,9.16,5.5-3.05s3.93-3.05,5.5-.76,30.65,2.29,30.65,2.29l1.57-7.63s4.72.76,6.29,3.05.78,1.53,1.57,4.58-7.87,5.34,7.87,3.82c15.72-1.53,18.87-1.53,18.87-1.53l3.93-7.63s3.93,9.16,7.07,8.4c3.15-.76,15.72-50.39,15.72-50.39,0,0-.78,23.67-.78,28.25v9.16c0,3.82,8.65-1.53,8.65-1.53.78,6.87-3.15,8.4,2.35,9.16s-.78,0,11.78-3.05,49.51,8.4,49.51,8.4c0,0,3.15-14.51,5.5-14.51s10.21,5.34,16.5,7.63c6.29,2.29,14.15,4.58,20.44,3.05s-7.87-11.46,18.07-5.34c25.93,6.11,14.93,2.29,25.93,6.11s6.29-5.34,17.29,5.34c11,10.69,10.21,17.56,14.15,9.92,3.93-7.63,4.72-11.46,4.72-11.46,0,0,16.5,12.98,16.5,15.27s15.72,2.29,19.65-.76c3.93-3.05,27.5-12.98,33.01-12.22s3.15-7.63,8.65,3.82c5.5,11.46,4.72,2.29,11,0,6.29-2.29,26.72,9.92,26.72,9.92l21.49,5.6,11.52-8.14s6.29-6.11,7.87-1.02,2.1,7.12,2.1,7.12c0,0,6.82.51,9.95-3.56,3.15-4.07,7.34-12.73,8.38-7.12,1.05,5.6,5.77,12.22,8.39,10.69,1.74-1.02,3.32-2.54,4.72-4.58,2.1-3.05,2.1-9.16,4.19-6.61,2.1,2.54,4.72,10.18,10.48,12.22,5.77,2.04,12.05,8.65,14.67,1.53s3.67-10.69,5.24-10.69,10.48.51,10.48.51c0,0,1.57-3.56,3.15-6.11s5.24-9.67,6.82-5.6c1.57,4.07,1.57,8.65,1.57,8.65,0,0,3.15,2.54,4.19,6.11,1.05,3.56,4.19,8.14,7.34,10.69,3.15,2.54,3.67,14.26,8.39,2.54,4.72-11.71,5.24-20.36,5.24-20.36,0,0,0-6.11,6.29,1.53,6.29,7.64-8.39,17.82,1.05,19.34,9.43,1.53,22.01,2.04,18.87-4.07-3.15-6.11-16.24-12.73-3.67-10.69,12.57,2.04,15.19-1.02,16.24,4.58,1.05,5.6-2.62,6.61-2.62,6.61l14.15.51s2.1-2.54,3.67-7.12,6.29-16.29,9.43-14.77c3.15,1.53,2.1,14.77,2.1,14.77,0,0-2.1,0-.52,2.04s2.62,2.04,5.77,2.04h8.9c1.57,0,3.15,1.02,10.48.51,7.34-.51-.52-4.58,19.91-5.09s22.54-4.07,31.44,0c8.9,4.07,27.77,5.09,27.77,5.09l26.72-2.54,45.82,2.8v258.18c-1287.39,70.2-2584.35,137.43-3871.63,207.55.13-135.41.26-270.81.4-406.23l.09.02Z"/>
    <path class="st11" d="M3848.36,1532.11s-120.9-38.1-146.23-2.1c-25.33,36-103.13,39.6-103.13,39.6,0,0-95.9-9-108.56-9s-110.37,5.4-110.37,5.4l-115.8,57.61s-247.88,1.8-255.12,1.8-99.52,12.6-141.13,19.81c-41.61,7.2-311.21,45-311.21,45,0,0-354.63,10.8-394.43,7.2s-110.37-1.8-164.65,21.61c-54.28,23.41-95.9,23.41-128.46,23.41s-186.36,18.01-186.36,18.01l-112.19,18.01,508.43,57.61s566.33,45,597.09,45,293.11-5.4,325.68,5.4c32.57,10.8,249.69,41.4,305.78,48.6,56.09,7.2,540.67,24.84,540.67,24.84v-427.79h0v-.02Z"/>
    <path class="st10" d="M-26.44,1674.85s84.73,29.55,136.75,30.97c52.02,1.42,52.02-19.94,124.53,1.42,72.52,21.36,88.27,22.78,126.11,22.78s86.7-2.85,110.34-7.12,179.71,8.55,179.71,8.55c0,0,104.04-19.94,133.99,2.85,29.95,22.78,192.32,38.45,192.32,38.45,0,0,31.52-15.67,115.07-17.09s170.25,24.21,190.75,24.21,425.63-113.93,558.04-56.97c132.42,56.97,343.65,48.42,444.54,56.97,100.89,8.55,223.85,28.48,233.31,34.18,9.46,5.7,135.58,5.7,189.17,5.7s201.77-19.94,245.92-19.94,201.77,51.27,277.43,51.27,296.36-2.85,340.49,2.85c44.14,5.7,223.95,32.05,249.07,34.18,24.24,2.06,28.27,3.95,28.27,3.95v144.17l-3869.93-1.88s-5.87-240.09-5.87-359.49v.02-.03Z"/>
    <path class="st8" d="M-24.13,2035.68c.26-48.11-.51-92.69-.26-140.8,25.48,9.03,46.87,7.1,61.2,6.75,10.94-.27,21.28-1.76,40.05-.56,13.87.9,25,2.46,30.84,3.81,37.69,8.69,45.87,9.26,65.54,9.26s45.06-1.16,57.36-2.89,93.39,3.48,93.39,3.48c0,0,54.07-8.1,69.63,1.16,15.57,9.26,99.95,15.63,99.95,15.63,0,0,16.38-6.37,59.81-6.94s88.47,9.84,99.12,9.84,221.19-46.31,290.01-23.16c68.82,23.16,178.59,19.68,231.03,23.16s116.34,11.58,121.25,13.9c4.92,2.32,70.46,2.32,98.31,2.32s104.86-8.1,127.8-8.1c45.21,0,44.43,7.59,144.18,20.84,46.34,6.15,89.2,10.43,107.32,12.22,65.3,6.46,92.52,7.38,136.67,18.64,26.49,6.76,29.92,9.8,56.16,17.54,34.37,10.14,90.61,20.32,156.95,23.52"/>
    <path class="st6" d="M3802.85,1106.62c7.35,4.9,36.68,14.68,36.68,14.68.09,12.57.18,25.14.27,37.71-4.76-1.85-12-3.89-20.44-2.94-11.82,1.34-15.43,7.39-27.5,11.01-15.88,4.77-17.68-3.28-32.22.73-11.03,3.04-11.45,8.08-40.08,27.17-5.82,3.88-8.73,5.82-10.21,6.61-20.35,10.77-42.79,4.55-71.52-.73-15.68-2.88-44.03-8.1-74.93-9.06-28.83-.9-27.18,2.93-64.97,2.94-19.9,0-37.37-1.3-72.31-3.92-23.35-1.74-41.28-3.5-55.55-4.9-25.68-2.53-38.52-3.78-53.45-5.88-27.06-3.8-31.41-5.81-57.63-9.79-7.35-1.11-21.75-3.19-60.78-6.86-22.3-2.09-47.87-4.48-84.89-6.86-98.16-6.32-106.75-1.73-129.43-13.72-22.56-11.91-25.24-22.44-50.29-29.38-24.18-6.7-36.07-.9-58.17-11.75-18.4-9.05-31.35-23.52-33-22.04-1.4,1.25,8.12,11.49,6.29,13.21-1.99,1.89-12.48-10.98-29.87-13.21-11.55-1.48-15.32,3.12-25.15,0-8.4-2.67-11.77-8-17.29-13.21-5.77-5.47-12.07-9.08-44.01-19.11-24.96-7.83-40.15-11.58-56.61-16.16-33.28-9.25-50.07-13.89-56.58-17.63-8.18-4.65-34.03-19.43-45.6-35.25-1.21-1.65-4.56-6.49-10.99-10.29-7.58-4.47-11.47-2.5-17.29-5.14-9.56-4.33-7.97-13.44-19.4-34.51-4.63-8.57-10.87-18.07-14.25-21.08.28-5.77-.66-13.66-5.65-19.07-2.7-2.91-3.48-1.76-10.49-6.85-6.37-4.65-11.5-8.37-14.66-14.7-2.84-5.67-3.32-11.81-3.11-14.98-1.72-1.99-4.72-6.06-8.94-10.96-6.94-8.08-8.36-8.04-11.52-12.26-5.34-7.08-4.76-11.62-7.85-21.04-1.86-5.69-8.28-25.19-24.11-34.28-3.09-1.78-9.07-3.01-20.97-5.39-25.77-5.18-31-4.67-50.29-8.82-14.86-3.19-15.43-4.3-26.2-5.88-11.35-1.67-20.02-1.82-29.87-1.95-23.1-.34-27.09,1.78-41.4.49-13.22-1.2-21.85-4.11-28.3-5.88-5.18-1.42-13.24-1.93-22.21-2.04,7.03-1.35,14.54-3.61,19.6-7.26,11.52-8.32,21.48-19.09,27.23-20.09,5.77-.98,23.58-3.42,31.44-5.88,7.88-2.44,37.74-2.93,57.13-2.93s4.72-4.9,25.67-16.65c20.97-11.75,40.35-9.31,40.35-9.31,0,0,16.23-8.8,18.87-8.31,2.61.49,37.2,11.75,40.88,14.19,3.66,2.46,62.87,31.84,114.23,53.87,51.34,22.04,65.5,9.8,85.93,27.91s77.03,42.59,83.84,47,61.83,28.89,108.99,45.05c47.16,16.16,60.26,49.95,104.27,68.06,44.03,18.13,61.3,32.32,97.46,44.56s207.51,81.79,275.63,95.49c68.11,13.72,121.56,29.38,146.71,29.38s50.31-7.83,78.62-2.93c28.28,4.9,32.48,30.35,75.44,19.58,42.96-10.77,49.25-20.55,79.64-21.53,30.39-1,77.56,7.83,84.89,12.73l-.02.04h-.02Z"/>
    <path class="st3" d="M3839.84,939.02c-9.96-1.06-19.18-2.63-26.52-4.88-3.62-1.13-26.28-8.61-54.81-18.83-12.25-4.39-19.92-7.28-26.11-9.27-6.2-1.99-10.87-3.06-17.07-3.83-5-.6-14.76-1.48-28.37-4.49-7.61-1.69-11.98-2.67-16.85-4.65-13.87-5.71-16.01-13.3-25.49-20.21-8.96-6.55-13.3-4.32-62.01-10.86-16.81-2.27-25.35-3.44-32.57-5.43-4.63-1.27-21.02-6-41.15-18.02-23.18-13.83-21.27-19.34-44.57-33.66-14.78-9.08-27.84-14.44-39.09-19.03-23.61-9.67-31.91-9.99-48.53-18.9-12.37-6.66-18.87-12.48-28.62-20.18-46.44-36.57-86.06-52.94-85.97-58.96-9.5-.38-21.93-2.21-33.55-7.91-8.31-4.09-10.19-7.19-15.22-10.41-3.38-2.16-6.28-3.28-8.09-3.95-6.28-2.36-9.84-1.95-19.65-3.06-6.66-.75-4.64-.9-15.72-2.45-12.27-1.71-12.46-1.22-20.32-2.53-12.78-2.12-12.39-3.45-17.58-3.2-10.01.48-10.72,5.38-19.74,5.73-10.74.42-12.72-6.41-21.49-4.9-8.36,1.44-9.08,8.09-17.82,8.81-4.68.39-8.39-1.2-13.62-3.43-8.83-3.77-8.96-6.66-15.19-9.3-11.68-4.96-19.07,1.87-24.11-2.69-6.09-5.51,2.87-17.15-3.15-24.97-4.3-5.62-13.9-6.12-21.26-5.69,11.62-8.56,25.37-15.73,33.06-20.76,7.85-5.14,38.5-15.42,38.5-15.42,0,0,20.45,11.75,43.22,2.2,22.79-9.55,29.87-9.55,49.53-7.34,19.65,2.2,62.08,17.63,69.94,20.55,7.88,2.95,18.87-4.39,32.23,12.5,13.35,16.89,85.66,51.41,105.32,63.89,19.65,12.48,85.66,58.75,109.24,70.5,23.58,11.75,91.17,52.16,110.03,59.5,18.89,7.34,52.66,38.2,88.03,51.41,35.38,13.21,88.82,48.49,111.62,57.29,22.78,8.82,53.43,15.43,53.43,15.43l.04,11.37h0l.02.03Z"/>
    <path class="st5" d="M2036,925.44l-17.29,8.8-14.93-.73s-26.73,0-34.58-.73-23.58-3.67-32.22-8.09c-8.66-4.39-28.3-8.8-40.08-11.75-11.78-2.93-42.44-4.39-42.44-4.39l-33.8-13.23s-14.14-7.34-19.65-9.54c-5.5-2.21-41.66-10.29-41.66-10.29l-7.85-.73s-25.93-22.76-39.31-24.98c-13.35-2.2-24.37.73-24.37.73l-27.5,2.95s-19.65,1.46-22.01,1.46-6.29,0-13.35-1.46-11.01-2.21-11.01-2.21c0,0-18.07,5.14-25.15,7.36-7.07,2.2-4.72,1.46-19.65,1.46s-16.51.73-16.51.73c0,0-10.03,2.86-19.99,5.67,5.67-4.69,10.97-8.63,15.53-10.57,11.52-4.9,36.16-22.53,41.4-22.53s18.34,4.41,23.58,4.9c5.24.49,22.54.98,26.72-1.46,4.19-2.46,19.92-13.72,28.3-16.16s34.58-2.95,39.83-2.44c5.24.49,75.44,13.7,91.69,23.01,16.25,9.29,27.78,11.26,42.44,17.14,14.66,5.88,33.55,11.26,48.21,13.7.61.09,1.23.19,1.86.28,5.24,4.96,10.1,9.78,13.32,13.44,11.01,12.48,22.01,11.02,25.17,13.21,3.14,2.2,11.78,7.34,14.14,8.08,2.35.73,25.15,8.82,42.44,13.96s14.14,2.2,20.43,2.2,28.3,2.21,28.3,2.21h0Z"/>
    <path class="st8" d="M558.48,1924.45l-22.3,5.6,2.48-14.54-13.63-10.06-1.24-8.95,11.15-3.35s-1.24-12.31-1.24-15.66,6.2-15.66,6.2-15.66l2.48-12.31,9.91-11.18,5.89-7.27s-.31-2.8-.31-3.92-.31-3.64,1.24-3.91c1.55-.28,3.09-.84,3.09-.84l-1.85-4.76s.61-2.23,1.85-2.8,5.58-5.6,5.58-6.44,1.55-3.64,1.55-3.64l3.4-6.99,4.95-3.64,3.4-11.18,2.17,6.71.31,6.99,3.4,4.48,7.43,4.48s-1.24,3.07-1.24,3.92-1.24,3.64-1.24,3.64c0,0,4.64,1.96,4.95,3.07.31,1.12.93,7.83.93,7.83,0,0-2.78,2.8-2.78,3.64s2.17,4.48,2.48,5.87,3.72,3.07,3.09,5.31c-.61,2.23,4.33,8.39,4.33,8.39l-4.95,4.19s2.48,3.07,3.4,3.64c.93.56,2.78,2.52,2.78,2.52l3.4,1.68-.61,4.48-.31,6.44-2.17,3.07s3.09,1.68,4.02,3.35,1.85,7.83,1.55,8.67c-.31.84-2.48,2.23-2.48,2.23l3.09,3.92.61,4.76s.31,1.96-.31,2.8c-.61.84-3.4,1.39-3.4,2.8s7.13,4.76,7.13,4.76l-.61,4.76s.61,3.07.61,4.19-11.15,3.64-11.15,3.64l.61,4.19s-2.78,1.12-3.72,1.39c-.93.28-14.24.56-14.24,1.39s-1.24,4.19-1.24,4.19l-13.93-.84-14.56-5.03h.02l.03-.02Z"/>
    <path class="st10" d="M1074.49,1753.2l-11.44,3.24,1.27-8.41-7-5.83-.63-5.18,5.72-1.94s-.63-7.12-.63-9.06,3.18-9.06,3.18-9.06l1.27-7.12,5.08-6.47,3.03-4.21s-.16-1.62-.16-2.27-.16-2.1.63-2.27c.79-.16,1.59-.49,1.59-.49l-.96-2.75s.32-1.29.96-1.62,2.87-3.24,2.87-3.72.79-2.1.79-2.1l1.74-4.05,2.54-2.1,1.74-6.47,1.11,3.88.16,4.05,1.74,2.59,3.81,2.59s-.63,1.78-.63,2.27-.63,2.1-.63,2.1c0,0,2.38,1.13,2.54,1.78s.47,4.53.47,4.53c0,0-1.43,1.62-1.43,2.1s1.11,2.59,1.27,3.4,1.9,1.78,1.59,3.07,2.23,4.85,2.23,4.85l-2.54,2.43s1.27,1.78,1.74,2.1,1.43,1.46,1.43,1.46l1.74.97-.32,2.59-.16,3.72-1.11,1.78s1.59.97,2.07,1.94c.47.97.96,4.53.79,5.02-.16.49-1.27,1.29-1.27,1.29l1.59,2.27.32,2.75s.16,1.13-.16,1.62-1.74.81-1.74,1.62,3.66,2.75,3.66,2.75l-.32,2.75s.32,1.78.32,2.43-5.72,2.1-5.72,2.1l.32,2.43s-1.43.65-1.9.81-7.31.32-7.31.81-.63,2.43-.63,2.43l-7.15-.49-7.47-2.91h-.02Z"/>
    <path class="st10" d="M1586.27,1728.09l-15.07,3.83,1.67-9.95-9.2-6.89-.83-6.12,7.53-2.3s-.83-8.41-.83-10.71,4.18-10.71,4.18-10.71l1.67-8.41,6.7-7.65,3.97-4.98s-.21-1.91-.21-2.68-.21-2.49.83-2.68,2.09-.57,2.09-.57l-1.25-3.25s.42-1.53,1.25-1.91,3.76-3.83,3.76-4.4,1.05-2.49,1.05-2.49l2.3-4.79,3.35-2.49,2.3-7.65,1.47,4.59.21,4.79,2.3,3.06,5.02,3.06s-.83,2.1-.83,2.68-.83,2.49-.83,2.49c0,0,3.14,1.34,3.35,2.1s.62,5.35.62,5.35c0,0-1.88,1.91-1.88,2.49s1.47,3.06,1.67,4.01c.21.96,2.51,2.1,2.09,3.64-.42,1.53,2.92,5.74,2.92,5.74l-3.35,2.87s1.67,2.1,2.3,2.49,1.88,1.72,1.88,1.72l2.3,1.15-.42,3.06-.21,4.4-1.47,2.1s2.09,1.15,2.72,2.3c.62,1.15,1.25,5.35,1.05,5.93-.21.57-1.67,1.53-1.67,1.53l2.09,2.68.42,3.25s.21,1.34-.21,1.91-2.3.96-2.3,1.91,4.8,3.25,4.8,3.25l-.42,3.25s.42,2.1.42,2.87-7.53,2.49-7.53,2.49l.42,2.87s-1.88.76-2.51.96c-.62.19-9.62.39-9.62.96s-.83,2.87-.83,2.87l-9.41-.57-9.83-3.44h.05Z"/>
    <path class="st10" d="M1626.59,1724.87l-9.15,2.35,1.02-6.11-5.6-4.23-.5-3.76,4.58-1.41s-.5-5.16-.5-6.58,2.54-6.58,2.54-6.58l1.02-5.16,4.07-4.69,2.41-3.05s-.13-1.18-.13-1.64-.13-1.53.5-1.64,1.27-.35,1.27-.35l-.77-2s.26-.94.77-1.18c.5-.24,2.29-2.35,2.29-2.7s.63-1.53.63-1.53l1.4-2.94,2.03-1.53,1.4-4.69.89,2.82.13,2.94,1.4,1.88,3.05,1.88s-.5,1.29-.5,1.64-.5,1.53-.5,1.53c0,0,1.9.82,2.03,1.29s.39,3.29.39,3.29c0,0-1.13,1.18-1.13,1.53s.89,1.88,1.02,2.47c.13.58,1.52,1.29,1.27,2.23s1.78,3.52,1.78,3.52l-2.03,1.76s1.02,1.29,1.4,1.53,1.13,1.06,1.13,1.06l1.4.71-.26,1.88-.13,2.7-.89,1.29s1.27.71,1.66,1.41.77,3.29.63,3.64-1.02.94-1.02.94l1.27,1.64.26,2s.13.82-.13,1.18c-.26.35-1.4.58-1.4,1.18s2.92,2,2.92,2l-.26,2s.26,1.29.26,1.76-4.58,1.53-4.58,1.53l.26,1.76s-1.13.47-1.52.58-5.85.24-5.85.58-.5,1.76-.5,1.76l-5.71-.35-5.97-2.11h-.02v-.03Z"/>
    <path class="st10" d="M1549.6,1730.92l-10.07,3.61.37-6.74-6.88-3.94-1.05-4.01,5.01-2.05s-1.23-5.54-1.41-7.07,2.04-7.43,2.04-7.43l.49-5.72,4.01-5.57,2.35-3.59s-.29-1.26-.35-1.77c-.06-.51-.34-1.64.36-1.84s1.39-.53,1.39-.53l-1.12-2.07s.17-1.05.72-1.36c.55-.31,2.3-2.81,2.25-3.19-.04-.39.52-1.72.52-1.72l1.21-3.35,2.11-1.89.98-5.26,1.37,2.95.51,3.17,1.83,1.88,3.7,1.69s-.42,1.46-.36,1.84-.39,1.71-.39,1.71c0,0,2.27.67,2.47,1.17.2.49.85,3.52.85,3.52,0,0-1.14,1.4-1.1,1.79.04.39,1.25,1.93,1.47,2.55.22.62,1.89,1.22,1.72,2.27s2.46,3.61,2.46,3.61l-2.08,2.15s1.32,1.28,1.78,1.49,1.43,1.02,1.43,1.02l1.67.6-.05,2.06.2,2.94-.85,1.51s1.53.61,2.04,1.34c.52.72,1.28,3.48,1.18,3.87s-1.03,1.14-1.03,1.14l1.66,1.64.55,2.14s.26.88,0,1.29c-.25.41-1.51.8-1.43,1.43.07.64,3.57,1.83,3.57,1.83l-.03,2.2s.45,1.37.51,1.88c.06.51-4.99,2.19-4.99,2.19l.51,1.88s-1.24.64-1.66.81-6.59.93-6.55,1.32-.35,1.97-.35,1.97l-6.53.28-7.04-1.6v-.04h0Z"/>
    <path class="st8" d="M76.38,1905.14l-17.32,5.48.96-11.24-11.51-6.94-1.61-6.77,8.62-3.18s-1.83-9.33-2.07-11.89,3.84-12.3,3.84-12.3l1.12-9.54,7.09-9.08,4.17-5.87s-.44-2.12-.51-2.98-.49-2.76.72-3.05,2.4-.81,2.4-.81l-1.81-3.53s.33-1.74,1.28-2.23,4.04-4.58,3.98-5.22.97-2.86.97-2.86l2.23-5.52,3.69-3.04,1.94-8.73,2.18,5,.73,5.32,3.02,3.23,6.21,3.02s-.78,2.41-.72,3.05-.74,2.85-.74,2.85c0,0,3.82,1.24,4.14,2.08s1.28,5.93,1.28,5.93c0,0-2.01,2.29-1.97,2.93.06.64,2.02,3.3,2.36,4.35s3.17,2.15,2.82,3.89,4.02,6.17,4.02,6.17l-3.65,3.48s2.18,2.21,2.95,2.59,2.39,1.77,2.39,1.77l2.82,1.09-.18,3.45.2,4.93-1.51,2.47s2.57,1.11,3.42,2.35c.86,1.23,2.01,5.88,1.83,6.54s-1.82,1.85-1.82,1.85l2.73,2.82.81,3.6s.39,1.48-.05,2.15c-.44.68-2.61,1.25-2.51,2.32.1,1.06,5.99,3.24,5.99,3.24l-.16,3.67s.71,2.32.78,3.17c.09.86-8.6,3.38-8.6,3.38l.78,3.17s-2.14,1.01-2.86,1.27-11.28,1.21-11.22,1.85c.06.64-.7,3.27-.7,3.27l-11.13.12-11.91-3.05h0l.04-.02Z"/>
    <path class="st10" d="M79.69,1714.5l-12.53,4.48.65-9.31-8.37-5.79-1.19-5.62,6.23-2.59s-1.36-7.74-1.54-9.86,2.73-10.18,2.73-10.18l.78-7.9,5.1-7.5,3-4.85s-.32-1.75-.39-2.47c-.06-.71-.37-2.29.5-2.53s1.73-.66,1.73-.66l-1.32-2.93s.25-1.44.92-1.85c.68-.41,2.91-3.78,2.87-4.31-.04-.53.7-2.37.7-2.37l1.59-4.57,2.66-2.51,1.36-7.23,1.61,4.16.55,4.41,2.19,2.69,4.52,2.52s-.55,2-.5,2.53-.52,2.36-.52,2.36c0,0,2.77,1.05,3.02,1.73s.95,4.92.95,4.92c0,0-1.46,1.88-1.41,2.42.04.53,1.49,2.74,1.73,3.61.26.88,2.3,1.79,2.07,3.23-.25,1.44,2.94,5.13,2.94,5.13l-2.63,2.86s1.59,1.85,2.15,2.16c.57.31,1.73,1.48,1.73,1.48l2.04.91-.12,2.86.16,4.08-1.08,2.04s1.87.93,2.49,1.95,1.49,4.88,1.35,5.42c-.13.55-1.31,1.52-1.31,1.52l1.99,2.35.61,2.99s.28,1.22-.03,1.78-1.88,1.03-1.82,1.91c.07.89,4.34,2.7,4.34,2.7l-.1,3.03s.52,1.92.58,2.63c.06.71-6.22,2.77-6.22,2.77l.58,2.63s-1.54.83-2.07,1.05c-.52.22-8.16.95-8.12,1.49.04.53-.49,2.7-.49,2.7l-8.06.06-8.65-2.57.05.05h-.03Z"/>
    <path class="st8" d="M1697.5,1972.27l-8.54,2.98.37-5.7-5.78-3.38-.86-3.41,4.25-1.71s-1-4.7-1.13-6c-.14-1.29,1.8-6.28,1.8-6.28l.46-4.84,3.43-4.68,2.01-3.02s-.25-1.06-.28-1.5c-.05-.43-.27-1.39.32-1.55s1.18-.43,1.18-.43l-.93-1.77s.15-.89.61-1.15,1.97-2.37,1.93-2.69c-.03-.32.46-1.46.46-1.46l1.05-2.83,1.81-1.58.88-4.45,1.13,2.52.42,2.69,1.52,1.6,3.1,1.45s-.36,1.23-.32,1.55c.03.32-.33,1.45-.33,1.45,0,0,1.9.58,2.08,1.01s.68,2.99.68,2.99c0,0-.97,1.18-.95,1.51.03.32,1.04,1.65,1.22,2.18s1.59,1.06,1.44,1.94c-.15.89,2.05,3.08,2.05,3.08l-1.78,1.8s1.1,1.09,1.49,1.28c.4.18,1.2.87,1.2.87l1.41.52-.06,1.75.14,2.5-.73,1.26s1.29.54,1.72,1.15c.44.61,1.06,2.96.96,3.29-.09.34-.89.95-.89.95l1.38,1.39.44,1.81s.2.74,0,1.09c-.21.35-1.28.67-1.23,1.21s3,1.57,3,1.57l-.05,1.86s.37,1.17.42,1.59c.05.43-4.24,1.81-4.24,1.81l.42,1.59s-1.05.54-1.4.68-5.59.73-5.54,1.06c.03.32-.31,1.67-.31,1.67l-5.51.19-5.94-1.41v.02l.02-.02Z"/>
    <path class="st10" d="M3675.85,1876.57l-20.78,3.21,2.71-10.15-12.31-7.53-.89-6.33,10.4-2s-.79-8.7-.71-11.05,6.17-10.82,6.17-10.82l2.64-8.57,9.48-7.55,5.65-4.92s-.21-1.98-.17-2.76c.03-.79-.18-2.56,1.26-2.71s2.88-.49,2.88-.49l-1.58-3.4s.63-1.55,1.8-1.9,5.32-3.75,5.33-4.34,1.53-2.51,1.53-2.51l3.35-4.81,4.69-2.39,3.47-7.75,1.82,4.79.09,4.93,3.03,3.26,6.74,3.39s-1.23,2.12-1.26,2.71c-.02.59-1.25,2.52-1.25,2.52,0,0,4.25,1.53,4.49,2.33s.63,5.54.63,5.54c0,0-2.65,1.88-2.69,2.47-.02.59,1.87,3.21,2.13,4.21.25.99,3.35,2.28,2.71,3.83s3.77,6.04,3.77,6.04l-4.7,2.79s2.2,2.24,3.05,2.67c.85.42,2.51,1.87,2.51,1.87l3.1,1.29-.7,3.13-.46,4.51-2.09,2.09s2.81,1.28,3.63,2.49c.8,1.21,1.49,5.57,1.19,6.14-.31.58-2.35,1.49-2.35,1.49l2.75,2.86.44,3.36s.24,1.39-.36,1.96-3.19.88-3.23,1.86,6.45,3.57,6.45,3.57l-.71,3.33s.48,2.19.45,2.97c-.03.79-10.41,2.2-10.41,2.2l.45,2.97s-2.61.7-3.48.87-13.18-.07-13.2.52-1.26,2.91-1.26,2.91l-12.86-1.05-13.32-4.01h-.02v-.04Z"/>
    <path class="st11" d="M2255.81,1697.52l-7.77,2.05.52-3.69-5.07-2.09-.65-2.19,3.87-1.17s-.74-3.02-.81-3.85c-.09-.84,1.83-4.08,1.83-4.08l.59-3.14,3.24-3.08,1.92-1.99s-.18-.69-.2-.96-.2-.9.34-1.01,1.08-.3,1.08-.3l-.78-1.13s.16-.57.6-.75c.43-.18,1.84-1.55,1.83-1.76s.46-.95.46-.95l1.04-1.84,1.67-1.06.94-2.88.93,1.6.28,1.73,1.31,1.01,2.74.9s-.36.8-.34,1.01-.35.94-.35.94c0,0,1.69.35,1.83.61.14.27.51,1.92.51,1.92,0,0-.92.78-.9.99s.88,1.05,1.02,1.39,1.39.65,1.23,1.22c-.16.57,1.73,1.96,1.73,1.96l-1.66,1.19s.95.69,1.29.8,1.05.55,1.05.55l1.25.31-.11,1.13.04,1.61-.7.83s1.13.32,1.51.72c.37.39.85,1.89.76,2.11s-.82.63-.82.63l1.19.88.33,1.17s.16.48-.04.71-1.17.45-1.13.8,2.64.97,2.64.97l-.1,1.2s.29.74.32,1.03-3.86,1.23-3.86,1.23l.32,1.03s-.96.36-1.28.46c-.32.09-5.04.57-5.02.77s-.34,1.08-.34,1.08l-4.96.21-5.29-.82h-.02,0Z"/>
    <path class="st11" d="M3485.48,1559.05l-7.9,2.89.21-5.01-5.47-2.78-.88-2.96,3.93-1.63s-1.04-4.09-1.2-5.22c-.16-1.13,1.52-5.56,1.52-5.56l.32-4.26,3.09-4.22,1.81-2.71s-.25-.93-.3-1.31-.28-1.22.26-1.38c.56-.16,1.09-.42,1.09-.42l-.91-1.52s.12-.78.55-1.03,1.78-2.14,1.73-2.42c-.04-.28.4-1.29.4-1.29l.92-2.51,1.65-1.45.72-3.93,1.11,2.17.44,2.35,1.47,1.36,2.93,1.17s-.3,1.09-.26,1.38-.28,1.28-.28,1.28c0,0,1.8.45,1.96.81s.72,2.6.72,2.6c0,0-.89,1.06-.85,1.35.04.28,1.01,1.41,1.19,1.87s1.5.87,1.38,1.65c-.12.78,1.99,2.63,1.99,2.63l-1.62,1.64s1.05.92,1.42,1.07c.36.15,1.13.73,1.13.73l1.33.41v1.54l.18,2.19-.64,1.13s1.21.42,1.64.95c.43.53,1.05,2.55.97,2.86-.07.3-.79.87-.79.87l1.32,1.18.45,1.57s.2.65.02.96c-.19.31-1.18.62-1.11,1.09.07.47,2.84,1.28,2.84,1.28v1.63s.37,1.01.43,1.39c.05.38-3.91,1.72-3.91,1.72l.43,1.39s-.96.5-1.29.64c-.32.13-5.18.83-5.15,1.11.04.28-.26,1.47-.26,1.47l-5.15.35-5.56-1.04h-.02v-.03Z"/>
    <path class="st10" d="M3171.83,1852.47l-10.04,3.59,1.51-10.19-5.75-7.29-.29-6.31,5.03-2.19s-.2-8.68-.1-11.03,3.19-10.92,3.19-10.92l1.44-8.61,4.71-7.72,2.81-5.02s-.06-1.97-.03-2.76c.03-.78-.03-2.56.65-2.73.7-.17,1.39-.54,1.39-.54l-.68-3.37s.33-1.56.9-1.94,2.63-3.84,2.65-4.44c.02-.59.78-2.53.78-2.53l1.7-4.86,2.3-2.48,1.83-7.81.77,4.76-.06,4.92,1.38,3.2,3.17,3.26s-.63,2.15-.65,2.73c-.02.59-.65,2.53-.65,2.53,0,0,2.01,1.45,2.11,2.24s.19,5.52.19,5.52c0,0-1.31,1.92-1.34,2.52-.02.59.83,3.18.93,4.16.1.99,1.56,2.22,1.22,3.79-.33,1.56,1.68,5.96,1.68,5.96l-2.31,2.87s1.01,2.2,1.4,2.61,1.16,1.81,1.16,1.81l1.47,1.23-.41,3.14-.32,4.52-1.05,2.13s1.32,1.22,1.68,2.42c.36,1.2.61,5.54.44,6.12-.16.58-1.16,1.54-1.16,1.54l1.26,2.8.14,3.35s.09,1.39-.21,1.96-1.55.93-1.58,1.91c-.04.98,3.03,3.46,3.03,3.46l-.42,3.34s.19,2.18.15,2.96c-.03.79-5.04,2.38-5.04,2.38l.15,2.96s-1.27.74-1.68.92-6.32.17-6.36.76c-.02.59-.66,2.93-.66,2.93l-6.15-.81-6.3-3.77h.02v.02Z"/>
    <path class="st11" d="M2982.35,1625.69l-9.51,2.58,1.43-7.33-5.45-5.25-.28-4.54,4.77-1.57s-.19-6.25-.1-7.94c.09-1.7,3.02-7.86,3.02-7.86l1.37-6.2,4.45-5.55,2.66-3.62s-.05-1.42-.02-1.99-.03-1.85.62-1.97,1.32-.39,1.32-.39l-.65-2.43s.32-1.12.86-1.39,2.49-2.77,2.51-3.19c.02-.42.75-1.83.75-1.83l1.62-3.51,2.18-1.78,1.73-5.63.73,3.42-.06,3.54,1.31,2.3,3,2.35s-.61,1.55-.62,1.97-.61,1.83-.61,1.83c0,0,1.89,1.05,2,1.61s.18,3.98.18,3.98c0,0-1.24,1.39-1.27,1.81-.02.42.78,2.29.88,3.01.09.72,1.48,1.6,1.16,2.72-.32,1.12,1.59,4.3,1.59,4.3l-2.18,2.07s.96,1.58,1.33,1.88,1.1,1.31,1.1,1.31l1.38.89-.39,2.26-.3,3.25-.98,1.54s1.25.89,1.61,1.74.57,3.99.42,4.41c-.15.42-1.1,1.1-1.1,1.1l1.19,2.02.13,2.41s.09,1-.2,1.41-1.47.67-1.5,1.38,2.87,2.49,2.87,2.49l-.39,2.4s.18,1.56.15,2.13-4.78,1.71-4.78,1.71l.15,2.13s-1.2.54-1.59.67-5.99.12-6.02.55c-.02.42-.63,2.11-.63,2.11l-5.83-.58-5.97-2.71h0v-.02Z"/>
    <path class="st11" d="M3029.71,1625.59l-7.55,1.58,1.18-4.81-4.29-3.51-.19-2.99,3.79-.98s-.11-4.1-.03-5.22,2.44-5.13,2.44-5.13l1.12-4.06,3.57-3.6,2.14-2.35s-.04-.93,0-1.3-.02-1.22.5-1.28c.52-.08,1.05-.24,1.05-.24l-.5-1.6s.26-.73.68-.9,1.99-1.79,2.01-2.07.61-1.19.61-1.19l1.31-2.28,1.73-1.15,1.4-3.67.56,2.25-.07,2.33,1.03,1.53,2.36,1.57s-.48,1.01-.5,1.28-.5,1.2-.5,1.2c0,0,1.5.71,1.57,1.08s.12,2.61.12,2.61c0,0-1,.9-1.02,1.18s.61,1.52.68,1.98,1.16,1.06.9,1.8,1.24,2.84,1.24,2.84l-1.75,1.33s.75,1.06,1.05,1.25c.29.2.87.87.87.87l1.09.6-.31,1.48-.26,2.13-.79,1s.98.59,1.26,1.17c.27.57.44,2.62.3,2.9s-.88.72-.88.72l.94,1.34.09,1.58s.06.65-.17.92-1.17.42-1.2.89,2.26,1.67,2.26,1.67l-.32,1.57s.13,1.03.1,1.4-3.8,1.07-3.8,1.07l.1,1.4s-.96.34-1.27.41c-.31.08-4.75,0-4.77.29s-.51,1.38-.51,1.38l-4.62-.45-4.72-1.85v.03h0Z"/>
    <path class="st11" d="M2945.59,1632.74l-5.47,1.98-.19-3.2-4.11-1.68-.83-1.88,2.71-1.11s-1.03-2.6-1.22-3.32.71-3.58.71-3.58l-.06-2.72,1.93-2.75,1.11-1.76s-.25-.59-.3-.83-.29-.77.1-.89c.39-.11.76-.29.76-.29l-.76-.95s.03-.5.32-.67c.29-.16,1.13-1.39,1.08-1.57-.05-.18.19-.84.19-.84l.48-1.62,1.08-.95.25-2.52.95,1.37.48,1.49,1.13.84,2.18.7s-.14.71-.1.89-.11.82-.11.82c0,0,1.32.25,1.47.49.14.23.7,1.65.7,1.65,0,0-.57.7-.51.88s.81.89.97,1.17c.16.29,1.13.53,1.11,1.03-.03.5,1.62,1.65,1.62,1.65l-1.05,1.07s.81.57,1.09.66.87.44.87.44l.97.24.1.98.29,1.39-.39.73s.9.25,1.24.57c.33.33.94,1.61.9,1.81-.03.19-.51.57-.51.57l1.03.73.44,1s.19.41.09.61-.8.42-.73.72,2.13.77,2.13.77l.11,1.05s.34.64.41.88c.06.24-2.69,1.17-2.69,1.17l.41.88s-.65.34-.89.43-3.67.62-3.62.8-.09.94-.09.94l-3.67.31-4.08-.57h-.02Z"/>
    <path class="st10" d="M2436.11,1796.89l-5.93,1.43.82-4.24-3.46-3.08-.22-2.64,2.97-.89s-.18-3.62-.14-4.61c.04-.98,1.82-4.53,1.82-4.53l.79-3.59,2.73-3.18,1.64-2.08s-.05-.82-.03-1.15c0-.33-.04-1.06.37-1.14.42-.07.82-.22.82-.22l-.44-1.41s.19-.65.52-.8,1.53-1.59,1.54-1.84c0-.24.45-1.06.45-1.06l.97-2.02,1.34-1.02,1.03-3.25.49,1.99v2.05l.83,1.35,1.9,1.39s-.36.9-.37,1.14c0,.24-.37,1.06-.37,1.06,0,0,1.2.61,1.27.95.07.33.15,2.31.15,2.31,0,0-.77.79-.78,1.04s.51,1.33.59,1.74c.06.41.94.93.76,1.58-.19.65,1.04,2.5,1.04,2.5l-1.35,1.19s.61.92.86,1.09.71.76.71.76l.88.53-.21,1.31-.16,1.88-.61.89s.79.52,1.02,1.02.4,2.32.3,2.55-.67.63-.67.63l.77,1.18.11,1.4s.06.57-.11.82c-.17.24-.91.38-.93.79s1.82,1.46,1.82,1.46l-.22,1.39s.13.9.11,1.23c0,.33-2.97.96-2.97.96l.11,1.23s-.75.3-1,.38-3.76.03-3.76.28-.37,1.22-.37,1.22l-3.65-.38-3.77-1.61h-.03l.03.02Z"/>
    <path class="st11" d="M2514.43,1690.13l-3.64.93.51-2.73-2.13-1.98-.13-1.7,1.83-.57s-.11-2.33-.09-2.97c.03-.63,1.12-2.92,1.12-2.92l.49-2.31,1.68-2.05,1.01-1.34s-.03-.53-.02-.74-.02-.69.24-.73.5-.14.5-.14l-.26-.9s.12-.41.32-.52.95-1.03.95-1.19.28-.68.28-.68l.61-1.3.82-.66.63-2.09.3,1.28v1.32l.51.87,1.17.89s-.22.57-.24.73c0,.16-.24.68-.24.68,0,0,.74.4.78.61s.09,1.48.09,1.48c0,0-.47.51-.47.67s.31.86.35,1.12.58.6.46,1.02c-.12.41.63,1.61.63,1.61l-.83.76s.37.59.52.71.44.49.44.49l.54.34-.13.84-.1,1.22-.37.57s.48.33.62.66c.14.32.25,1.49.18,1.65s-.42.41-.42.41l.47.75.06.9s.03.37-.07.53-.57.24-.58.51,1.11.94,1.11.94l-.14.9s.09.58.07.79c0,.21-1.83.62-1.83.62l.07.79s-.45.2-.61.24c-.15.05-2.31.03-2.31.18,0,.16-.24.78-.24.78l-2.25-.24-2.31-1.04v.02h0Z"/>
    <path class="st11" d="M2281.66,1697.36l-2.74,1.12.09-2.33-1.88-1.44-.29-1.4,1.36-.65s-.34-1.93-.4-2.46.55-2.54.55-2.54l.13-1.97,1.09-1.88.63-1.22s-.09-.44-.1-.61-.09-.57.1-.63c.19-.06.39-.17.39-.17l-.31-.73s.04-.36.19-.46.62-.94.61-1.07.14-.59.14-.59l.32-1.14.58-.63.26-1.8.37,1.04.14,1.1.5.67,1.01.63s-.11.5-.1.63-.1.58-.1.58c0,0,.61.26.67.43s.25,1.22.25,1.22c0,0-.31.47-.3.6s.34.69.41.9c.06.22.51.44.47.81-.04.36.67,1.28.67,1.28l-.57.72s.36.46.48.54.4.37.4.37l.45.23v.72l.05,1.02-.24.51s.43.24.57.49.35,1.22.33,1.36c-.03.13-.28.38-.28.38l.45.58.15.74s.07.3,0,.44-.42.25-.4.48c.02.22.97.68.97.68v.75s.12.48.14.66c.02.18-1.36.7-1.36.7l.14.66s-.33.21-.45.26c-.11.06-1.81.24-1.79.38s-.09.68-.09.68l-1.79.02-1.93-.64h.03v-.02Z"/>
    <path class="st10" d="M2738.45,1817.9l-11.79,3.35c-.7.2-1.37-.34-1.29-1.01l.52-4.2c.05-.42-.2-.82-.62-.98l-7.77-2.96c-.28-.1-.49-.33-.59-.59l-.79-2.42c-.16-.49.12-1,.63-1.17l4.92-1.57c.49-.16.78-.64.65-1.11-.41-1.52-1.22-4.67-1.34-5.74-.15-1.3,2.47-6.07,2.94-6.93.05-.09.09-.19.1-.28l.82-4.95c.03-.19.12-.37.27-.51l5.33-5.18,2.91-3.1c.22-.24.3-.55.22-.84-.1-.38-.24-.9-.26-1.18-.06-.47-.37-1.53.57-1.74.19-.05.39-.09.57-.14.65-.18.94-.9.56-1.43l-.34-.47c-.2-.27-.25-.64-.09-.93s.42-.62.78-.78c.74-.32,3.16-2.74,3.11-3.1-.04-.33.65-1.46.76-1.63,0-.02.02-.03.03-.05l1.62-2.96c.07-.14.18-.25.32-.35l2.36-1.55c.19-.12.33-.3.4-.51l.78-2.53c.25-.8,1.39-.93,1.83-.21l.41.66c.06.09.1.2.12.31l.45,2.42c.04.24.18.44.37.58l1.88,1.36c.09.07.2.12.31.15l3.64,1.07c.54.16.82.7.65,1.2-.12.34-.22.69-.2.85.02.13-.06.38-.15.64-.19.53.14,1.08.72,1.22.87.2,1.94.49,2.08.75.18.33.61,1.9.83,2.74.09.32-.02.66-.26.89-.46.43-1.16,1.12-1.13,1.36.04.36,1.56,1.76,1.83,2.34.26.57,2.45,1.06,2.18,2.05-.17.64,1.16,1.81,2.13,2.56.49.39.47,1.08-.02,1.46l-.78.57c-.54.4-.5,1.18.07,1.53.44.26.89.52,1.15.59.48.14,1.39.63,1.72.82.09.05.17.08.27.1l1.21.27c.48.1.8.53.77.98l-.09,1.09v.11l.12,2.36c0,.22-.06.44-.2.61l-.11.14c-.41.49-.19,1.21.43,1.44.54.2,1.1.47,1.39.76.65.65,1.55,3.2,1.4,3.58-.04.11-.19.25-.37.41-.48.4-.47,1.1.04,1.46l.76.53c.17.12.3.29.36.49l.54,1.68s.29.81-.05,1.21-2.02.82-1.96,1.41c.05.43,2.53,1.06,3.83,1.38.47.11.78.52.76.97l-.07,1.06c0,.13,0,.26.06.4.15.37.47,1.2.51,1.55s-3.84,1.48-5.71,2c-.55.15-.85.69-.66,1.19h0c.16.47-.09.97-.58,1.16s-1.08.41-1.37.5c-.56.18-8.76,1.16-8.72,1.52.02.21-.16.79-.32,1.25-.13.37-.48.62-.89.65l-7.88.5h-.2l-8.92-1.15c-.14-.02-.29,0-.44.03h-.05.02Z"/>
    <path class="st10" d="M2978.61,1801.63l-5.86.68.78-2.43-3.47-1.87-.25-1.53,2.93-.43s-.21-2.09-.18-2.66,1.75-2.57,1.75-2.57l.76-2.04,2.69-1.77,1.61-1.16s-.06-.48-.05-.67-.05-.62.36-.65.81-.1.81-.1l-.44-.83s.18-.37.51-.45,1.5-.88,1.51-1.02c0-.14.44-.59.44-.59l.95-1.14,1.32-.56.98-1.85.5,1.16.02,1.19.85.8,1.89.85s-.35.51-.36.65c0,.14-.35.6-.35.6,0,0,1.19.39,1.26.57s.17,1.34.17,1.34c0,0-.76.44-.76.58s.52.78.6,1.02.94.57.76.93,1.06,1.47,1.06,1.47l-1.33.65s.61.55.86.66c.25.1.71.46.71.46l.88.32-.2.74-.14,1.08-.6.49s.79.32,1.02.61c.24.29.42,1.35.32,1.48s-.66.35-.66.35l.78.7.12.81s.06.33-.1.47c-.17.13-.9.2-.92.43,0,.24,1.82.89,1.82.89l-.2.79s.13.53.12.72c0,.19-2.94.48-2.94.48l.12.72s-.74.15-.97.19c-.25.04-3.72-.08-3.73.07,0,.14-.36.7-.36.7l-3.63-.31-3.76-1.03h.03-.01Z"/>
    <path class="st8" d="M322.99,1912.48l-8.61,1.93.96-5.02-5.26-3.48-.47-3.09,4.3-1.16s-.47-4.25-.47-5.41,2.39-5.41,2.39-5.41l.96-4.25,3.82-3.86,2.27-2.52s-.12-.97-.12-1.36-.12-1.25.47-1.36c.6-.09,1.2-.29,1.2-.29l-.72-1.64s.25-.77.72-.97,2.15-1.93,2.15-2.22.6-1.25.6-1.25l1.31-2.41,1.92-1.25,1.31-3.86.83,2.32.12,2.41,1.31,1.55,2.88,1.55s-.47,1.06-.47,1.36-.47,1.25-.47,1.25c0,0,1.8.68,1.92,1.06s.36,2.7.36,2.7c0,0-1.08.97-1.08,1.25s.83,1.55.96,2.03,1.43,1.06,1.2,1.84,1.67,2.9,1.67,2.9l-1.92,1.45s.96,1.06,1.31,1.25c.36.2,1.08.87,1.08.87l1.31.58-.25,1.55-.12,2.22-.83,1.06s1.2.58,1.55,1.16c.36.58.72,2.7.6,3s-.96.77-.96.77l1.2,1.36.25,1.64s.12.68-.12.97-1.31.48-1.31.97,2.75,1.64,2.75,1.64l-.25,1.64s.25,1.06.25,1.45-4.3,1.25-4.3,1.25l.25,1.45s-1.08.39-1.43.48c-.36.09-5.5.2-5.5.48s-.47,1.45-.47,1.45l-5.38-.29-5.62-1.74h-.01Z"/>
    <path class="st10" d="M114.5,1714.7l-7.7,2.47.86-6.42-4.71-4.45-.43-3.95,3.85-1.48s-.43-5.44-.43-6.92,2.14-6.92,2.14-6.92l.86-5.44,3.42-4.94,2.03-3.21s-.11-1.23-.11-1.72-.11-1.6.43-1.72,1.07-.37,1.07-.37l-.64-2.1s.21-.99.64-1.23c.43-.24,1.93-2.47,1.93-2.84s.54-1.6.54-1.6l1.18-3.09,1.71-1.6,1.18-4.94.75,2.96.11,3.09,1.18,1.98,2.57,1.98s-.43,1.36-.43,1.72-.43,1.6-.43,1.6c0,0,1.61.87,1.71,1.36s.32,3.46.32,3.46c0,0-.96,1.23-.96,1.6s.75,1.98.86,2.59,1.28,1.36,1.07,2.35,1.5,3.7,1.5,3.7l-1.71,1.86s.86,1.36,1.18,1.6.96,1.11.96,1.11l1.18.74-.21,1.98-.11,2.84-.75,1.36s1.07.74,1.39,1.48.64,3.46.54,3.83-.86.99-.86.99l1.07,1.72.21,2.1s.11.87-.11,1.23c-.21.37-1.18.62-1.18,1.23s2.46,2.1,2.46,2.1l-.21,2.1s.21,1.36.21,1.86-3.85,1.6-3.85,1.6l.21,1.86s-.96.49-1.28.62c-.32.12-4.92.24-4.92.62s-.43,1.86-.43,1.86l-4.8-.37-5.03-2.22-.04-.03h.03Z"/>
    <path class="st8" d="M1032.04,1928.45l-10.72,2.87,1.19-7.48-6.55-5.18-.6-4.61,5.36-1.72s-.6-6.33-.6-8.06,2.97-8.06,2.97-8.06l1.19-6.33,4.77-5.76,2.84-3.74s-.15-1.44-.15-2.02-.15-1.88.6-2.02,1.49-.43,1.49-.43l-.9-2.45s.3-1.15.9-1.44,2.69-2.87,2.69-3.31.75-1.88.75-1.88l1.64-3.6,2.38-1.88,1.64-5.76,1.04,3.46.15,3.6,1.64,2.3,3.57,2.3s-.6,1.58-.6,2.02-.6,1.88-.6,1.88c0,0,2.24,1.01,2.38,1.58.15.57.44,4.03.44,4.03,0,0-1.34,1.44-1.34,1.88s1.04,2.3,1.19,3.02,1.79,1.58,1.49,2.73,2.09,4.32,2.09,4.32l-2.38,2.16s1.19,1.58,1.64,1.88c.44.29,1.34,1.29,1.34,1.29l1.64.87-.3,2.3-.15,3.31-1.04,1.58s1.49.87,1.94,1.72c.44.87.9,4.03.75,4.46-.15.43-1.19,1.15-1.19,1.15l1.49,2.02.3,2.45s.15,1.01-.15,1.44c-.3.43-1.64.72-1.64,1.44s3.42,2.45,3.42,2.45l-.3,2.45s.3,1.58.3,2.16-5.36,1.88-5.36,1.88l.3,2.16s-1.34.57-1.79.72c-.44.14-6.85.29-6.85.72s-.6,2.16-.6,2.16l-6.71-.43-7-2.59h.02Z"/>
    <path class="st8" d="M830.75,1906.45l-5.25,1.24.59-3.24-3.22-2.24-.29-2,2.63-.74s-.29-2.74-.29-3.49,1.47-3.49,1.47-3.49l.59-2.74,2.34-2.5,1.39-1.62s-.07-.62-.07-.88-.07-.81.29-.88.73-.19.73-.19l-.44-1.06s.14-.5.44-.62,1.31-1.24,1.31-1.43.36-.81.36-.81l.8-1.55,1.17-.81.8-2.5.51,1.5.07,1.55.8,1,1.75,1s-.29.69-.29.88-.29.81-.29.81c0,0,1.1.43,1.17.69.07.24.22,1.74.22,1.74,0,0-.65.62-.65.81s.51,1,.59,1.31.88.69.73,1.19c-.14.5,1.02,1.87,1.02,1.87l-1.17.93s.59.69.8.81.65.57.65.57l.8.38-.14,1-.07,1.43-.51.69s.73.38.95.74c.22.38.44,1.74.36,1.93-.07.19-.59.5-.59.5l.73.88.14,1.06s.07.43-.07.62-.8.31-.8.62,1.68,1.06,1.68,1.06l-.14,1.06s.14.69.14.93-2.63.81-2.63.81l.14.93s-.65.24-.88.31-3.36.12-3.36.31-.29.93-.29.93l-3.29-.19-3.42-1.12h-.01Z"/>
    <path class="st8" d="M506.71,1931.31l-11.55,3.73.92-8.59-7.4-5.64-.88-5.24,5.76-2.2s-.96-7.21-1.06-9.18,2.85-9.33,2.85-9.33l.97-7.28,4.9-6.77,2.89-4.39s-.24-1.64-.26-2.3-.26-2.13.55-2.33,1.61-.56,1.61-.56l-1.1-2.76s.26-1.33.9-1.68,2.77-3.4,2.75-3.89.72-2.17.72-2.17l1.61-4.17,2.5-2.23,1.49-6.64,1.31,3.9.34,4.1,1.9,2.56,4.01,2.49s-.57,1.83-.55,2.33c.02.49-.56,2.16-.56,2.16,0,0,2.48,1.06,2.68,1.71.19.65.7,4.58.7,4.58,0,0-1.39,1.7-1.36,2.2.02.49,1.25,2.59,1.46,3.4.2.82,2.02,1.73,1.77,3.06s2.49,4.84,2.49,4.84l-2.49,2.56s1.38,1.76,1.87,2.07c.5.31,1.52,1.42,1.52,1.42l1.83.92-.21,2.64v3.79l-1.05,1.85s1.66.92,2.19,1.89,1.18,4.56,1.04,5.06-1.24,1.37-1.24,1.37l1.72,2.24.44,2.78s.21,1.14-.09,1.65-1.74.89-1.71,1.71c.04.82,3.85,2.66,3.85,2.66l-.2,2.81s.41,1.8.44,2.45c.03.66-5.75,2.36-5.75,2.36l.44,2.45s-1.43.72-1.92.9c-.48.18-7.45.61-7.43,1.1s-.55,2.49-.55,2.49l-7.32-.22-7.77-2.67h.03Z"/>
    <path class="st8" d="M623.65,1931.59l-11.47,1.85,1.79-6.68-6.52-5.14-.29-4.2,5.76-1.18s-.17-5.77-.05-7.33,3.71-7.08,3.71-7.08l1.7-5.64,5.43-4.87,3.24-3.18s-.05-1.31,0-1.83c.04-.52-.02-1.71.77-1.78.79-.08,1.59-.28,1.59-.28l-.77-2.27s.4-1.02,1.04-1.23c.64-.22,3.03-2.41,3.06-2.8.03-.39.92-1.64.92-1.64l1.98-3.14,2.64-1.53,2.14-5.09.85,3.19-.1,3.26,1.55,2.2,3.58,2.34s-.74,1.39-.77,1.78c-.03.39-.76,1.65-.76,1.65,0,0,2.28,1.06,2.39,1.6s.18,3.67.18,3.67c0,0-1.51,1.21-1.54,1.59-.03.39.93,2.16,1.04,2.82.1.66,1.77,1.55,1.37,2.58-.4,1.02,1.88,4.05,1.88,4.05l-2.66,1.78s1.13,1.52,1.58,1.81,1.32,1.26,1.32,1.26l1.66.9-.47,2.06-.4,2.98-1.21,1.36s1.5.89,1.92,1.7.64,3.7.46,4.09c-.19.38-1.33.96-1.33.96l1.42,1.92.14,2.23s.09.92-.26,1.29-1.78.54-1.83,1.19,3.42,2.45,3.42,2.45l-.48,2.2s.2,1.45.16,1.97-5.77,1.31-5.77,1.31l.16,1.97s-1.46.42-1.93.53-7.22-.23-7.24.17c-.03.39-.78,1.91-.78,1.91l-7.02-.87-7.17-2.84h-.05v-.02Z"/>
    <path class="st10" d="M639.15,1729.61l-7.9,2.25.88-5.85-4.83-4.05-.44-3.6,3.95-1.35s-.44-4.95-.44-6.3,2.19-6.3,2.19-6.3l.88-4.95,3.51-4.5,2.09-2.92s-.11-1.12-.11-1.57-.11-1.46.44-1.57c.55-.11,1.1-.34,1.1-.34l-.65-1.91s.22-.9.65-1.12c.44-.23,1.98-2.25,1.98-2.59s.55-1.46.55-1.46l1.21-2.82,1.75-1.46,1.21-4.5.77,2.7.11,2.82,1.21,1.8,2.63,1.8s-.44,1.23-.44,1.57-.44,1.46-.44,1.46c0,0,1.65.79,1.75,1.23.11.45.33,3.15.33,3.15,0,0-.98,1.12-.98,1.46s.77,1.8.88,2.37,1.32,1.23,1.1,2.14,1.53,3.37,1.53,3.37l-1.75,1.69s.88,1.23,1.21,1.46.98,1.01.98,1.01l1.21.68-.22,1.8-.11,2.59-.77,1.23s1.1.68,1.42,1.35c.33.68.65,3.15.55,3.49s-.88.9-.88.9l1.1,1.57.22,1.91s.11.79-.11,1.12c-.22.34-1.21.57-1.21,1.12s2.53,1.91,2.53,1.91l-.22,1.91s.22,1.23.22,1.69-3.95,1.46-3.95,1.46l.22,1.69s-.98.45-1.32.57-5.04.23-5.04.57-.44,1.69-.44,1.69l-4.94-.34-5.15-2.03v.02l-.04-.02Z"/>
    <path class="st8" d="M147.43,1911.6l-5.85,1.55.64-4-3.57-2.78-.32-2.47,2.92-.92s-.32-3.39-.32-4.32,1.63-4.32,1.63-4.32l.64-3.39,2.6-3.08,1.54-2.01s-.09-.77-.09-1.08-.09-1,.32-1.08c.41-.08.81-.24.81-.24l-.48-1.31s.16-.61.48-.77c.32-.15,1.47-1.55,1.47-1.77s.41-1,.41-1l.9-1.93,1.31-1,.9-3.08.57,1.85.09,1.93.9,1.23,1.95,1.23s-.32.85-.32,1.08-.32,1-.32,1c0,0,1.22.54,1.31.85.09.31.25,2.16.25,2.16,0,0-.74.77-.74,1s.57,1.23.64,1.62c.09.39.97.85.81,1.46s1.13,2.31,1.13,2.31l-1.31,1.16s.64.85.9,1c.25.15.74.7.74.7l.9.46-.16,1.23-.09,1.77-.57.85s.81.46,1.06.92.48,2.16.41,2.39-.64.61-.64.61l.81,1.08.16,1.31s.09.54-.09.77-.9.39-.9.77,1.86,1.31,1.86,1.31l-.16,1.31s.16.85.16,1.16-2.92,1-2.92,1l.16,1.16s-.74.31-.97.39-3.75.15-3.75.39-.32,1.16-.32,1.16l-3.66-.24-3.82-1.39h0Z"/>
    <path class="st8" d="M1224.93,1939.7l-17.72,3.84,1.97-9.96-10.83-6.9-.98-6.12,8.86-2.3s-.98-8.42-.98-10.72,4.92-10.72,4.92-10.72l1.97-8.42,7.88-7.66,4.68-4.98s-.25-1.91-.25-2.69-.25-2.49.98-2.69c1.23-.19,2.46-.57,2.46-.57l-1.48-3.26s.49-1.54,1.48-1.91c.98-.39,4.43-3.83,4.43-4.4s1.23-2.49,1.23-2.49l2.71-4.79,3.93-2.49,2.71-7.66,1.72,4.6.25,4.79,2.71,3.06,5.91,3.06s-.98,2.11-.98,2.69-.98,2.49-.98,2.49c0,0,3.69,1.34,3.93,2.11.25.76.74,5.36.74,5.36,0,0-2.21,1.91-2.21,2.49s1.72,3.06,1.97,4.02,2.95,2.11,2.46,3.64c-.49,1.54,3.45,5.75,3.45,5.75l-3.93,2.87s1.97,2.11,2.71,2.49,2.21,1.72,2.21,1.72l2.71,1.15-.49,3.06-.25,4.4-1.72,2.11s2.46,1.15,3.2,2.3,1.48,5.36,1.23,5.94c-.25.57-1.97,1.54-1.97,1.54l2.46,2.69.49,3.26s.25,1.34-.25,1.91c-.49.57-2.71.96-2.71,1.91s5.66,3.26,5.66,3.26l-.49,3.26s.49,2.11.49,2.87-8.86,2.49-8.86,2.49l.49,2.87s-2.21.76-2.95.96c-.74.19-11.32.39-11.32.96s-.98,2.87-.98,2.87l-11.08-.57-11.57-3.45.04-.04h-.03Z"/>
    <path class="st10" d="M1015.62,1759.98l-2.69.91c-1.01.35-2.05-.42-1.93-1.42l.26-2.08c.05-.4-.09-.78-.37-1.07l-2.56-2.58c-.21-.22-.34-.49-.37-.79l-.16-1.57c-.06-.57.28-1.13.86-1.36l.86-.35c.56-.23.9-.75.86-1.32-.09-1.29-.25-3.52-.25-4.31,0-1.01,1.23-4.45,1.48-5.13.03-.08.05-.16.06-.24l.55-3.72c.03-.18.09-.36.19-.52l2.28-3.51,1.24-2.09c.13-.23.19-.48.18-.74-.02-.3-.05-.71-.05-.92,0-.38-.09-1.22.3-1.31s.76-.28.76-.28l-.45-1.59s.15-.75.45-.93,1.37-1.88,1.37-2.16.39-1.22.39-1.22l.74-2.06c.06-.18.17-.35.31-.49l.73-.73c.18-.18.3-.41.35-.64l.76-3.38.5,2.13c.02.08.03.17.03.25l.06,1.91c0,.21.06.41.16.58l.56,1c.09.15.19.28.32.39l.96.79c.4.32.58.82.45,1.3-.05.23-.1.44-.1.56,0,.08-.03.23-.06.38-.12.5.09,1.02.5,1.34.24.18.44.38.46.53.05.26.15,1.5.19,2.18.02.28-.05.57-.21.8-.2.3-.44.7-.44.87,0,.28.54,1.5.61,1.97.09.47.91,1.03.76,1.78-.09.45.32,1.4.66,2.07.25.47.16,1.02-.18,1.42h0c-.4.45-.44,1.08-.09,1.57.12.17.24.31.3.38.24.19.68.85.68.85l.83.57-.15,1.46v.08l-.06,1.83c0,.19-.05.37-.14.54l-.41.77s.76.57.98,1.12c.24.57.45,2.63.39,2.9-.02.07-.06.14-.11.22-.28.4-.28.91-.03,1.34l.15.26c.09.16.15.34.17.52l.12,1.32s.09.66-.09.93c-.15.28-.83.47-.83.93,0,.28.62.79,1.13,1.17.39.28.6.73.55,1.18l-.07.69v.29c.04.29.13.98.13,1.26,0,.22-.93.59-1.7.88-.61.22-.98.79-.92,1.39l.04.36s-.68.38-.91.47c-.24.09-3.5.19-3.5.47v.15c-.1.71-.79,1.22-1.55,1.15l-1.87-.15c-.18-.02-.36-.07-.52-.14l-2.76-1.31c-.35-.17-.78-.19-1.14-.07h.03l-.02-.03Z"/>
  </g>
  <rect class="st4" x="-21.73" y="2020.31" width="3872.35" height="6173.12"/>
  <path class="st8" d="M1622.58,2098.19c.26-48.11-.51-92.69-.26-140.8,25.48,9.03,46.87,7.1,61.2,6.75,10.94-.27,21.28-1.76,40.05-.56,13.87.9,25,2.46,30.84,3.81,37.69,8.69,45.87,9.26,65.54,9.26s45.06-1.16,57.36-2.89,93.39,3.48,93.39,3.48c0,0,54.07-8.1,69.63,1.16,15.57,9.26,99.95,15.63,99.95,15.63,0,0,16.38-6.37,59.81-6.94s88.47,9.84,99.12,9.84,221.19-46.31,290.01-23.16c68.82,23.16,178.59,19.68,231.03,23.16s116.34,11.58,121.25,13.9c4.92,2.32,70.45,2.32,98.31,2.32s104.86-8.1,127.8-8.1c45.21,0,44.43,7.59,144.18,20.84,46.34,6.15,89.2,10.43,107.32,12.22,65.3,6.46,92.52,7.38,136.67,18.64,26.49,6.76,29.92,9.8,56.16,17.54,34.37,10.14,90.61,20.32,156.95,23.52"/>
</svg>