<?xml version="1.0" encoding="UTF-8"?>
<svg id="Layer_1" xmlns="http://www.w3.org/2000/svg" version="1.1" viewBox="0 0 24 24">
  <!-- Generator: Adobe Illustrator 29.6.0, SVG Export Plug-In . SVG Version: 2.1.1 Build 207)  -->
  <defs>
    <style>
      .st0 {
        stroke: #122e5c;
        stroke-miterlimit: 10;
      }

      .st0, .st1 {
        fill: #122e5c;
      }

      .st0, .st2 {
        stroke-linecap: round;
      }

      .st3 {
        isolation: isolate;
      }

      .st2 {
        fill: #fff;
        stroke: #38bdf9;
        stroke-linejoin: round;
        stroke-width: 2px;
      }
    </style>
  </defs>
  <circle class="st0" cx="12" cy="12" r="12"/>
  <path class="st2" d="M8,3l4,8,5-5,5,15H2L8,3Z"/>
  <g class="st3">
    <g class="st3">
      <path class="st1" d="M13.58,14.91c-.04-.13-.09-.25-.16-.36s-.16-.19-.26-.26c-.1-.07-.22-.13-.35-.17-.13-.04-.28-.06-.43-.06-.32,0-.59.08-.82.23-.23.15-.41.38-.54.67-.13.29-.19.65-.19,1.07s.06.78.18,1.07c.12.3.3.52.53.68.23.16.51.23.84.23.29,0,.54-.05.74-.14.2-.09.35-.23.46-.4s.16-.38.16-.62l.29.04h-1.59v-1.15h2.82v.87c0,.59-.12,1.09-.37,1.51-.25.42-.59.74-1.02.96s-.93.34-1.49.34c-.62,0-1.17-.14-1.65-.41s-.84-.66-1.11-1.16c-.26-.5-.4-1.1-.4-1.79,0-.54.08-1.01.24-1.43.16-.42.38-.77.67-1.06s.62-.51,1-.66c.38-.15.79-.22,1.22-.22.38,0,.73.05,1.06.16.33.11.62.26.87.46.25.2.46.43.62.71.16.27.25.57.29.9h-1.6Z"/>
    </g>
  </g>
</svg>